<?xml version="1.0" encoding="UTF-8"?>
<svg xmlns="http://www.w3.org/2000/svg" id="Layer_1" data-name="Layer 1" viewBox="0 0 24 24">
  <path d="m11.5,5c1.379,0,2.5-1.122,2.5-2.5s-1.121-2.5-2.5-2.5-2.5,1.122-2.5,2.5,1.121,2.5,2.5,2.5Zm0-4c.827,0,1.5.673,1.5,1.5s-.673,1.5-1.5,1.5-1.5-.673-1.5-1.5.673-1.5,1.5-1.5Zm5.404,6.205l-1.955,2.675-2.522-3.117c-.524-.492-1.208-.763-1.927-.763-1.379,0-2.5,1.122-2.5,2.5v5.455c0,1.144.636,2.172,1.658,2.683l1.365.683-.024,6.679h1v-6.919c.849-2.591.976-5.168.995-8.029l1.573,1.949h.801l2.342-3.205-.807-.59Zm-5.716,9.08l-1.083-.541c-.682-.341-1.105-1.026-1.105-1.789v-5.455c0-.827.673-1.5,1.5-1.5.463,0,.904.175,1.196.442l.303.376c0,3.093-.037,5.814-.811,8.468Z"/>
</svg>
