<?xml version="1.0" encoding="UTF-8"?>
<svg xmlns="http://www.w3.org/2000/svg" id="Layer_1" data-name="Layer 1" viewBox="0 0 24 24">
  <path d="m23.261,7.968l-3.197-3.325,2.29-2.29-.707-.707-2.276,2.276-3.071-3.194c-.944-.943-2.59-.944-3.536,0l-2.47,2.47,4.832,4.969-6.883,6.883-5.038-5.038-2.475,2.475c-.975.975-.975,2.561,0,3.536l3.271,3.271-2.354,2.354.707.707,2.354-2.354,3.271,3.271c.472.472,1.1.732,1.768.732s1.295-.26,1.768-.732l2.475-2.475-5.039-5.039,6.874-6.873,4.954,5.095,2.479-2.479c.974-.974.975-2.557.004-3.532Zm-12.454,14.596c-.567.567-1.556.566-2.121,0L1.437,15.315c-.585-.585-.585-1.537,0-2.122l1.768-1.768,9.37,9.37-1.768,1.768Zm11.743-11.771l-1.763,1.763L11.698,3.208l1.772-1.772c.567-.567,1.563-.559,2.115-.007l6.957,7.236.007.007c.585.585.585,1.537,0,2.122Z"/>
</svg>
