<?xml version="1.0" encoding="UTF-8"?>
<svg xmlns="http://www.w3.org/2000/svg" id="Layer_1" data-name="Layer 1" viewBox="0 0 24 24">
  <path d="m23.99,10.723c-.045-.024-1.391-.723-3.5-.723-3.031,0-5.307,2.382-6.103,3.343-.556-.206-1.19-.343-1.897-.343-1.869,0-3.642,1.002-4.858,1.903.208-.835.338-1.794.394-2.904,3.296-.015,5.973-2.699,5.973-5.999S11.309,0,8,0,2,2.691,2,6c0,.642.104,1.259.291,1.839C.301,11.987,0,16.304,0,18.419c.156.223,3.993,5.581,11.5,5.581,7.399,0,12.296-3.221,12.491-3.352v-9.925ZM8,1c2.757,0,5,2.243,5,5s-2.243,5-5,5-5-2.243-5-5S5.243,1,8,1Zm3.5,22c-6.358,0-9.899-4.139-10.5-4.905.015-1.936.31-5.44,1.848-9.035.89,1.492,2.404,2.563,4.183,2.854-.089,1.839-.475,3.324-1.007,4.386l.729.686c.028-.03,2.845-2.986,5.738-2.986,2.326,0,3.776,1.877,3.791,1.896l.8-.601c-.042-.056-.669-.859-1.761-1.5.82-.932,2.761-2.796,5.17-2.796,1.271,0,2.104.222,2.5.359v8.743c-.998.592-5.288,2.898-11.49,2.898Zm-3.5-15c1.103,0,2-.897,2-2s-.897-2-2-2-2,.897-2,2,.897,2,2,2Zm0-3c.551,0,1,.449,1,1s-.449,1-1,1-1-.449-1-1,.449-1,1-1Z"/>
</svg>
