<?xml version="1.0" encoding="UTF-8"?>
<svg xmlns="http://www.w3.org/2000/svg" id="Layer_1" data-name="Layer 1" viewBox="0 0 24 24">
  <path d="M9,12c3.309,0,6-2.691,6-6S12.309,0,9,0,3,2.691,3,6s2.691,6,6,6Zm0-11c2.757,0,5,2.243,5,5s-2.243,5-5,5-5-2.243-5-5S6.243,1,9,1ZM4.5,14h6.5v1H4.5c-1.93,0-3.5,1.57-3.5,3.5v5.5H0v-5.5c0-2.481,2.019-4.5,4.5-4.5Zm17.5-3h-7c-1.103,0-2,.897-2,2v11h11V13c0-1.103-.897-2-2-2Zm1,12H14V13c0-.551,.448-1,1-1h7c.552,0,1,.449,1,1v10Zm-7-9h5v1h-5v-1Zm0,3.003h5v1h-5v-1Zm0,2.997h5v1h-5v-1Z"/>
</svg>
