<?xml version="1.0" encoding="UTF-8"?>
<svg xmlns="http://www.w3.org/2000/svg" id="Layer_1" data-name="Layer 1" viewBox="0 0 24 24">
  <path d="m23.734,22.91c-.377.683-1.067,1.09-1.847,1.09h-2.387v-1h2.387c.41,0,.773-.214.972-.573.198-.359.187-.78-.031-1.128l-1.147-1.826.847-.531,1.147,1.826c.415.659.437,1.461.06,2.143Zm-2.802-6.51l-1.182-1.882c-.39-.621-1.048-.988-1.795-.988-.734.003-1.403.378-1.789,1.003l-1.138,1.848.852.525,1.138-1.848c.203-.329.555-.527.941-.528h.004c.384,0,.735.194.94.52l1.182,1.882.847-.531Zm-7.789,6.031c-.199-.356-.19-.777.024-1.124l1.139-1.848-.852-.525-1.139,1.849c-.407.66-.424,1.459-.045,2.136s1.067,1.081,1.842,1.081h2.387v-1h-2.387c-.408,0-.771-.213-.969-.568Zm-2.619,1.464c.021.037.046.069.068.104h-4.757c-1.281,0-2.35-.96-2.486-2.233L1.551,5H0v-1h6v-1.5c0-1.379,1.122-2.5,2.5-2.5h5c1.378,0,2.5,1.121,2.5,2.5v1.5h6v1h-1.552l-.756,6.919c-.308-.142-.633-.246-.972-.31l.722-6.61H2.556l1.787,16.659c.082.765.723,1.341,1.492,1.341h4.323c.088.306.205.607.367.896ZM7,4h8v-1.5c0-.827-.673-1.5-1.5-1.5h-5c-.827,0-1.5.673-1.5,1.5v1.5Z"/>
</svg>
