<?xml version="1.0" encoding="UTF-8"?>
<svg xmlns="http://www.w3.org/2000/svg" id="Layer_1" data-name="Layer 1" viewBox="0 0 24 24">
  <path d="M18.956,1.839c-.297-1.083-1.288-1.839-2.412-1.839H7.456c-1.124,0-2.115,.756-2.412,1.839-.477,1.737-1.044,4.39-1.044,7.161,0,5.469,1.93,14.237,2.012,14.608l.087,.392h11.803l.087-.392c.082-.371,2.012-9.14,2.012-14.608,0-2.771-.567-5.424-1.044-7.161Zm-12.947,.264c.178-.649,.772-1.103,1.447-1.103h9.088c.675,0,1.27,.454,1.447,1.104,.375,1.367,.803,3.322,.951,5.436-2.019,.178-9.213,1.089-13.727,5.094-.131-1.29-.216-2.538-.216-3.634,0-2.66,.549-5.218,1.009-6.897Zm12.349,6.51l-5.533,6.809-6.837-2.137c3.854-3.331,9.863-4.375,12.37-4.672Zm-1.262,14.387H6.904c-.257-1.212-1.039-5.043-1.517-8.855l7.788,2.433,5.817-7.16c-.082,4.729-1.528,11.844-1.896,13.582Zm-5.096-15c1.654,0,3-1.346,3-3s-1.346-3-3-3-3,1.346-3,3,1.346,3,3,3Zm0-5c1.103,0,2,.897,2,2s-.897,2-2,2-2-.897-2-2,.897-2,2-2Z"/>
</svg>
