<?xml version="1.0" encoding="UTF-8"?>
<svg xmlns="http://www.w3.org/2000/svg" id="Layer_1" data-name="Layer 1" viewBox="0 0 24 24">
  <path d="m23,12h1c0,6.617-5.383,12-12,12-4.79,0-9.107-2.863-11-7.205v4.205H0v-4.491c0-.832.677-1.509,1.508-1.509h4.492v1H1.759c1.641,4.2,5.707,7,10.241,7,6.065,0,11-4.935,11-11Zm0-9v4.205C21.107,2.863,16.79,0,12,0,5.383,0,0,5.383,0,12h1C1,5.935,5.935,1,12,1c4.534,0,8.6,2.8,10.241,7h-4.241v1h4.492c.832,0,1.508-.677,1.508-1.509V3h-1Zm-8,3.5v2.5h1.5c.827,0,1.5.673,1.5,1.5v7.341c0,.64-.521,1.159-1.16,1.159-.217,0-.432-.062-.62-.182l-2.25-1.818h-4.97v-3.665l-1.172.949c-.236.153-.451.216-.668.216-.64,0-1.16-.52-1.16-1.159v-6.841c0-.827.673-1.5,1.5-1.5h6c.827,0,1.5.673,1.5,1.5Zm-6,5.544v-1.544c0-.827.673-1.5,1.5-1.5h3.5v-2.5c0-.275-.224-.5-.5-.5h-6c-.276,0-.5.225-.5.5v6.841c0,.108.096.159.16.159l1.84-1.456Zm7.5-2.044h-6c-.276,0-.5.225-.5.5v5.5h4.324l2.478,2.007c.103-.007.198-.058.198-.166v-7.341c0-.275-.224-.5-.5-.5Z"/>
</svg>
