<?xml version="1.0" encoding="UTF-8"?>
<svg xmlns="http://www.w3.org/2000/svg" id="Layer_1" data-name="Layer 1" viewBox="0 0 24 24">
  <path d="M12,23c1.412,0,2.758-.277,4-.764v1.064c-1.253,.445-2.596,.7-4,.7C5.383,24,0,18.617,0,12H1c0,6.065,4.935,11,11,11ZM1.5,9H6v-1H1.756C3.395,3.807,7.485,1,12,1c6.065,0,11,4.935,11,11,0,.338-.036,.669-.068,1h1.025c.027-.33,.043-.664,.043-1C24,5.383,18.617,0,12,0,7.227,0,2.891,2.876,1,7.216V3H0V7.5c0,.827,.673,1.5,1.5,1.5Zm19.5,9h-2v-2h4.5v-1h-5.5v4h3c1.103,0,2,.897,2,2s-.897,2-2,2h-3v1h3c1.654,0,3-1.346,3-3s-1.346-3-3-3ZM5.5,12v1h6.5V5.5h-1v6.5H5.5Z"/>
</svg>
