<?xml version="1.0" encoding="UTF-8"?>
<svg xmlns="http://www.w3.org/2000/svg" id="Layer_1" data-name="Layer 1" viewBox="0 0 24 24">
  <path d="m12,16.359v6.019l-4-1.818v-4.2L1,10.76v-1.76h19v-2c0-1.103-.897-2-2-2h-2c-1.103,0-2,.897-2,2v1h-1v-1c0-1.103-.897-2-2-2h-2c-1.103,0-2,.897-2,2v1h-1v-1c0-1.103-.897-2-2-2h-2c-1.103,0-2,.897-2,2v4.24l7,5.6v4.364l6,2.727v-7.091l1.221-.977c-.116-.358-.179-.735-.201-1.12l-2.021,1.616Zm3-9.359c0-.552.449-1,1-1h2c.551,0,1,.448,1,1v1h-4v-1Zm-7,0c0-.552.449-1,1-1h2c.551,0,1,.448,1,1v1h-4v-1Zm-7,0c0-.552.449-1,1-1h2c.551,0,1,.448,1,1v1H1v-1Zm2-3c1.103,0,2-.897,2-2S4.103,0,3,0,1,.897,1,2s.897,2,2,2Zm0-3c.551,0,1,.448,1,1s-.449,1-1,1-1-.448-1-1,.449-1,1-1Zm7,3c1.103,0,2-.897,2-2s-.897-2-2-2-2,.897-2,2,.897,2,2,2Zm0-3c.551,0,1,.448,1,1s-.449,1-1,1-1-.448-1-1,.449-1,1-1Zm7,3c1.103,0,2-.897,2-2s-.897-2-2-2-2,.897-2,2,.897,2,2,2Zm0-3c.551,0,1,.448,1,1s-.449,1-1,1-1-.448-1-1,.449-1,1-1Zm6,14v-.505c0-.824-.671-1.495-1.495-1.495h-3.01c-.824,0-1.495.671-1.495,1.495,0,.664.446,1.255,1.084,1.438l4.106,1.174c1.065.304,1.81,1.29,1.81,2.398,0,1.376-1.119,2.495-2.495,2.495h-1.005v2h-1v-2h-1.005c-1.376,0-2.495-1.119-2.495-2.495v-.505h1v.505c0,.824.671,1.495,1.495,1.495h3.01c.824,0,1.495-.671,1.495-1.495,0-.664-.446-1.255-1.084-1.438l-4.106-1.174c-1.065-.304-1.81-1.29-1.81-2.398,0-1.376,1.119-2.495,2.495-2.495h1.005v-2h1v2h1.005c1.376,0,2.495,1.119,2.495,2.495v.505h-1Z"/>
</svg>
