<?xml version="1.0" encoding="UTF-8"?>
<svg xmlns="http://www.w3.org/2000/svg" id="Layer_1" data-name="Layer 1" viewBox="0 0 24 24">
  <path d="m24,14.562c0-.774-.16-1.526-.474-2.234l-2.777-6.249c-.562-1.263-1.817-2.078-3.199-2.078h-3.66l-.663-2.651c-.199-.794-.909-1.349-1.728-1.349s-1.529.555-1.728,1.349l-.663,2.651H2.5c-1.378,0-2.5,1.121-2.5,2.5v13.5h2.176c-.116.32-.176.656-.176,1,0,1.654,1.346,3,3,3s3-1.346,3-3c0-.344-.06-.68-.176-1h8.352c-.116.32-.176.656-.176,1,0,1.654,1.346,3,3,3s3-1.346,3-3c0-.344-.06-.68-.176-1h2.176v-5.438Zm-6.45-9.562c.987,0,1.884.583,2.285,1.484l2.463,5.543-6.298-.025v-7.002h1.55Zm-6.808-3.409c.087-.348.399-.591.758-.591s.67.243.758.591l.602,2.409h-2.72l.602-2.409Zm-3.742,19.409c0,1.103-.897,2-2,2s-2-.897-2-2c0-.351.095-.693.277-1h3.446c.182.307.277.649.277,1Zm14,0c0,1.103-.897,2-2,2s-2-.897-2-2c0-.351.095-.693.277-1h3.446c.182.307.277.649.277,1Zm2-2H1V6.5c0-.827.673-1.5,1.5-1.5h12.5v7.998l7.731.031c.179.491.269,1.005.269,1.533v4.438Zm-15-7h3v1h-3v3h-1v-3h-3v-1h3v-3h1v3Z"/>
</svg>
