<?xml version="1.0" encoding="UTF-8"?>
<svg xmlns="http://www.w3.org/2000/svg" id="Layer_1" data-name="Layer 1" viewBox="0 0 24 24">
  <polygon points="1 10.5 2.5 10.5 2.5 9.5 1 9.5 1 8 2.5 8 2.5 7 0 7 0 13 1 13 1 10.5"/>
  <polygon points="14 8 14 7 11.5 7 11.5 13 14 13 14 12 12.5 12 12.5 10.5 14 10.5 14 9.5 12.5 9.5 12.5 8 14 8"/>
  <polygon points="10.5 8 10.5 7 8 7 8 13 10.5 13 10.5 12 9 12 9 10.5 10.5 10.5 10.5 9.5 9 9.5 9 8 10.5 8"/>
  <path d="M23.77,10.726l-1.339-4.017c-.342-1.022-1.295-1.709-2.372-1.709h-3.059v-1.5c0-1.379-1.121-2.5-2.5-2.5H2.5C1.121,1,0,2.121,0,3.5v1.5H1v-1.5c0-.827,.673-1.5,1.5-1.5H14.5c.827,0,1.5,.673,1.5,1.5v14.5H1v-3H0v4H2v1c0,1.654,1.346,3,3,3s3-1.346,3-3v-1h8v1c0,1.654,1.346,3,3,3s3-1.346,3-3v-1h2v-6.851c0-.484-.077-.963-.23-1.424ZM7,20c0,1.103-.897,2-2,2s-2-.897-2-2v-1H7v1ZM17,6h3.059c.646,0,1.219,.412,1.423,1.025l1.325,3.975h-5.806V6Zm4,14c0,1.103-.897,2-2,2s-2-.897-2-2v-1h4v1Zm2-2h-6v-6h5.988c.002,.05,.012,.099,.012,.149v5.851Z"/>
  <path d="M5.042,7h-1.542v6h1v-2.083h.542c.113,0,.222-.015,.33-.033l.856,2.116h1.046l-1.001-2.531c.44-.36,.727-.9,.727-1.511,0-1.08-.878-1.958-1.958-1.958Zm0,2.917h-.542v-1.917h.542c.529,0,.958,.429,.958,.958s-.429,.958-.958,.958Z"/>
</svg>
