<?xml version="1.0" encoding="UTF-8"?>
<svg xmlns="http://www.w3.org/2000/svg" id="Layer_1" data-name="Layer 1" viewBox="0 0 24 24">
  <path d="m5.31,2.036l.559.83c-.509.342-.994.731-1.441,1.155l-.688-.726c.488-.462,1.016-.886,1.571-1.26Zm.578,20.292c.576.341,1.186.637,1.812.878l.359-.934c-.574-.221-1.133-.491-1.661-.805l-.51.86Zm16.135-5.789l.91.413c.277-.611.504-1.25.674-1.898l-.967-.254c-.156.594-.364,1.179-.617,1.739Zm-21.237-.261c.239.626.534,1.237.875,1.815l.861-.509c-.313-.53-.583-1.09-.802-1.663l-.935.356ZM7.07,1.057l.411.911c.561-.253,1.146-.459,1.74-.614l-.252-.968c-.648.168-1.288.394-1.899.67ZM1.004,12.313l-1,.027c.019.673.094,1.347.224,2.001l.98-.194c-.119-.6-.188-1.217-.205-1.834Zm2.585,6.777l-.764.646c.433.512.911.992,1.422,1.424l.646-.763c-.469-.397-.908-.837-1.305-1.307Zm9.92,3.807l.135.991c.666-.091,1.327-.239,1.965-.44l-.301-.954c-.584.185-1.189.32-1.799.403Zm3.507-1.105l.457.89c.593-.305,1.167-.664,1.707-1.066l-.598-.802c-.496.37-1.022.699-1.566.979Zm-7.383,1.974c.655.131,1.328.208,2,.228l.03-1c-.616-.018-1.233-.088-1.834-.208l-.196.98Zm10.329-4.177l.725.689c.462-.486.887-1.013,1.262-1.567l-.828-.561c-.344.509-.733.993-1.158,1.438ZM3.199,5.4l-.8-.601c-.404.538-.764,1.112-1.07,1.707l.889.458c.281-.545.611-1.071.981-1.564Zm-1.686,3.27l-.953-.303c-.203.638-.353,1.299-.445,1.964l.99.138c.085-.61.222-1.215.408-1.799ZM12,0c-.352,0-.699.015-1.042.045l.086.996c.315-.027.634-.041.957-.041,6.065,0,11,4.935,11,11,0,.322-.014.641-.041.957l.996.086c.029-.344.045-.691.045-1.042C24,5.383,18.617,0,12,0Zm1.929,12.5c-.224.86-1,1.5-1.929,1.5-1.103,0-2-.897-2-2,0-.929.64-1.705,1.5-1.929v-5.071h1v5.071c.699.182,1.247.73,1.429,1.429h4.071v1h-4.071Zm-.929-.5c0-.551-.449-1-1-1s-1,.449-1,1,.449,1,1,1,1-.449,1-1Z"/>
</svg>
