<?xml version="1.0" encoding="UTF-8"?>
<svg xmlns="http://www.w3.org/2000/svg" id="Layer_1" data-name="Layer 1" viewBox="0 0 24 24">
  <path d="m24,20V5.5c0-1.378-1.121-2.5-2.5-2.5h-1.5v-.499c0-.792-.362-1.519-.994-1.996-.633-.477-1.43-.625-2.193-.408l-3.396.971c-.584.167-1.077.527-1.416.999-.34-.472-.833-.832-1.417-1L7.187.097c-.761-.217-1.56-.068-2.192.408-.632.477-.995,1.205-.995,1.996v.499h-1.5c-1.378,0-2.5,1.122-2.5,2.5v14.5h11.5v3h-4.5v1h10v-1h-4.5v-3h11.5ZM12.5,3.609c0-.729.49-1.379,1.191-1.58l3.396-.97c.138-.04.277-.059.416-.059.321,0,.635.104.899.304.379.286.597.722.597,1.197v7.479l-6.5,1.857V3.609Zm-7.5-1.108c0-.475.218-.912.597-1.198.38-.286.858-.375,1.315-.244l3.396.97c.702.201,1.192.85,1.192,1.58v8.228l-6.5-1.857V2.501ZM1,5.5c0-.827.673-1.5,1.5-1.5h1.5v6.734l8,2.286,8-2.286v-6.734h1.5c.827,0,1.5.673,1.5,1.5v13.5H1V5.5Z"/>
</svg>
