<?xml version="1.0" encoding="UTF-8"?>
<svg xmlns="http://www.w3.org/2000/svg" id="Layer_1" data-name="Layer 1" viewBox="0 0 24 24">
  <path d="m16.878,7.122C16.216,3.09,12.717,0,8.5,0,3.813,0,0,3.813,0,8.5c0,4.217,3.09,7.716,7.122,8.378.662,4.032,4.161,7.122,8.378,7.122,4.687,0,8.5-3.813,8.5-8.5,0-4.217-3.09-7.716-7.122-8.378Zm-15.878,1.378C1,4.364,4.364,1,8.5,1c3.628,0,6.662,2.59,7.352,6.018-.117-.005-.233-.018-.352-.018-4.687,0-8.5,3.813-8.5,8.5,0,.119.013.234.018.352-3.428-.69-6.018-3.723-6.018-7.352Zm7,7c0-.255.013-.506.038-.755l1.216,1.216c-.248.025-.5.038-.755.038-.161,0-.318-.014-.476-.024-.01-.158-.024-.315-.024-.476Zm2.443.236l-2.179-2.179c.108-.403.248-.793.419-1.167l2.926,2.926c-.374.171-.763.311-1.167.419Zm2.082-.918l-3.343-3.343c.204-.319.432-.621.68-.906l3.568,3.568c-.284.249-.586.476-.906.68Zm1.613-1.387l-3.568-3.568c.284-.249.586-.476.906-.68l3.343,3.343c-.204.319-.432.621-.68.906Zm1.179-1.821l-2.926-2.926c.374-.171.763-.311,1.167-.419l2.179,2.179c-.108.403-.248.793-.419,1.167Zm.683-3.11c0,.255-.013.506-.038.755l-1.216-1.216c.248-.025.5-.038.755-.038.161,0,.318.014.476.024.01.158.024.315.024.476Zm-.5,14.5c-3.628,0-6.662-2.59-7.352-6.018.117.005.233.018.352.018,4.687,0,8.5-3.813,8.5-8.5,0-.119-.013-.234-.018-.352,3.428.69,6.018,3.723,6.018,7.352,0,4.136-3.364,7.5-7.5,7.5Z"/>
</svg>
