<?xml version="1.0" encoding="UTF-8"?>
<svg xmlns="http://www.w3.org/2000/svg" id="Layer_1" data-name="Layer 1" viewBox="0 0 24 24">
  <path d="m13,0h-1v10.191l-1.385.692c-.996.498-1.615,1.5-1.615,2.614v9.503h-3.917l2.846-4.743-.857-.515-3.071,5.119v1.139h10v-3c0-7.521-.786-10.05-1-10.599V0Zm0,23h-3v-9.503c0-.733.407-1.392,1.062-1.719l1.145-.573c.27.996.792,3.708.792,9.795v2Zm4.464-4c-1.382,0-2.464,1.098-2.464,2.5s1.083,2.5,2.464,2.5c1.398,0,2.536-1.122,2.536-2.5s-1.138-2.5-2.536-2.5Zm0,4c-.835,0-1.464-.645-1.464-1.5s.629-1.5,1.464-1.5c.847,0,1.536.673,1.536,1.5s-.689,1.5-1.536,1.5Z"/>
</svg>
