<?xml version="1.0" encoding="UTF-8"?>
<svg xmlns="http://www.w3.org/2000/svg" id="Layer_1" data-name="Layer 1" viewBox="0 0 24 24">
  <path d="M23.181,9.654c-.497-.451-1.146-.683-1.809-.651-.67,.031-1.288,.321-1.739,.817l-3.732,4.103c-.314-1.108-1.335-1.923-2.543-1.923H2.5c-1.379,0-2.5,1.121-2.5,2.5v7c0,1.379,1.121,2.5,2.5,2.5H13.725l9.638-10.817c.912-1.022,.831-2.605-.182-3.528Zm-.564,2.862l-9.341,10.483H2.5c-.827,0-1.5-.673-1.5-1.5v-7c0-.827,.673-1.5,1.5-1.5H13.357c.905,0,1.643,.737,1.643,1.643,0,.812-.605,1.511-1.403,1.624l-5.661,.737,.129,.992,5.667-.738c1.021-.146,1.845-.878,2.146-1.823l4.496-4.94c.271-.299,.643-.474,1.046-.492,.402-.019,.79,.12,1.088,.392,.609,.556,.658,1.508,.109,2.123ZM10.5,6c0-1.103-.897-2-2-2s-2,.897-2,2,.897,2,2,2,2-.897,2-2Zm-2,1c-.552,0-1-.448-1-1s.448-1,1-1,1,.448,1,1-.448,1-1,1Zm-5.933,.747l1.526-.896c-.063-.3-.094-.576-.094-.851s.03-.551,.094-.851l-1.526-.896,1.521-2.587,1.516,.892c.408-.34,.882-.606,1.396-.786V0h3V1.771c.515,.18,.988,.446,1.396,.786l1.516-.892,1.521,2.587-1.526,.896c.063,.3,.094,.576,.094,.851s-.03,.551-.094,.851l1.526,.896-1.521,2.587-1.516-.892c-.408,.34-.882,.606-1.396,.786v.771h-1v-1.528l.375-.098c.619-.16,1.173-.472,1.604-.903l.273-.273,1.305,.768,.507-.862-1.32-.775,.106-.372c.103-.361,.15-.665,.15-.955s-.048-.594-.15-.955l-.106-.372,1.32-.775-.507-.862-1.305,.768-.273-.273c-.431-.432-.984-.743-1.604-.903l-.375-.098V1h-1v1.528l-.375,.098c-.619,.16-1.173,.472-1.604,.903l-.273,.273-1.305-.768-.507,.862,1.32,.775-.106,.372c-.103,.361-.15,.665-.15,.955s.048,.594,.15,.955l.106,.372-1.32,.775,.507,.862,1.305-.768,.273,.273c.431,.432,.984,.743,1.604,.903l.375,.098v1.528h-1v-.771c-.515-.18-.988-.446-1.396-.786l-1.516,.892-1.521-2.587Z"/>
</svg>
