<?xml version="1.0" encoding="UTF-8"?>
<svg xmlns="http://www.w3.org/2000/svg" id="Layer_1" data-name="Layer 1" viewBox="0 0 24 24">
  <path d="m24,14.5c0-1.379-1.121-2.5-2.5-2.5h-3.5v-7.5c0-1.379-1.121-2.5-2.5-2.5H2.5c-1.378,0-2.5,1.121-2.5,2.5v14.5h2.18c-.116.32-.18.656-.18,1,0,1.654,1.346,3,3,3s3-1.346,3-3c0-.344-.064-.68-.18-1h8.359c-.116.32-.18.655-.18,1,0,1.654,1.346,3,3,3s3-1.346,3-3c0-.345-.064-.68-.18-1h2.18v-4.5ZM1,12v-5h3v5H1Zm4-5h3v5h-3v-5Zm4,0h4v11h-4V7Zm5,0h3v5h-3v-5ZM2.5,3h13c.827,0,1.5.673,1.5,1.5v1.5H1v-1.5c0-.827.673-1.5,1.5-1.5Zm-1.5,10h7v5H1v-5Zm6,7c0,1.103-.897,2-2,2s-2-.897-2-2c0-.354.119-.691.304-1h3.392c.185.309.304.646.304,1Zm14,0c0,1.103-.897,2-2,2s-2-.897-2-2c0-.355.119-.691.304-1h3.392c.185.309.304.645.304,1Zm2-2h-9v-5h7.5c.827,0,1.5.673,1.5,1.5v3.5Z"/>
</svg>
