<?xml version="1.0" encoding="UTF-8"?>
<svg xmlns="http://www.w3.org/2000/svg" id="Layer_1" data-name="Layer 1" viewBox="0 0 24 24">
  <path d="m19.487,5c1.379,0,2.5-1.121,2.5-2.5s-1.121-2.5-2.5-2.5-2.5,1.121-2.5,2.5,1.121,2.5,2.5,2.5Zm0-4c.827,0,1.5.673,1.5,1.5s-.673,1.5-1.5,1.5-1.5-.673-1.5-1.5.673-1.5,1.5-1.5Zm4.513,16h-2v7h-1v-7h-3v7h-1v-15h1v7h5v-7.5c0-.399-.156-.774-.439-1.056-.282-.281-.665-.424-1.058-.433l-4.816-.013L10.157.864l.686-.729,6.24,5.865,4.418.011h.016c.657,0,1.279.257,1.749.724.474.47.734,1.097.734,1.765v8.5Zm-19.528-2.598l2.512,2.512-.707.707-2.276-2.276v8.655h-1v-8.655l-2.257,2.257-.707-.707,2.492-2.492c.535-.535,1.408-.535,1.943,0Zm7-5l2.512,2.512-.707.707-2.276-2.276v13.655h-1v-13.655l-2.302,2.302-.707-.707,2.537-2.537c.518-.52,1.426-.52,1.943,0Z"/>
</svg>
