<?xml version="1.0" encoding="UTF-8"?>
<svg xmlns="http://www.w3.org/2000/svg" id="Layer_1" data-name="Layer 1" viewBox="0 0 24 24">
  <path d="m15.677,17v-1h2.918v1h-2.918Zm4.786.036c.832.128,1.576.607,2.042,1.314l.835-.551c-.622-.942-1.615-1.581-2.725-1.752l-.152.988Zm-6.845-5.619c.41-.272.888-.417,1.382-.417h.124l-.92-.9c-.403.094-.79.251-1.14.483-.488.325-.891.77-1.163,1.287l.885.466c.195-.37.482-.688.832-.92Zm3.382-6.417c0-1.103.897-2,2-2s2,.897,2,2-.897,2-2,2-2-.897-2-2Zm1,0c0,.551.449,1,1,1s1-.449,1-1-.449-1-1-1-1,.449-1,1Zm-2.532,3.54c-1.954-1.954-1.954-5.125-.004-7.075.945-.944,2.2-1.464,3.536-1.464s2.591.52,3.535,1.464c.945.944,1.465,2.2,1.465,3.536s-.52,2.591-1.465,3.536l-3.535,3.458-3.532-3.454Zm.703-.711l2.829,2.766,2.832-2.77c.752-.751,1.168-1.756,1.168-2.825s-.416-2.073-1.172-2.829c-.755-.755-1.76-1.171-2.828-1.171s-2.073.416-2.829,1.171c-1.56,1.56-1.56,4.098,0,5.657Zm6.829,12.172c0,.825-.328,1.594-.924,2.166l.691.722c.796-.762,1.233-1.788,1.233-2.888l-.002-.109-.998.11Zm-10.054,4h2.919v-1h-2.919v1Zm7.054-1h-2.189v1h2.189c.279,0,.557-.029.827-.086l-.207-.979c-.202.043-.411.064-.62.064Zm-6.026-7.22c-.756-.34-1.293-1.03-1.437-1.844l-.984.174c.201,1.14.952,2.105,2.011,2.582l.41-.912Zm-6.121,8.22h3.147v-1h-2.124l-1.022,1Zm-.853-7c0,1.103-.897,2-2,2s-2-.897-2-2,.897-2,2-2,2,.897,2,2Zm-1,0c0-.551-.449-1-1-1s-1,.449-1,1,.449,1,1,1,1-.449,1-1Zm2.535,3.536l-3.535,3.458-3.532-3.454c-1.954-1.954-1.954-5.125-.004-7.075.945-.944,2.2-1.464,3.536-1.464s2.591.52,3.535,1.464c.945.944,1.465,2.2,1.465,3.536s-.52,2.591-1.465,3.536Zm-.703-.711c.752-.751,1.168-1.756,1.168-2.825s-.416-2.073-1.172-2.829c-.755-.755-1.76-1.171-2.828-1.171s-2.073.416-2.829,1.171c-1.56,1.56-1.56,4.098,0,5.657l2.829,2.766,2.832-2.77Z"/>
</svg>
