<?xml version="1.0" encoding="UTF-8"?>
<svg xmlns="http://www.w3.org/2000/svg" id="Layer_1" data-name="Layer 1" viewBox="0 0 24 24">
  <path d="M12,23c.338,0,.67-.021,1-.051v1c-.331,.028-.662,.051-1,.051-.076,0-.145-.019-.209-.049C5.292,23.837,.038,18.525,.038,12H1.038c0,6.044,4.918,10.961,10.962,10.961v.039Zm3.633-7.955c-.225-.093-.477-.042-.655,.137l-2.839,2.972,.723,.69,2.139-2.239v7.394h1V15.595c0-.241-.144-.457-.367-.549ZM1.5,9H6v-1H1.756C3.395,3.807,7.485,1,12,1c6.065,0,11,4.935,11,11,0,.468-.038,.927-.094,1.382,.335,.139,.65,.315,.944,.52,.098-.621,.15-1.256,.15-1.902C24,5.383,18.617,0,12,0,7.227,0,2.892,2.876,1,7.216V3H0V7.5c0,.827,.673,1.5,1.5,1.5Zm22.5,9v3c0,1.654-1.346,3-3,3s-3-1.346-3-3v-3c0-1.654,1.346-3,3-3s3,1.346,3,3Zm-1,0c0-1.103-.897-2-2-2s-2,.897-2,2v3c0,1.103,.897,2,2,2s2-.897,2-2v-3ZM5.5,12v1h6.5V5.5h-1v6.5H5.5Z"/>
</svg>
