<?xml version="1.0" encoding="UTF-8"?>
<svg xmlns="http://www.w3.org/2000/svg" id="Layer_1" data-name="Layer 1" viewBox="0 0 24 24">
  <path d="M13.5,5c1.379,0,2.5-1.122,2.5-2.5s-1.121-2.5-2.5-2.5-2.5,1.122-2.5,2.5,1.121,2.5,2.5,2.5Zm0-4c.827,0,1.5,.673,1.5,1.5s-.673,1.5-1.5,1.5-1.5-.673-1.5-1.5,.673-1.5,1.5-1.5Zm1.5,15v-7.5c0-1.378-1.121-2.5-2.5-2.5h-1c-.752,0-1.498,.249-2.136,.729l-3.364,3.049v.673l1.531,4.222,.938-.348-1.469-3.964v-.14l3-2.722v7c0,1.379,1.121,2.5,2.5,2.5h7.5v7h1v-8h-6Zm-4-1.5V7.056c.164-.033,.33-.056,.5-.056h1c.827,0,1.5,.673,1.5,1.5v7.5h-1.5c-.827,0-1.5-.673-1.5-1.5Zm-.832,3.83c.285,.174,.59,.311,.912,.419l-1.875,5.251H2v-1h6.5l1.668-4.67Z"/>
</svg>
