<?xml version="1.0" encoding="UTF-8"?>
<svg xmlns="http://www.w3.org/2000/svg" id="Layer_1" data-name="Layer 1" viewBox="0 0 24 24">
  <path d="M23.998,12c0,6.617-5.383,12-12,12-1.168,0-2.322-.167-3.429-.497l.286-.959c1.014,.303,2.071,.456,3.143,.456,6.065,0,11-4.935,11-11S18.063,1,11.998,1c-1.072,0-2.129,.153-3.143,.456l-.286-.959c1.106-.33,2.26-.497,3.429-.497,6.617,0,12,5.383,12,12ZM11.5,7.205v10.795h1V7.206s.01,.005,.015,.01l3.726,3.642,.699-.715-3.722-3.638c-.65-.65-1.789-.646-2.432-.004l-3.726,3.642,.699,.715,3.73-3.646s.008-.004,.011-.007ZM2.89,4.188l.759,.65c.683-.797,1.477-1.491,2.359-2.065l-.546-.838c-.961,.626-1.827,1.384-2.572,2.253ZM.117,10.302l.99,.141c.146-1.034,.44-2.04,.872-2.991l-.91-.414c-.472,1.038-.792,2.137-.952,3.265ZM.117,13.698c.16,1.128,.48,2.226,.952,3.265l.91-.414c-.433-.951-.726-1.958-.872-2.991l-.99,.141Zm3.541,5.475l-.758,.652c.747,.866,1.609,1.62,2.562,2.24l.545-.838c-.875-.569-1.665-1.26-2.35-2.055Z"/>
</svg>
