<?xml version="1.0" encoding="UTF-8"?>
<svg xmlns="http://www.w3.org/2000/svg" id="Layer_1" data-name="Layer 1" viewBox="0 0 24 24">
  <path d="m16.3,11l-1.8-7h1.051l1.199,4.735,1.157-4.735h1.093l-1.8,7h-.9ZM7.864,3.931c-.302,0-.583.214-.743.566l-1.028,2.262-1.028-2.262c-.16-.352-.441-.566-.743-.566-.456,0-.835.261-.873.884l-.449,6.185h.986l.418-5.539,1.688,3.714,1.689-3.707.38,5.532h1.024l-.448-6.185c-.038-.623-.417-.884-.873-.884Zm16.136-1.431v15.707l-5.793,5.793H0V2.5C0,1.121,1.122,0,2.5,0h19c1.378,0,2.5,1.121,2.5,2.5ZM1,23h16v-6h6V2.5c0-.827-.673-1.5-1.5-1.5H2.5c-.827,0-1.5.673-1.5,1.5v20.5Zm21.793-5h-4.793v4.793l4.793-4.793ZM14,5.947v3.053c0,1.089-.897,1.975-2,1.975s-2-.886-2-1.975v-3.053c0-1.088.897-1.973,2-1.973s2,.885,2,1.973Zm-1,0c0-.527-.458-.973-1-.973s-1,.445-1,.973v3.053c0,.528.458.975,1,.975s1-.446,1-.975v-3.053Z"/>
</svg>
