<?xml version="1.0" encoding="UTF-8"?>
<svg xmlns="http://www.w3.org/2000/svg" id="Layer_1" data-name="Layer 1" viewBox="0 0 24 24">
  <path d="M12.5,2.025V0h-1V2.025C5.667,2.289,1,7.103,1,13c0,6.065,4.935,11,11,11s11-4.935,11-11c0-5.897-4.667-10.711-10.5-10.975Zm0,20.949v-1.975h-1v1.975c-5.114-.255-9.22-4.361-9.475-9.475h1.975v-1h-1.975C2.28,7.385,6.386,3.28,11.5,3.025v1.975h1v-1.975c5.114,.255,9.22,4.36,9.475,9.475h-1.975v1h1.975c-.255,5.114-4.361,9.22-9.475,9.475ZM6.048,7.048l3.571,8.333,8.333,3.571-3.571-8.333L6.048,7.048Zm4.333,7.571l-2.429-5.667,5.667,2.429,2.429,5.667-5.667-2.429Zm2.619-1.619c0,.552-.448,1-1,1s-1-.448-1-1,.448-1,1-1,1,.448,1,1Z"/>
</svg>
