<?xml version="1.0" encoding="UTF-8"?>
<svg xmlns="http://www.w3.org/2000/svg" id="Layer_1" data-name="Layer 1" viewBox="0 0 24 24">
  <path d="M0,0V1H4V3.866l9.97,3.172c-.586,.458-.97,1.163-.97,1.962v2h1v-2c0-.827,.673-1.5,1.5-1.5s1.5,.673,1.5,1.5v2h1v-2c0-1.339-1.061-2.427-2.386-2.488l-7.614-2.423V1H24V0H0ZM7,3.771l-2-.636V1h2V3.771Zm13,12.229v-3h-4v3h-2v-3h-4v3h-2v-3H4v3c-2.206,0-4,1.794-4,4s1.794,4,4,4H20c2.206,0,4-1.794,4-4s-1.794-4-4-4Zm-3-2h2v2h-2v-2Zm-6,0h2v2h-2v-2Zm-6,0h2v2h-2v-2Zm15,9H4c-1.654,0-3-1.346-3-3s1.346-3,3-3H20c1.654,0,3,1.346,3,3s-1.346,3-3,3Zm-15-3c0,.552-.448,1-1,1s-1-.448-1-1,.448-1,1-1,1,.448,1,1Zm16,0c0,.552-.448,1-1,1s-1-.448-1-1,.448-1,1-1,1,.448,1,1Zm-11,0c0,.552-.448,1-1,1s-1-.448-1-1,.448-1,1-1,1,.448,1,1Zm6,0c0,.552-.448,1-1,1s-1-.448-1-1,.448-1,1-1,1,.448,1,1Z"/>
</svg>
