<?xml version="1.0" encoding="UTF-8"?>
<svg xmlns="http://www.w3.org/2000/svg" id="Layer_1" data-name="Layer 1" viewBox="0 0 24 24">
  <path d="m21.5,6h-7.43l-1.346-1.303,4.394-2.197L12.118,0h-1.118v4.965l-1.07,1.035H2.5c-1.379,0-2.5,1.122-2.5,2.5v15.5h24v-15.5c0-1.378-1.121-2.5-2.5-2.5Zm0,1c.827,0,1.5.673,1.5,1.5v1.5h-4.798l-3.099-3h6.397ZM12,1.059l2.882,1.441-2.882,1.441V1.059ZM2.5,7h6.397l-3.099,3H1v-1.5c0-.827.673-1.5,1.5-1.5Zm11.5,16h-4v-6c0-1.103.897-2,2-2s2,.897,2,2v6Zm1,0v-6c0-1.654-1.346-3-3-3s-3,1.346-3,3v6H1v-12h5.202l5.798-5.612,5.798,5.612h5.202v12h-8ZM4,15h3v1h-3v-1Zm0,4h3v1h-3v-1Zm13-4h3v1h-3v-1Zm0,4h3v1h-3v-1Zm-4-9c0,.552-.448,1-1,1s-1-.448-1-1,.448-1,1-1,1,.448,1,1Z"/>
</svg>
