<?xml version="1.0" encoding="UTF-8"?>
<svg xmlns="http://www.w3.org/2000/svg" id="Layer_1" data-name="Layer 1" viewBox="0 0 24 24">
  <path d="m19,7.562l5,1.875v1.074l-5-1.875v-1.074Zm0-1.562h5v-1h-5v1ZM5,2.363L0,.488v1.074l5,1.875v-1.074Zm0,5.199l-5,1.875v1.074l5-1.875v-1.074Zm0-2.562H0v1h5v-1Zm11.118,3l2.882,13.5v2.5h-6v-3c0-.552-.448-1-1-1s-1,.448-1,1v3h-6l.011-2.604,2.871-13.396h-.882v-1h1v-3h-1v-1.463L12,.037l5,2.5v1.463h-1v3h1v1h-.882Zm-1.118-4h-2.5v3h2.5v-3Zm-6.69-1h7.381l-3.69-1.846-3.69,1.846Zm.681,4h2.509v-3h-2.501l-.008,3Zm1.287,13h-3.946l-.333,1.553v1.447h4v-2c0-.366.106-.705.278-1Zm4.828-12h-6.202l-.429,2h5.003l.214,1h-5.431l-.429,2h6.289l.214,1h-6.717l-.429,2h7.574l.214,1H6.976l-.429,2h8.86l.214,1h-1.9c.172.295.278.634.278,1v2h4v-1.447l-2.893-13.553Zm3.893-5.637v1.074l5-1.875V.488l-5,1.875Z"/>
</svg>
