<?xml version="1.0" encoding="UTF-8"?>
<svg xmlns="http://www.w3.org/2000/svg" id="Layer_1" data-name="Layer 1" viewBox="0 0 24 24">
  <path d="m18.604,20.104l.707.707-2.75,2.75c-.292.292-.677.438-1.061.438s-.769-.146-1.061-.438l-2.75-2.75.707-.707,2.604,2.604v-11.707h1v11.707l2.604-2.604Zm-6-5.207l.707-.707-2.75-2.75c-.584-.585-1.537-.585-2.121,0l-2.75,2.75.707.707,2.604-2.604v11.707h1v-11.707l2.604,2.604Zm5.699-9.775c-1.35-3.121-4.382-5.122-7.803-5.122C5.813,0,2,3.813,2,8.5c0,.593.061,1.182.182,1.754-1.354.871-2.182,2.369-2.182,3.996,0,2.619,2.131,4.75,4.75,4.75h2.25v-1h-2.25c-2.067,0-3.75-1.683-3.75-3.75,0-1.387.762-2.656,1.987-3.311l.348-.185-.099-.381c-.157-.606-.236-1.236-.236-1.874,0-4.136,3.364-7.5,7.5-7.5,3.104,0,5.844,1.865,6.981,4.752l.105.27.287.042c2.922.426,5.126,2.978,5.126,5.937s-2.167,5.431-5,5.91v1.01c3.386-.488,6-3.401,6-6.92,0-3.355-2.43-6.262-5.697-6.878Z"/>
</svg>
