<?xml version="1.0" encoding="UTF-8"?>
<svg xmlns="http://www.w3.org/2000/svg" id="Layer_1" data-name="Layer 1" viewBox="0 0 24 24">
  <path d="M4.5,5c1.378,0,2.5-1.121,2.5-2.5S5.878,0,4.5,0,2,1.121,2,2.5s1.122,2.5,2.5,2.5Zm0-4c.827,0,1.5,.673,1.5,1.5s-.673,1.5-1.5,1.5-1.5-.673-1.5-1.5,.673-1.5,1.5-1.5Zm2,5H2.5c-1.378,0-2.5,1.121-2.5,2.5v8.5H2v7h1v-7h3v7h1v-7h2V8.5c0-1.379-1.122-2.5-2.5-2.5Zm1.5,10H1v-7.5c0-.827,.673-1.5,1.5-1.5H6.5c.827,0,1.5,.673,1.5,1.5v7.5ZM18.5,5c1.378,0,2.5-1.121,2.5-2.5s-1.122-2.5-2.5-2.5-2.5,1.121-2.5,2.5,1.122,2.5,2.5,2.5Zm0-4c.827,0,1.5,.673,1.5,1.5s-.673,1.5-1.5,1.5-1.5-.673-1.5-1.5,.673-1.5,1.5-1.5Zm2.5,19v4h-1v-4h-3v4h-1v-4h-1v-1h7.766l-1.92-10.764c-.127-.717-.749-1.236-1.477-1.236h-1.737c-.728,0-1.349,.52-1.477,1.236l-.225,1.259-.852-.919,.092-.516c.212-1.194,1.248-2.061,2.461-2.061h1.737c1.213,0,2.249,.866,2.461,2.061l2.13,11.939h-2.96Zm-9.31-1.346l2.505,2.704-2.542,2.642h-1.383l2.553-2.652-2.495-2.693,2.5-2.698-2.5-2.698,2.5-2.698-2.5-2.697,2.5-2.699-2.504-2.701L12.609,0h1.378l-2.293,2.47,2.496,2.693-2.5,2.699,2.5,2.697-2.5,2.698,2.5,2.698-2.5,2.698Z"/>
</svg>
