<?xml version="1.0" encoding="UTF-8"?>
<svg xmlns="http://www.w3.org/2000/svg" id="Layer_1" data-name="Layer 1" viewBox="0 0 24 24">
  <path d="m24,3v4.5c0,.827-.673,1.5-1.5,1.5h-4.5v-1h4.244c-1.639-4.193-5.729-7-10.244-7C5.935,1,1,5.935,1,12s4.935,11,11,11c.684,0,1.35-.071,2-.191v1.01c-.652.11-1.317.181-2,.181C5.383,24,0,18.617,0,12S5.383,0,12,0c4.773,0,9.109,2.876,11,7.216V3h1Zm-12,9h-5.5v1h6.5v-7.5h-1v6.5Zm12,6.5v3c0,1.378-1.122,2.5-2.5,2.5s-2.5-1.122-2.5-2.5v-3c0-1.378,1.122-2.5,2.5-2.5s2.5,1.122,2.5,2.5Zm-1,0c0-.827-.673-1.5-1.5-1.5s-1.5.673-1.5,1.5v3c0,.827.673,1.5,1.5,1.5s1.5-.673,1.5-1.5v-3Zm-6.799-2.5l-2.561,2.653.72.694,1.64-1.699v6.352h1v-8h-.799Z"/>
</svg>
