<?xml version="1.0" encoding="UTF-8"?>
<svg xmlns="http://www.w3.org/2000/svg" id="Layer_1" data-name="Layer 1" viewBox="0 0 24 24">
  <path d="m24.005,19.859l-3.307,3.607c-.302.338-.74.533-1.198.533s-.896-.195-1.202-.537l-3.321-3.624.736-.676,3.287,3.586V7.257c0-1.792-1.458-3.25-3.25-3.25s-3.25,1.458-3.25,3.25v9.492c0,2.344-1.906,4.25-4.25,4.25s-4.25-1.906-4.25-4.25V1.251L.734,4.812-.002,4.137,3.302.533c.604-.676,1.789-.68,2.4.004l3.298,3.599-.736.676-3.264-3.561v15.498c0,1.792,1.458,3.25,3.25,3.25s3.25-1.458,3.25-3.25V7.257c0-2.344,1.906-4.25,4.25-4.25s4.25,1.906,4.25,4.25v15.492l3.269-3.565.736.676Z"/>
</svg>
