<?xml version="1.0" encoding="UTF-8"?>
<svg xmlns="http://www.w3.org/2000/svg" id="Layer_1" data-name="Layer 1" viewBox="0 0 24 24">
  <path d="m15,11h-6v-1h6v1Zm9,3v5.5c0,2.481-2.019,4.5-4.5,4.5H4.5c-2.481,0-4.5-2.019-4.5-4.5v-5.5h4v-2c0-2.953,1.613-5.532,4-6.918v-1.082c0-2.206,1.794-4,4-4s4,1.794,4,4v1.082c2.387,1.386,4,3.964,4,6.918v2h4ZM9,4.589c.927-.377,1.939-.589,3-.589s2.073.212,3,.589v-.589c0-1.654-1.346-3-3-3s-3,1.346-3,3v.589Zm-4,7.411v6.136c1.365-2.463,3.99-4.136,7-4.136s5.635,1.673,7,4.136v-6.136c0-3.859-3.141-7-7-7s-7,3.141-7,7Zm14,10c0-3.859-3.141-7-7-7s-7,3.141-7,7v1h14v-1Zm-15,.949v-7.949H1v4.5c0,1.758,1.308,3.204,3,3.449Zm19-7.949h-3v7.949c1.692-.245,3-1.691,3-3.449v-4.5Z"/>
</svg>
