<?xml version="1.0" encoding="UTF-8"?>
<svg xmlns="http://www.w3.org/2000/svg" id="Layer_1" data-name="Layer 1" viewBox="0 0 24 24">
  <path d="M22,16V3H2v13H0v2.5c0,1.378,1.122,2.5,2.5,2.5H21.5c1.378,0,2.5-1.122,2.5-2.5v-2.5h-2ZM3,4H21v12h-5.707l-1,1h-4.586l-1-1H3V4Zm20,14.5c0,.827-.673,1.5-1.5,1.5H2.5c-.827,0-1.5-.673-1.5-1.5v-1.5h7.293l1,1h5.414l1-1h7.293v1.5Zm-13-7v-3c0-1.378-1.122-2.5-2.5-2.5s-2.5,1.122-2.5,2.5v3c0,1.378,1.122,2.5,2.5,2.5s2.5-1.122,2.5-2.5Zm-1,0c0,.827-.673,1.5-1.5,1.5s-1.5-.673-1.5-1.5v-3c0-.827,.673-1.5,1.5-1.5s1.5,.673,1.5,1.5v3Zm7.5,2.5c1.378,0,2.5-1.122,2.5-2.5v-3c0-1.378-1.122-2.5-2.5-2.5s-2.5,1.122-2.5,2.5v3c0,1.378,1.122,2.5,2.5,2.5Zm-1.5-5.5c0-.827,.673-1.5,1.5-1.5s1.5,.673,1.5,1.5v3c0,.827-.673,1.5-1.5,1.5s-1.5-.673-1.5-1.5v-3Zm-3.629-.041l-.741-.671,1.62-1.788h.722l.029,8h-1V7.764l-.629,.695Z"/>
</svg>
