<?xml version="1.0" encoding="UTF-8"?>
<svg xmlns="http://www.w3.org/2000/svg" id="Layer_1" data-name="Layer 1" viewBox="0 0 24 24">
  <path d="m12,4c-4.007,0-7.773,1.561-10.606,4.394l-.707-.707C3.708,4.665,7.726,3,12,3c3.427,0,6.68,1.086,9.396,3.069l-.714.714c-2.521-1.799-5.523-2.783-8.682-2.783Zm3.604,7.861l.741-.741c-1.316-.728-2.799-1.12-4.345-1.12-2.404,0-4.664.936-6.364,2.636l.707.707c1.511-1.511,3.52-2.343,5.657-2.343,1.274,0,2.5.302,3.604.861Zm-1.887,6.13c.176.297.283.64.283,1.01,0,1.103-.897,2-2,2s-2-.897-2-2,.897-2,2-2c.37,0,.712.108,1.01.283l9.894-9.893.707.707-9.894,9.893Zm-.717,1.01c0-.551-.449-1-1-1s-1,.449-1,1,.449,1,1,1,1-.449,1-1Z"/>
</svg>
