<?xml version="1.0" encoding="UTF-8"?>
<svg xmlns="http://www.w3.org/2000/svg" id="Layer_1" data-name="Layer 1" viewBox="0 0 24 24">
  <path d="M23,0H1V1h1.164l2.037,20.744c.126,1.286,1.196,2.256,2.488,2.256h10.676c1.292,0,2.362-.97,2.488-2.256L21.889,1h1.111V0ZM4.888,7.183l2.842,2.842-2.863,2.863-.588-.588-.403-4.104,1.012-1.012Zm-1.139-.275l-.094-.957,.526,.526-.432,.432Zm4.688,2.41l-2.842-2.842,2.842-2.842,2.842,2.842-2.842,2.842Zm3.549-2.135l2.875,2.875-2.842,2.842-2.875-2.875,2.842-2.842Zm-7.475,7.475l.357-.357,2.875,2.875-2.718,2.718-.514-5.236Zm1.064-1.064l2.863-2.863,2.875,2.875-2.863,2.863-2.875-2.875Zm6.445,.719l2.863,2.863-2.863,2.863-2.863-2.863,2.863-2.863Zm.707-.707l2.842-2.842,2.863,2.863-2.842,2.842-2.863-2.863Zm6.412,.728l.399,.399-.508,5.176-2.733-2.733,2.842-2.842Zm1.036-6.092l-.396,4.038-.64,.64-2.863-2.863,2.857-2.857,1.042,1.042Zm-.335-1.749l.562-.562-.1,1.023-.461-.461Zm-4.271,2.857l-2.875-2.875,2.857-2.857,2.875,2.875-2.857,2.857Zm-3.582-3.582l-2.842-2.842,1.927-1.927h1.861l1.912,1.912-2.857,2.857Zm-3.549-3.549l-1.22-1.22h2.44l-1.22,1.22Zm5.909-1.22h2.409l-1.205,1.205-1.205-1.205ZM5.803,1l1.927,1.927-2.842,2.842-1.387-1.387-.332-3.382h2.634Zm-.606,20.646l-.046-.465,3.298-3.298,2.863,2.863-2.254,2.254h-2.369c-.775,0-1.417-.582-1.493-1.354Zm6.823-.193l1.547,1.547h-3.093l1.547-1.547Zm5.346,1.547h-2.385l-2.254-2.254,2.863-2.863,3.314,3.314-.044,.449c-.076,.771-.718,1.354-1.493,1.354Zm3.19-18.636l-1.423,1.423-2.875-2.875,1.912-1.912h2.716l-.33,3.364Z"/>
</svg>
