<?xml version="1.0" encoding="UTF-8"?>
<svg xmlns="http://www.w3.org/2000/svg" id="Layer_1" data-name="Layer 1" viewBox="0 0 24 24">
  <path d="M11.732,22.962c.258,.325,.541,.627,.846,.908-.516,.076-1.04,.13-1.578,.13C4.935,24,0,19.065,0,13S4.935,2,11,2c.134,0,.266,.009,.397,.018l.643,.035-.04,10.698c-.076,.087-.167,.159-.24,.249h-.76l.036-10c-.012,0-.024,0-.036,0C5.486,3,1,7.486,1,13s4.486,10,10,10c.247,0,.49-.02,.732-.038Zm12.268-4.962c0,3.309-2.691,6-6,6s-6-2.691-6-6,2.691-6,6-6,6,2.691,6,6Zm-1,0c0-2.757-2.243-5-5-5s-5,2.243-5,5,2.243,5,5,5,5-2.243,5-5Zm-1.646-2.646l-.913,.913c.349,.49,.56,1.086,.56,1.733s-.21,1.243-.56,1.733l.913,.913-.707,.707-.913-.913c-.49,.349-1.086,.56-1.733,.56s-1.243-.21-1.733-.56l-.913,.913-.707-.707,.913-.913c-.349-.49-.56-1.086-.56-1.733s.21-1.243,.56-1.733l-.913-.913,.707-.707,.913,.913c.49-.349,1.086-.56,1.733-.56s1.243,.21,1.733,.56l.913-.913,.707,.707Zm-3.354,4.646c1.103,0,2-.897,2-2s-.897-2-2-2-2,.897-2,2,.897,2,2,2Zm6-10.5v.5H14V0h.5c5.238,0,9.5,4.262,9.5,9.5Zm-1.015-.5c-.25-4.29-3.696-7.735-7.985-7.985v7.985h7.985Z"/>
</svg>
