<?xml version="1.0" encoding="UTF-8"?>
<svg xmlns="http://www.w3.org/2000/svg" id="Layer_1" data-name="Layer 1" viewBox="0 0 24 24">
  <path d="M21.5,2H12.118L8.118,0H2.5C1.122,0,0,1.121,0,2.5V22H11.106c-.189-.321-.359-.653-.503-1H1V7H23v4.961c.346,.338,.683,.695,1,1.074V4.5c0-1.379-1.122-2.5-2.5-2.5ZM1,6V2.5c0-.827,.673-1.5,1.5-1.5H7.882l4,2h9.618c.827,0,1.5,.673,1.5,1.5v1.5H1Zm18.767,5.768c-.53-.444-1.03-.863-1.413-1.246l-.38-.38-.352,.406c-.851,.983-1.134,2.091-1.361,2.98-.274,1.076-.397,1.347-.8,1.347-.247,0-.46-.825-.461-1.501l-.003-1.23-.856,.884c-.977,1.008-2.141,2.688-2.141,4.973,0,3.308,2.691,5.999,5.999,6,0,0,0,0,0,0h0c3.309,0,6-2.691,6-6,0-2.688-2.347-4.653-4.233-6.232Zm-.706,10.793c-.566,.565-1.555,.567-2.122,0-.585-.585-.585-1.537,0-2.122l1.061-1.062,1.061,1.062c.283,.283,.439,.66,.439,1.062s-.156,.777-.439,1.061Zm1.268-.163c.109-.283,.171-.585,.171-.898,0-.668-.26-1.296-.732-1.769l-1.768-1.769-1.768,1.769c-.472,.473-.732,1.101-.732,1.768,0,.313,.062,.615,.171,.898-1.58-.841-2.671-2.486-2.671-4.397,0-1.415,.533-2.567,1.149-3.429,.197,.725,.605,1.304,1.312,1.304,1.233,0,1.505-1.067,1.769-2.1,.176-.688,.371-1.453,.832-2.154,.324,.294,.687,.598,1.063,.913,1.727,1.445,3.875,3.245,3.875,5.466,0,1.912-1.091,3.557-2.671,4.398Z"/>
</svg>
