<?xml version="1.0" encoding="UTF-8"?>
<svg xmlns="http://www.w3.org/2000/svg" id="Layer_1" data-name="Layer 1" viewBox="0 0 24 24">
  <path d="M23.939,8.473l-.026-.48-.48,.008c-7.777,.126-10.51,5.888-11.462,9.534-.952-3.646-3.686-9.409-11.463-9.534l-.48-.008-.026,.48c-.224,4.06,.782,7.221,2.991,9.394,2.905,2.858,6.989,3.136,8.464,3.136,.016,0,.028,0,.044,0v3.01h1v-3.01c1.486-.002,5.552-.286,8.448-3.135,2.209-2.174,3.215-5.334,2.991-9.395ZM3.694,17.153C1.786,15.276,.873,12.541,.979,9.016c8.799,.438,10.229,8.789,10.453,10.983-1.352-.01-5.131-.28-7.737-2.846Zm8.815,2.845c.224-2.195,1.654-10.543,10.452-10.982,.105,3.521-.806,6.255-2.71,8.132-2.601,2.562-6.389,2.838-7.742,2.85ZM8.146,4.646l-.707-.707L10.939,.439c.584-.585,1.537-.585,2.121,0l3.5,3.5-.707,.707-3.354-3.354V10h-1V1.293l-3.354,3.354Z"/>
</svg>
