<?xml version="1.0" encoding="UTF-8"?>
<svg xmlns="http://www.w3.org/2000/svg" id="Layer_1" data-name="Layer 1" viewBox="0 0 24 24">
  <path d="m24,12c0,6.617-5.383,12-12,12S0,18.617,0,12c0-.352.015-.699.045-1.042l.996.086c-.027.315-.041.634-.041.957,0,6.065,4.935,11,11,11s11-4.935,11-11S18.065,1,12,1c-.322,0-.641.014-.957.041l-.086-.996c.344-.03.691-.045,1.042-.045,6.617,0,12,5.383,12,12ZM9.357,1.319l-.239-.971c-.602.148-1.196.345-1.766.585l.388.922c.522-.22,1.066-.4,1.618-.536ZM1.854,7.741l-.922-.388c-.24.571-.437,1.166-.584,1.767l.971.239c.136-.551.316-1.095.536-1.618ZM6.224,2.637l-.525-.851c-.525.325-1.031.694-1.501,1.097l.65.76c.432-.37.895-.708,1.376-1.006Zm-2.582,2.211l-.76-.65c-.404.472-.773.977-1.097,1.502l.851.525c.297-.481.636-.944,1.006-1.377Zm8.858.152v5.071c.86.224,1.5,1,1.5,1.929,0,1.103-.897,2-2,2-.929,0-1.705-.64-1.929-1.5h-4.071v-1h4.071c.182-.699.73-1.247,1.429-1.429v-5.071h1Zm-.5,6c-.551,0-1,.449-1,1s.449,1,1,1,1-.449,1-1-.449-1-1-1Z"/>
</svg>
