<?xml version="1.0" encoding="UTF-8"?>
<svg xmlns="http://www.w3.org/2000/svg" id="Layer_1" data-name="Layer 1" viewBox="0 0 24 24">
  <path d="m11.599,10.858l.38.19.394-.159c.968-.39,4.127-1.92,4.127-5.259v-2.63c0-.864-.551-1.626-1.371-1.898L12,.064l-3.129,1.038c-.82.272-1.371,1.035-1.371,1.898v2.63c0,2.95,3.137,4.747,4.099,5.228Zm-3.099-7.858c0-.432.275-.813.685-.949l2.815-.933,2.814.933c.41.136.686.518.686.949v2.63c0,2.687-2.629,3.977-3.477,4.322-.857-.432-3.523-1.967-3.523-4.322v-2.63Zm1.257,13.035c-.195.195-.195.513,0,.708.195.193.513.193.707,0l2.265-2.3,5.074,4.557h6.197v1h-5.703l-5.125,4h-2.344l-5.125-4H0v-1h6.047l5.125,4h1.656l4.244-3.312-4.301-3.861-1.597,1.621c-.588.586-1.54.587-2.124.003-.585-.585-.585-1.537,0-2.122l2.097-2.073-.809-.737c-.367-.334-.842-.518-1.338-.518-.649,0-2.149.634-2.882,1H0v-1h5.884c.47-.228,2.131-1,3.093-1,.769,0,1.483.276,2.035.779l.84.765.765-.741c.545-.514,1.273-.803,2.038-.803.952,0,2.943.793,3.445,1h5.9v1l-6.193-.039c-.886-.372-2.525-.961-3.152-.961-.509,0-.993.192-1.362.54l-3.535,3.495Z"/>
</svg>
