<?xml version="1.0" encoding="UTF-8"?>
<svg xmlns="http://www.w3.org/2000/svg" id="Layer_1" data-name="Layer 1" viewBox="0 0 24 24">
  <path d="M18.922,13.021c-.421-4.702-1.44-9.198-2.006-11.209-.301-1.067-1.289-1.812-2.404-1.812h-3.513V1h3.513c.669,0,1.261,.446,1.441,1.084,.387,1.372,.987,3.927,1.457,6.907-1.562,.004-5.757,.202-9.222,2.06l-1.468-4.052h3.28v-1H3v1h2.656l1.655,4.567c-1.58,1.028-2.922,2.467-3.67,4.469-2.036,.185-3.642,1.881-3.642,3.964,0,2.206,1.794,4,4,4s4-1.794,4-4c0-1.966-1.429-3.597-3.301-3.929,2.438-5.724,10.895-6.074,12.862-6.077,.14,.986,.264,2.005,.358,3.037-2.76,.291-4.919,2.632-4.919,5.469,0,3.033,2.467,5.5,5.5,5.5s5.5-2.467,5.5-5.5c0-2.89-2.242-5.261-5.078-5.479Zm-11.922,6.979c0,1.654-1.346,3-3,3s-3-1.346-3-3,1.346-3,3-3,3,1.346,3,3Zm11.5,3c-2.481,0-4.5-2.019-4.5-4.5s2.019-4.5,4.5-4.5,4.5,2.019,4.5,4.5-2.019,4.5-4.5,4.5Zm1-4.5c0,.552-.448,1-1,1s-1-.448-1-1,.448-1,1-1,1,.448,1,1Z"/>
</svg>
