<?xml version="1.0" encoding="UTF-8"?>
<svg xmlns="http://www.w3.org/2000/svg" id="Layer_1" data-name="Layer 1" viewBox="0 0 24 24">
  <path d="m2.024,16.641c.27.578.592,1.137.959,1.661l-.82.573c-.399-.572-.751-1.181-1.045-1.811l.906-.423Zm-.9-9.718l.906.423c.269-.576.592-1.134.96-1.658l-.818-.574c-.401.572-.754,1.181-1.048,1.81Zm2.382,13.555c.493.494,1.031.947,1.601,1.347l.574-.818c-.521-.366-1.015-.781-1.466-1.234l-.709.706ZM1.374,9.146l-.967-.259c-.179.669-.301,1.362-.362,2.059l.996.088c.057-.64.168-1.275.333-1.888Zm-.334,3.806l-.996.085c.06.698.181,1.391.359,2.061l.967-.259c-.165-.613-.275-1.248-.33-1.887ZM3.518,3.512l.707.707c.452-.452.946-.867,1.469-1.233l-.574-.818c-.569.399-1.108.851-1.602,1.344Zm3.398,19.36c.63.296,1.291.537,1.964.718l.26-.966c-.617-.166-1.223-.387-1.8-.658l-.424.905Zm.013-21.751l.424.906c.577-.27,1.183-.49,1.801-.656l-.258-.966c-.675.18-1.337.421-1.967.715Zm5.071-1.121c-.352,0-.698.015-1.042.045l.086.996c.314-.027.634-.041.956-.041,6.065,0,11,4.935,11,11s-4.935,11-11,11c-.322,0-.642-.014-.956-.041l-.086.996c.344.03.69.045,1.042.045,6.617,0,12-5.383,12-12S18.617,0,12,0Zm-.5,13.929c-.86-.224-1.5-1-1.5-1.929s.64-1.705,1.5-1.929v-5.071h1v5.071c.86.224,1.5,1,1.5,1.929s-.64,1.705-1.5,1.929v4.071h-1v-4.071Zm.5-.929c.552,0,1-.449,1-1s-.448-1-1-1-1,.449-1,1,.448,1,1,1Z"/>
</svg>
