<?xml version="1.0" encoding="UTF-8"?>
<svg xmlns="http://www.w3.org/2000/svg" id="Layer_1" data-name="Layer 1" viewBox="0 0 24 24">
  <path d="m23.273,10.248L13.749.723c-.933-.933-2.569-.933-3.5,0L.723,10.248c-.965.965-.965,2.535,0,3.5l9.525,9.526c.467.468,1.089.726,1.75.726s1.283-.258,1.75-.725l9.525-9.526c.965-.965.965-2.536,0-3.5Zm-.707,2.793l-9.525,9.526c-.279.279-.649.432-1.043.432s-.765-.154-1.043-.433L1.43,13.041c-.575-.575-.575-1.511,0-2.086L10.955,1.43c.277-.277.647-.43,1.043-.43s.766.152,1.043.43l9.525,9.525c.575.575.575,1.511,0,2.086Zm-8.866-7.949c-.308-.674-.959-1.093-1.701-1.093s-1.393.418-1.731,1.181l-2.661,10.819h-.608v1h10v-1h-.609l-2.69-10.907Zm.924,7.907h-5.252l.49-2h4.27l.492,2Zm-2.625-8c.35,0,.646.19.76.42l.389,1.58h-2.305l.366-1.492c.145-.318.44-.508.791-.508Zm-1.401,3h2.796l.492,2h-3.779l.49-2Zm-1.961,8l.49-2h5.743l.492,2h-6.725Z"/>
</svg>
