<?xml version="1.0" encoding="UTF-8"?>
<svg xmlns="http://www.w3.org/2000/svg" id="Layer_1" data-name="Layer 1" viewBox="0 0 24 24">
  <path d="m18.138,4.995c-1.896-1.931-4.431-2.995-7.136-2.995h-1.001V0h-4.5c-1.378,0-2.5,1.122-2.5,2.5v19c0,1.378,1.122,2.5,2.5,2.5h4.5v-2h.687c5.588,0,10.215-4.402,10.313-9.813.05-2.708-.967-5.262-2.862-7.192Zm-7.451,16.005h-1.687v2h-3.5c-.827,0-1.5-.673-1.5-1.5v-1.5h2v-1h-2v-2h2v-1h-2v-2h2v-1h-2v-2h2v-1h-2v-2h2v-1h-2v-2h2v-1h-2v-1.5c0-.827.673-1.5,1.5-1.5h3.5v2h2.001c2.435,0,4.716.957,6.422,2.695,1.706,1.737,2.621,4.036,2.576,6.473-.089,4.87-4.267,8.832-9.313,8.832Zm.544-14h-2.231v4h1c.551,0,1,.449,1,1s-.449,1-1,1h-1v4h2.231c2.756,0,5-2.243,5-5s-2.243-5-5-5Zm0,9h-1.231v-2c1.103,0,2-.897,2-2s-.897-2-2-2v-2h1.231c2.206,0,4,1.794,4,4s-1.794,4-4,4Z"/>
</svg>
