<?xml version="1.0" encoding="UTF-8"?>
<svg xmlns="http://www.w3.org/2000/svg" id="Layer_1" data-name="Layer 1" viewBox="0 0 24 24">
  <path d="M21,7.998c.552,0,1,.448,1,1s-.448,1-1,1-1-.448-1-1,.448-1,1-1Zm3,1.542v1.958c0,.827-.673,1.5-1.5,1.5h-3.5v6h2v1H2.5c-.827,0-1.5,.673-1.5,1.5s.673,1.5,1.5,1.5H13v1H2.5c-1.378,0-2.5-1.121-2.5-2.5s1.122-2.5,2.5-2.5h1.5v-1c0-.082,.113-7.539,7.338-8.801-1.409-.892-2.338-2.453-2.338-4.199,0-1.512,.673-2.926,1.847-3.881C12.021,.163,13.562-.205,15.069,.11c1.41,.293,2.603,1.201,3.291,2.424,3.664,.066,5.64,3.641,5.64,7.006Zm-6,3.441c-2.107-.086-3.953-1.213-4.868-2.961-8.021,.231-8.132,7.657-8.132,7.979v1h13v-6.017Zm5-3.441c0-2.353-1.309-5.612-4.203-5.974,.058,.195,.136,.6,.136,.6,.206,1.273-.79,2.832-1.605,3.053,.564-.843,.784-1.871,.619-2.894h0c-.257-1.582-1.523-2.913-3.08-3.237-.286-.06-.572-.089-.856-.089-.922,0-1.813,.309-2.531,.893-.939,.764-1.479,1.896-1.479,3.105,0,1.982,1.491,3.678,3.467,3.944l.283,.038,.111,.263c.705,1.674,2.431,2.755,4.396,2.755h4.243c.275,0,.5-.224,.5-.5v-1.958Z"/>
</svg>
