<?xml version="1.0" encoding="UTF-8"?>
<svg xmlns="http://www.w3.org/2000/svg" id="Layer_1" data-name="Layer 1" viewBox="0 0 24 24">
  <path d="m21.5,0H2.5C1.121,0,0,1.121,0,2.5v17.5h7.105l3.898,3.283c.285.254.645.38,1.001.38.352,0,.702-.123.978-.368l3.985-3.295h7.032V2.5c0-1.379-1.121-2.5-2.5-2.5Zm1.5,19h-6.392l-4.276,3.535c-.188.168-.474.17-.674-.009l-4.188-3.526H1V2.5c0-.827.673-1.5,1.5-1.5h19c.827,0,1.5.673,1.5,1.5v16.5ZM14.75,5c-1.199,0-2.189.546-2.75,1.421-.561-.875-1.551-1.421-2.75-1.421-1.792,0-3.25,1.557-3.25,3.47,0,3.334,5.481,7.18,5.715,7.342l.285.197.285-.197c.233-.162,5.715-4.008,5.715-7.342,0-1.913-1.458-3.47-3.25-3.47Zm-2.75,9.786c-1.624-1.191-5-4.121-5-6.316,0-1.361,1.01-2.47,2.25-2.47,1.325,0,2.25.904,2.25,2.2v.8h1v-.8c0-1.296.925-2.2,2.25-2.2,1.24,0,2.25,1.108,2.25,2.47,0,2.195-3.376,5.125-5,6.316Z"/>
</svg>
