<?xml version="1.0" encoding="UTF-8"?>
<svg xmlns="http://www.w3.org/2000/svg" id="Layer_1" data-name="Layer 1" viewBox="0 0 24 24">
  <path d="m17.5,16c-1.379,0-2.5,1.122-2.5,2.5s1.121,2.5,2.5,2.5,2.5-1.122,2.5-2.5-1.121-2.5-2.5-2.5Zm0,4c-.827,0-1.5-.673-1.5-1.5s.673-1.5,1.5-1.5,1.5.673,1.5,1.5-.673,1.5-1.5,1.5Zm3.168-7h-6.352l-3.175,5.5,3.175,5.5h6.352l3.175-5.5-3.175-5.5Zm-.578,10h-5.195l-2.599-4.5,2.599-4.5h5.195l2.599,4.5-2.599,4.5ZM12,2.707V0H0v2.707l3,3v15.269l3,3,3-3V5.707l3-3Zm-4.389,3.293l-3.611,3.611v-3.611h3.611Zm.389,2.598l-4,4.146v-1.719l4-4v1.573Zm-4,5.586l4-4.146v1.56l-4,4.146v-1.56Zm0,3l4-4.146v1.578l-4,4.146v-1.578ZM1,1h10v1.293l-2.707,2.707H3.707L1,2.293v-1.293Zm5,21.562l-2-2v-.36l4-4.146v1.559l-2.31,2.384h1.39l.92-.948v1.51l-2,2Z"/>
</svg>
