<?xml version="1.0" encoding="UTF-8"?>
<svg xmlns="http://www.w3.org/2000/svg" id="Layer_1" data-name="Layer 1" viewBox="0 0 24 24">
  <path d="M24,2c0-1.103-.897-2-2-2H13c-1.103,0-2,.897-2,2V12h13V2ZM13,1h9c.552,0,1,.449,1,1v1H12v-1c0-.551,.448-1,1-1Zm-1,10V4h11v7H12ZM1,14c0-.552,.448-1,1-1h7v-1H2c-1.103,0-2,.897-2,2v10H13V15H1v-1Zm11,2v7H1v-7H12Zm12.059,1.941l-2.506-2.507c-.58-.58-1.525-.58-2.105,0l-2.506,2.507,.707,.707,2.352-2.352v5.204c0,.827-.673,1.5-1.5,1.5h-3.5v1h3.5c1.379,0,2.5-1.121,2.5-2.5v-5.204l2.352,2.352,.707-.707ZM3.5,9c.381,0,.763-.145,1.053-.435l2.506-2.506-.707-.707-2.352,2.352V2.5c0-.827,.673-1.5,1.5-1.5h3.5V0h-3.5c-1.379,0-2.5,1.122-2.5,2.5V7.704L.648,5.352-.059,6.059l2.506,2.507c.29,.29,.672,.434,1.053,.434Z"/>
</svg>
