<?xml version="1.0" encoding="UTF-8"?>
<svg xmlns="http://www.w3.org/2000/svg" id="Layer_1" data-name="Layer 1" viewBox="0 0 24 24">
  <path d="m10,9c.552,0,1,.448,1,1s-.448,1-1,1-1-.448-1-1,.448-1,1-1Zm14,1.5c0,7.318-6.411,13.5-14,13.5h-.5v-4.025C4.219,19.712,0,15.345,0,10,0,4.486,4.486,0,10,0c3.685,0,7.06,2.017,8.809,5.263.224.415.408.849.57,1.292-.31.167-.597.364-.858.596-.162-.486-.35-.962-.592-1.413-1.575-2.922-4.613-4.737-7.929-4.737C5.038,1,1,5.038,1,10s4.038,9,9,9c3.08,0,5.914-1.549,7.579-4.145.259-.403.475-.828.665-1.263.239.252.503.478.795.669-.183.388-.384.77-.618,1.134-1.759,2.741-4.695,4.413-7.921,4.573v3.022c6.078-.234,11.231-4.712,12.29-10.36-.378.23-.816.37-1.29.37-1.378,0-2.5-1.122-2.5-2.5s1.122-2.5,2.5-2.5,2.5,1.122,2.5,2.5Zm-1,0c0-.827-.673-1.5-1.5-1.5s-1.5.673-1.5,1.5.673,1.5,1.5,1.5,1.5-.673,1.5-1.5Z"/>
</svg>
