<?xml version="1.0" encoding="UTF-8"?>
<svg xmlns="http://www.w3.org/2000/svg" id="Layer_1" data-name="Layer 1" viewBox="0 0 24 24">
  <path d="M18.249,17.542c2.664-2.721,5.655-6.597,5.655-10.292,0-3.446-2.804-6.25-6.25-6.25-2.505,0-4.778,1.853-5.75,4.358-.972-2.505-3.245-4.358-5.75-4.358-1.23,0-2.395,.369-3.411,1.036L.753,.047,.046,.754,23.247,23.953l.707-.707-5.704-5.704ZM6.154,2c2.748,0,5.25,2.859,5.25,6h1c0-3.141,2.502-6,5.25-6,2.895,0,5.25,2.355,5.25,5.25,0,3.359-2.832,7.001-5.362,9.585L3.465,2.758c.812-.488,1.727-.758,2.689-.758ZM15.366,18.901l.709,.709c-1.611,1.433-3.046,2.512-3.88,3.107l-.291,.207-.291-.207C9.658,21.319-.096,14.01-.096,7.25-.096,6.166,.184,5.136,.689,4.225l.738,.738c-.339,.701-.523,1.477-.523,2.287,0,4.772,5.858,10.707,11,14.443,.827-.603,2.077-1.565,3.462-2.793Z"/>
</svg>
