<?xml version="1.0" encoding="UTF-8"?>
<svg xmlns="http://www.w3.org/2000/svg" id="Layer_1" data-name="Layer 1" viewBox="0 0 24 24">
  <path d="m13,12c0,.552-.448,1-1,1s-1-.448-1-1,.448-1,1-1,1,.448,1,1Zm9.648,6.608s0,0,0,0c0,0,0,0,0,0,0,0,0,0,0,0h0c-.577.928-1.763,1.374-3.333,1.374-.434,0-.907-.047-1.396-.114.097-.306.188-.619.272-.943,1.819.233,3.123-.067,3.607-.845.888-1.431-.883-4.625-4.849-7.749.032.547.061,1.096.061,1.667h0c0,6.729-2.196,12-5,12h0s0,0,0,0c-1.221,0-2.327-1.002-3.187-2.687.319-.092.645-.203.971-.313.675,1.273,1.462,2,2.216,2,0,0,0,0,0,0h0c1.498,0,3.128-2.84,3.743-7.239-.321.224-.65.445-.997.66h0,0c-3.731,2.318-7.43,3.562-10.053,3.562-1.571,0-2.756-.445-3.333-1.374h0s0,0,0,0c-.768-1.237-.29-3.063,1.123-5.043.225.237.459.473.704.708-1.122,1.612-1.482,2.995-.978,3.807,0,0,0,0,0,0h0c.862,1.386,4.317,1.269,8.68-.719-.543-.292-1.088-.6-1.636-.941,0,0,0,0-.001,0C3.297,12.716-.169,7.87,1.371,5.391c0,0,0,0,.001-.001.736-1.183,2.467-1.574,4.718-1.264-.096.307-.185.622-.269.948-1.815-.232-3.118.069-3.601.846h0c-.889,1.432.886,4.631,4.86,7.756-.031-.552-.071-1.098-.071-1.675,0,0,0,0,0-.001C7.01,5.271,9.206,0,12.009,0c0,0,0,0,0,0h0s0,0,0,0c1.22,0,2.324,1,3.183,2.682-.32.093-.644.196-.973.309-.674-1.267-1.459-1.99-2.211-1.99-1.499,0-3.13,2.843-3.744,7.246.33-.223.649-.451.997-.667,0,0,0,0,0,0h0c5.965-3.704,11.846-4.666,13.385-2.188h0s0,0,0,0c.769,1.237.289,3.064-1.124,5.044-.225-.237-.458-.473-.703-.709,1.122-1.613,1.482-2.996.978-3.808,0,0,0,0,0,0h0c-.861-1.387-4.321-1.268-8.689.724.546.29,1.095.593,1.647.937h0c5.964,3.706,9.43,8.55,7.892,11.03Zm-6.767-9.073c-.522-.373-1.067-.743-1.651-1.106,0,0-.001,0-.002,0-.766-.476-1.509-.877-2.239-1.246-.716.367-1.45.78-2.198,1.245,0,0,0,0-.001.001-.594.369-1.145.746-1.675,1.126-.068.778-.106,1.594-.106,2.446,0,0,0,0,0,0,0,.859.046,1.672.115,2.455.526.376,1.075.75,1.664,1.115,0,0,0,0,.001,0,.76.472,1.502.88,2.229,1.251.719-.368,1.456-.783,2.208-1.25,0,0,.001-.001.002-.002.601-.373,1.149-.754,1.676-1.138.067-.775.105-1.586.105-2.433,0,0,0,0,0,0,0-.868-.054-1.679-.128-2.465Z"/>
</svg>
