<?xml version="1.0" encoding="UTF-8"?>
<svg xmlns="http://www.w3.org/2000/svg" id="Layer_1" data-name="Layer 1" viewBox="0 0 24 24">
  <path d="m2.492,9.619l-.699-.715L10.107.777c.501-.5,1.173-.777,1.889-.777h.005c.714.001,1.386.279,1.891.781l8.315,8.123-.699.715L13.189,1.494c-.32-.319-.741-.493-1.19-.494h-.003c-.449,0-.87.173-1.186.488L2.492,9.619Zm10.694,12.891c-.317.315-.738.489-1.188.49h-.003c-.449,0-.87-.174-1.189-.492L2.492,14.381l-.699.715,8.311,8.123c.505.504,1.177.781,1.893.781h.005c.714,0,1.386-.278,1.888-.778l8.318-8.126-.699-.715-8.321,8.129Z"/>
</svg>
