<?xml version="1.0" encoding="UTF-8"?>
<svg xmlns="http://www.w3.org/2000/svg" id="Layer_1" data-name="Layer 1" viewBox="0 0 24 24">
  <path d="m13.13,23h3.87v1h-5v-.5c0-1.25,1.119-2.089,2.2-2.9.885-.664,1.8-1.35,1.8-2.1,0-.827-.673-1.5-1.5-1.5s-1.5.673-1.5,1.5h-1c0-1.378,1.122-2.5,2.5-2.5s2.5,1.122,2.5,2.5c0,1.25-1.119,2.089-2.2,2.9-.685.514-1.387,1.041-1.67,1.6Zm9.87-3h-2.5c-.276,0-.5-.224-.5-.5v-3.5h-1v3.5c0,.827.673,1.5,1.5,1.5h2.5v3h1v-8h-1v4Zm0-17v4.216C21.109,2.876,16.773,0,12,0,5.383,0,0,5.383,0,12c0,4.995,3.145,9.518,7.826,11.254.705.262,1.435.428,2.174.552v-1.008c-.62-.114-1.233-.261-1.826-.481-4.291-1.592-7.174-5.738-7.174-10.316C1,5.935,5.935,1,12,1c4.515,0,8.605,2.807,10.244,7h-4.244v1h4.5c.827,0,1.5-.673,1.5-1.5V3h-1Zm-10,2.5h-1v6.5h-5.5v1h6.5v-7.5Z"/>
</svg>
