<?xml version="1.0" encoding="UTF-8"?>
<svg xmlns="http://www.w3.org/2000/svg" id="Layer_1" data-name="Layer 1" viewBox="0 0 24 24">
  <path d="m24,2v1h-9.495c-.665,0-1.257.446-1.441,1.084l-5.167,17.916h-1.256l-3.658-10.974c-.205-.614-.777-1.026-1.423-1.026H0v-1h1.559c1.078,0,2.031.687,2.372,1.709l3.314,9.942L12.103,3.807c.307-1.064,1.295-1.807,2.402-1.807h9.495Zm-1.282,10l-3.211,4.224-3.211-4.224h-1.257l3.839,5.051-3.761,4.949h1.257l3.133-4.122,3.133,4.122h1.257l-3.761-4.949,3.839-5.051h-1.257Z"/>
</svg>
