<?xml version="1.0" encoding="UTF-8"?>
<svg xmlns="http://www.w3.org/2000/svg" id="Layer_1" data-name="Layer 1" viewBox="0 0 24 24">
  <path d="M14.707,0H4.5c-1.378,0-2.5,1.121-2.5,2.5V24H22V7.293L14.707,0Zm.293,1.707l5.293,5.293h-5.293V1.707ZM3,23V2.5c0-.827,.673-1.5,1.5-1.5H14v7h7v15H3ZM15.879,13.297c-.438-1.927-2.131-3.297-4.129-3.297-2.343,0-4.25,1.906-4.25,4.25,0,.308,.036,.612,.11,.923-.948,.362-1.61,1.28-1.61,2.327,0,1.379,1.122,2.5,2.5,2.5h6c1.93,0,3.5-1.57,3.5-3.5,0-1.402-.841-2.654-2.121-3.203Zm-1.379,5.703h-6c-.827,0-1.5-.673-1.5-1.5,0-.744,.561-1.38,1.304-1.478l.617-.082-.213-.585c-.14-.385-.208-.746-.208-1.105,0-1.792,1.458-3.25,3.25-3.25,1.602,0,2.946,1.153,3.197,2.743l.048,.301,.288,.096c1.027,.341,1.717,1.29,1.717,2.36,0,1.379-1.121,2.5-2.5,2.5Z"/>
</svg>
