<?xml version="1.0" encoding="UTF-8"?>
<svg xmlns="http://www.w3.org/2000/svg" id="Layer_1" data-name="Layer 1" viewBox="0 0 24 24">
  <path d="M6.5,5c1.378,0,2.5-1.122,2.5-2.5S7.878,0,6.5,0s-2.5,1.122-2.5,2.5,1.122,2.5,2.5,2.5Zm0-4c.827,0,1.5,.673,1.5,1.5s-.673,1.5-1.5,1.5-1.5-.673-1.5-1.5,.673-1.5,1.5-1.5Zm11,4c1.378,0,2.5-1.122,2.5-2.5s-1.122-2.5-2.5-2.5-2.5,1.122-2.5,2.5,1.122,2.5,2.5,2.5Zm0-4c.827,0,1.5,.673,1.5,1.5s-.673,1.5-1.5,1.5-1.5-.673-1.5-1.5,.673-1.5,1.5-1.5Zm6.5,1h-1V6H1V2H0V7H3.44l-1.312,7.514c-.185,1.046-.109,2.133,.219,3.144l2.062,6.343h1.052l-2.163-6.653c-.142-.436-.226-.89-.256-1.347h7.911l-1.91,4.297,.914,.406,2-4.5,.043-1.203H7.211l1.417-8h6.445l-1.653,11h2.386l-1.818,6h1.043l1.818-6h1.166l-.467,1.564,2.645,4.436h1.158l-2.725-4.57,.453-1.43h3.008l-1.769-11h3.682V2ZM6.196,15H3.077c.012-.104,.017-.208,.035-.311l1.303-7.689h3.198l-1.417,8Zm14.717,2h-6.333l1.504-10h3.221l1.608,10Z"/>
</svg>
