<?xml version="1.0" encoding="UTF-8"?>
<svg xmlns="http://www.w3.org/2000/svg" id="Layer_1" data-name="Layer 1" viewBox="0 0 24 24">
  <path d="M23,11C23,4.935,18.065,0,12,0S1,4.935,1,11c0,3.466,1.073,7.241,2.069,10h-1.069v3h7v-1l-.016-.125c-.02-.077-1.984-7.71-1.984-11.875,0-2.757,2.243-5,5-5s5,2.243,5,5c0,4.164-1.964,11.798-1.984,11.875l-.016,1.125h7v-3h-1.069c.997-2.759,2.069-6.533,2.069-10Zm-2,11v1h-4.984c.268-1.052,1.984-7.957,1.984-12,0-3.309-2.691-6-6-6s-6,2.691-6,6c0,4.043,1.716,10.948,1.984,12H3v-1h1.512l-.256-.677c-.842-2.226-2.255-6.525-2.255-10.323C2,5.486,6.486,1,12,1s10,4.486,10,10c0,3.799-1.413,8.099-2.255,10.323l-.256,.677h1.511Zm-1.5-11c0-.679-.09-1.352-.269-2l.964-.266c.203,.735,.306,1.498,.305,2.267v2h-1v-2ZM3.792,8.781l.966,.261c-.171,.635-.258,1.294-.258,1.958,0,.656,0,2,0,2h-1s0-1.257,0-2c0-.752,.099-1.499,.292-2.219ZM7.784,3.619l.496,.868c-1.145,.655-2.101,1.604-2.765,2.743l-.864-.503c.752-1.292,1.836-2.367,3.133-3.108Zm11.541,3.065l-.861,.509c-.67-1.136-1.632-2.079-2.78-2.728l.491-.871c1.301,.735,2.391,1.803,3.15,3.09ZM12,2.5c.712,0,1.421,.088,2.105,.263l-.247,.969c-.604-.154-1.229-.232-1.858-.232s-1.254,.078-1.858,.232l-.247-.969c.685-.175,1.393-.263,2.105-.263Z"/>
</svg>
