<?xml version="1.0" encoding="UTF-8"?>
<svg xmlns="http://www.w3.org/2000/svg" id="Layer_1" data-name="Layer 1" viewBox="0 0 24 24">
  <path d="M12,9.256c-1.654,0-3,1.346-3,3s1.346,3,3,3,3-1.346,3-3-1.346-3-3-3Zm0,5c-1.103,0-2-.897-2-2s.897-2,2-2,2,.897,2,2-.897,2-2,2Zm10.109,.609c-.764-.237-1.859-.697-2.912-1.319,1.092-1.171,2.065-2.783,2.767-5.302l.087-.312L13.525,.877l-.207,.742c-.549,1.97-1.261,3.332-2.076,4.357-.953-1.291-1.667-2.663-2.108-4.086-.355-1.148-1.346-1.89-2.523-1.89H2C.897,0,0,.897,0,2c0,.872,.564,1.607,1.344,1.88-.217,.32-.344,.705-.344,1.12,0,.872,.564,1.607,1.344,1.88-.217,.32-.344,.705-.344,1.12,0,1.103,.897,2,2,2h1.968c-1.579,1.147-3.106,2.698-4.326,5.702l-.138,.339,8.492,7.025,.257-.632c1.056-2.601,2.372-4.035,3.747-5.088v2.653c0,1.103,.897,2,2,2,.414,0,.8-.127,1.12-.344,.273,.78,1.009,1.344,1.88,1.344,.414,0,.8-.127,1.12-.344,.273,.78,1.009,1.344,1.88,1.344,1.103,0,2-.897,2-2v-4.611c0-1.178-.742-2.168-1.891-2.523ZM4,9c-.551,0-1-.449-1-1s.449-1,1-1h2v-1H3c-.551,0-1-.449-1-1s.449-1,1-1h2v-1H2c-.551,0-1-.449-1-1s.449-1,1-1H6.611c.741,0,1.342,.455,1.568,1.186,.493,1.593,1.296,3.124,2.379,4.554-.883,.881-1.854,1.49-2.851,2.112-.078,.049-.157,.098-.235,.147h-3.472Zm5.593,12.435L2.71,15.741c1.529-3.542,3.561-4.812,5.527-6.041,2.183-1.363,4.436-2.771,5.825-7.082l6.85,5.667c-1.268,4.266-3.335,5.557-5.521,6.923-2.05,1.28-4.165,2.602-5.799,6.226Zm13.407,.565c0,.551-.448,1-1,1s-1-.449-1-1v-3h-1v2c0,.551-.448,1-1,1s-1-.449-1-1v-3h-1v2c0,.551-.448,1-1,1s-1-.449-1-1v-3.357c.307-.202,.615-.395,.921-.586,.851-.532,1.712-1.071,2.529-1.785,1.499,.929,2.925,1.413,3.364,1.549,.731,.227,1.186,.827,1.186,1.568v4.611Z"/>
</svg>
