<?xml version="1.0" encoding="UTF-8"?>
<svg xmlns="http://www.w3.org/2000/svg" id="Layer_1" data-name="Layer 1" viewBox="0 0 24 24">
  <path d="m17.094,14.457c2.947-.756,4.906-2.228,4.906-3.957,0-2.237-3.281-4.045-7.738-4.426,1.075-.635,1.738-1.546,1.738-2.574,0-1.962-2.416-3.5-5.5-3.5s-5.5,1.538-5.5,3.5c0,1.337,1.122,2.477,2.813,3.068-2.895.763-4.813,2.222-4.813,3.932,0,1.65,1.785,3.067,4.511,3.849-4.443.726-7.511,2.512-7.511,4.651,0,2.804,5.271,5,12,5s12-2.196,12-5c0-2.04-2.792-3.759-6.906-4.543ZM6,3.5c0-1.355,2.061-2.5,4.5-2.5s4.5,1.145,4.5,2.5-2.061,2.5-4.5,2.5-4.5-1.145-4.5-2.5Zm-2,7c0-1.69,3.416-3.5,8.5-3.5s8.5,1.81,8.5,3.5-3.415,3.5-8.5,3.5-8.5-1.81-8.5-3.5Zm8,12.5c-6.482,0-11-2.108-11-4s4.518-4,11-4,11,2.108,11,4-4.518,4-11,4Z"/>
</svg>
