<?xml version="1.0" encoding="UTF-8"?>
<svg xmlns="http://www.w3.org/2000/svg" id="Layer_1" data-name="Layer 1" viewBox="0 0 24 24">
  <path d="m3,7H1v-1h2v-2h1v2h2v1h-2v2h-1v-2Zm6-2h1v-2h2v-1h-2V0h-1v2h-2v1h2v2Zm3,2v1h2v2h1v-2h2v-1h-2v-2h-1v2h-2Zm11.363,6.182l-9.639,10.818H2.5c-1.378,0-2.5-1.121-2.5-2.5v-7c0-1.379,1.122-2.5,2.5-2.5h10.858c1.208,0,2.229.814,2.542,1.923l3.732-4.102c.451-.496,1.069-.787,1.739-.818.666-.026,1.312.2,1.809.652,1.012.923,1.094,2.505.182,3.527Zm-.856-2.788c-.298-.272-.69-.414-1.088-.393-.403.019-.775.194-1.047.492l-4.495,4.941c-.301.945-1.124,1.678-2.146,1.823l-5.667.738-.129-.992,5.661-.737c.798-.113,1.404-.812,1.404-1.624,0-.905-.737-1.643-1.642-1.643H2.5c-.827,0-1.5.673-1.5,1.5v7c0,.827.673,1.5,1.5,1.5h10.776l9.34-10.483c.549-.615.5-1.567-.109-2.123Z"/>
</svg>
