<?xml version="1.0" encoding="UTF-8"?>
<svg xmlns="http://www.w3.org/2000/svg" id="Layer_1" data-name="Layer 1" viewBox="0 0 24 24">
  <path d="m7.5,9H2.5c-.827,0-1.5.673-1.5,1.5v2.5H0v-2.5c0-1.379,1.122-2.5,2.5-2.5h5c1.378,0,2.5,1.121,2.5,2.5v2.5h-1v-2.5c0-.827-.673-1.5-1.5-1.5ZM2,3c0-1.654,1.346-3,3-3s3,1.346,3,3-1.346,3-3,3-3-1.346-3-3Zm1,0c0,1.103.897,2,2,2s2-.897,2-2-.897-2-2-2-2,.897-2,2Zm18.5,5h-5c-1.378,0-2.5,1.121-2.5,2.5v2.5h1v-2.5c0-.827.673-1.5,1.5-1.5h5c.827,0,1.5.673,1.5,1.5v2.5h1v-2.5c0-1.379-1.122-2.5-2.5-2.5Zm-5.5-5c0-1.654,1.346-3,3-3s3,1.346,3,3-1.346,3-3,3-3-1.346-3-3Zm1,0c0,1.103.897,2,2,2s2-.897,2-2-.897-2-2-2-2,.897-2,2Zm1.554,12.402l-2.659,2.659.707.707,2.398-2.398v5.13c0,.827-.673,1.5-1.5,1.5H6.5c-.827,0-1.5-.673-1.5-1.5v-6.5h-1v6.5c0,1.379,1.122,2.5,2.5,2.5h11c1.378,0,2.5-1.121,2.5-2.5v-5.181l2.45,2.45.707-.707-2.659-2.659c-.536-.535-1.407-.534-1.944,0Z"/>
</svg>
