<?xml version="1.0" encoding="UTF-8"?>
<svg xmlns="http://www.w3.org/2000/svg" id="Layer_1" data-name="Layer 1" viewBox="0 0 24 24">
  <path d="m22,12.05v-4.05h-2C20,2.795,16.119.108,15.959,0h-.959v.5c0,2.412-2.246,2.498-2.5,2.5h-3c-4.449,0-5.299,3.644-5.462,5h-2.038v4.05c-1.14.232-2,1.242-2,2.45v9.5h24v-9.5c0-1.208-.86-2.218-2-2.45ZM9.5,4h3c1.094,0,3.069-.598,3.439-2.756.921.803,3.061,3.064,3.061,6.756H5.036c.144-1.177.866-4,4.464-4Zm-6.5,5h18v3H3v-3Zm20,14H1v-8.5c0-.827.673-1.5,1.5-1.5h19c.827,0,1.5.673,1.5,1.5v8.5Z"/>
</svg>
