<?xml version="1.0" encoding="UTF-8"?>
<svg xmlns="http://www.w3.org/2000/svg" id="Layer_1" data-name="Layer 1" viewBox="0 0 24 24">
  <path d="M24,16.667v6.869l-5.872-.397c-2.875-.195-5.128-2.605-5.128-5.488V5.087c0-1.02,.718-1.906,1.67-2.061,.549-.089,1.081,.039,1.499,.357,.463,.354,.757,.908,.826,1.562h0s0,0,0,0l.594,5.632c-.327-.185-.68-.32-1.049-.418l-.539-5.109h0c-.04-.378-.196-.688-.438-.874-.201-.153-.458-.21-.732-.165-.474,.077-.83,.538-.83,1.073v7.387c.402-.294,.893-.474,1.428-.474,1.2,0,2.233,.894,2.403,2.08l.664,4.649-.99,.142-.664-4.649c-.101-.708-.695-1.221-1.413-1.221-.787,0-1.428,.641-1.428,1.428v3.223c0,2.358,1.843,4.331,4.196,4.49l4.804,.325v-5.131l-2.854-1.189-.165-1.152,4.019,1.674ZM9.33,.026c-.547-.088-1.08,.039-1.499,.357-.463,.354-.757,.908-.826,1.562h0s0,0,0,0l-.594,5.632c.327-.185,.68-.32,1.049-.418l.539-5.109h0c.04-.378,.196-.688,.438-.874,.201-.154,.456-.211,.732-.165,.474,.077,.83,.538,.83,1.073v7.387c-.402-.294-.893-.474-1.428-.474-1.2,0-2.233,.894-2.403,2.08l-.664,4.649,.99,.142,.664-4.649c.101-.708,.695-1.221,1.413-1.221,.787,0,1.428,.641,1.428,1.428v3.223c0,2.358-1.843,4.331-4.196,4.49l-4.804,.325v-5.131l2.854-1.189,.165-1.152L0,13.667v6.869l5.872-.397c2.875-.195,5.128-2.605,5.128-5.488V2.087c0-1.02-.718-1.906-1.67-2.061Z"/>
</svg>
