<?xml version="1.0" encoding="UTF-8"?>
<svg xmlns="http://www.w3.org/2000/svg" id="Layer_1" data-name="Layer 1" viewBox="0 0 24 24">
  <path d="M21,6v-1l-1.899-.875-3.642,.167-.52-1.01s-3.169-.85-4.438-1.096c-.213,.379-1,1-1,1l-2.5-.5-2-.5-1.5-1-1,1.5L0,3.678l.5,3.007,2,1,2.5-.5,.816,1.048-1.816,1.952v2l-1,.5,1.5,3-1,3,3.5,3.5,2.5-2.185h4l1.5-1.5,1.5-.5,1.951-3.002-1.384-1.652,2.033-3.403,2.4-.442,2.5-1.5v-2h-3Zm2,1.434l-1.859,1.116-2.667,.492-2.629,4.402,.456,.545,.909,1.085-1.358,2.089-1.392,.464-1.374,1.374h-3.961l-2.079,1.817-2.402-2.402,.936-2.807-1.238-2.476,.658-.329v-2.225l2.129-2.288-1.72-2.207-2.769,.554-1.237-.619-.284-1.709,2.04-.81,.618-.928,.812,.541,2.214,.552,2.953,.591s.843-.676,1.127-.967c1.053,.238,2.62,.647,3.368,.844l.611,1.186,4.04-.185,1.097,.505v1.36h3v.434Zm-4.132,10.512l2.049,2.102,3-2.5-2.917-2.363-2.132,2.761Zm3.474-.387l-1.354,1.129-.797-.818,.976-1.263,1.176,.953Zm-4.342,2.626l.524,1.159-1.524,1.341-1-1,2-1.5Zm4.5-8.5l1.5,1.59-.5,.91-2-1,1-1.5Z"/>
</svg>
