<?xml version="1.0" encoding="UTF-8"?>
<svg xmlns="http://www.w3.org/2000/svg" id="Layer_1" data-name="Layer 1" viewBox="0 0 24 24">
  <path d="M4,8h3v1h-2v2.5h2v1h-2v3.5h-1V8Zm7.161,4.617l1.339,3.383h-1.046l-1.229-3.038c-.125,.019-.25,.038-.38,.038h-.846v3h-1V8h1.846c1.378,0,2.5,1.121,2.5,2.5,0,.895-.476,1.675-1.185,2.117Zm.185-2.117c0-.827-.673-1.5-1.5-1.5h-.846v3h.846c.827,0,1.5-.673,1.5-1.5Zm1.654,5.5h3v-1h-2v-2.5h2v-1h-2v-2.5h2v-1h-3v8ZM24,5.5v15.5H0V5.5c0-1.379,1.122-2.5,2.5-2.5H21.5c1.379,0,2.5,1.121,2.5,2.5Zm-1,0c0-.827-.673-1.5-1.5-1.5H2.5c-.827,0-1.5,.673-1.5,1.5v14.5H23V5.5Zm-6,10.5h3v-1h-2v-2.5h2v-1h-2v-2.5h2v-1h-3v8Z"/>
</svg>
