<?xml version="1.0" encoding="UTF-8"?>
<svg xmlns="http://www.w3.org/2000/svg" id="Layer_1" data-name="Layer 1" viewBox="0 0 24 24">
  <path d="M20,6.738c0-.735-.368-1.412-.984-1.812-.01-.006-.021-.009-.031-.015,.617-.392,1.015-1.06,1.015-1.805,0-.734-.368-1.412-.983-1.812-.616-.399-1.385-.46-2.05-.163l-3.182,1.373c.019-.114,.05-.225,.05-.344,0-.734-.368-1.412-.983-1.812-.617-.401-1.387-.458-2.048-.164L5.28,2.543c-.778,.346-1.28,1.12-1.28,1.972,0,.734,.368,1.412,.983,1.812,.01,.007,.022,.009,.033,.015-.617,.392-1.016,1.06-1.016,1.805,0,.734,.368,1.412,.983,1.812,.01,.007,.022,.008,.032,.015-.617,.392-1.016,1.06-1.016,1.805,0,.734,.368,1.412,.983,1.812,.006,.004,.012,.005,.018,.008-.609,.394-1.001,1.057-1.001,1.796,0,.734,.368,1.412,.983,1.812,.01,.007,.022,.008,.032,.015-.617,.392-1.016,1.06-1.016,1.805,0,.734,.368,1.412,.983,1.812,.356,.231,.765,.349,1.174,.349,.298,0,.597-.062,.879-.187l1.964-.847v3.849h6v-4h2v-3.301l1.72-.742c.778-.346,1.28-1.12,1.28-1.972,0-.734-.368-1.412-.983-1.812-.01-.007-.022-.009-.032-.016,.617-.392,1.015-1.06,1.015-1.805,0-.734-.368-1.412-.983-1.812-.006-.004-.012-.005-.018-.008,.608-.393,1.001-1.056,1.001-1.795ZM5.68,3.46L11.204,1.103c.154-.069,.315-.103,.476-.103,.218,0,.434,.063,.627,.189,.336,.218,.528,.572,.528,.973,0,.44-.254,.837-.639,1.029l-5.564,2.384c-.368,.164-.77,.131-1.104-.086-.336-.218-.528-.572-.528-.973,0-.457,.27-.873,.68-1.055Zm.002,3.63L17.369,2.047c.154-.069,.315-.103,.476-.103,.218,0,.434,.063,.627,.189,.336,.218,.528,.572,.528,.973,0,.457-.27,.873-.682,1.057L6.631,9.206c-.365,.162-.768,.132-1.103-.086-.336-.218-.528-.573-.528-.973,0-.457,.27-.872,.682-1.056Zm8.318,15.91h-4v-3h4v3Zm2-4h-4.333l4.333-1.87v1.87Zm2.318-3.959l-11.688,5.043c-.365,.162-.768,.131-1.103-.086-.336-.218-.528-.572-.528-.973,0-.457,.27-.873,.682-1.057l11.687-5.043c.155-.069,.316-.103,.476-.103,.219,0,.435,.064,.628,.189,.336,.218,.528,.572,.528,.973,0,.457-.27,.873-.682,1.056Zm0-3.631l-11.688,5.043c-.365,.162-.768,.132-1.103-.086-.336-.218-.528-.572-.528-.973,0-.457,.27-.873,.682-1.057l11.688-5.043c.154-.069,.315-.103,.476-.103,.218,0,.434,.063,.627,.189,.336,.218,.528,.573,.528,.973,0,.457-.27,.872-.682,1.056Zm0-3.616L6.631,12.837c-.365,.162-.768,.131-1.103-.086-.336-.218-.528-.572-.528-.973,0-.457,.27-.873,.682-1.057l11.688-5.043c.154-.069,.315-.103,.476-.103,.218,0,.434,.063,.627,.189,.336,.218,.528,.573,.528,.973,0,.457-.27,.872-.682,1.056Z"/>
</svg>
