<?xml version="1.0" encoding="UTF-8"?>
<svg xmlns="http://www.w3.org/2000/svg" id="Layer_1" data-name="Layer 1" viewBox="0 0 24 24">
  <path d="m24,9.986v3.014h-.025c-.089-.981-.437-1.887-.975-2.652v-.362c0-.517-.242-1.015-.648-1.333,0,0,0,0,0,0h0S13.042,1.359,13.042,1.359c-.613-.48-1.469-.48-2.083,0L1.649,8.653c-.407.318-.649.816-.649,1.333v13.014h10.276c.126.353.28.693.485,1H0v-14.014c0-.822.386-1.614,1.032-2.12L10.341.572c.977-.766,2.341-.766,3.317,0l9.31,7.294h0c.646.506,1.032,1.298,1.032,2.12Zm-5,8.514h-1v2h1v-2Zm3-3.5h2v6.5c0,1.379-1.122,2.5-2.5,2.5h-6c-1.378,0-2.5-1.121-2.5-2.5v-6.5h2v-1.5c0-1.93,1.57-3.5,3.5-3.5s3.5,1.57,3.5,3.5v1.5Zm-6,0h5v-1.5c0-1.379-1.122-2.5-2.5-2.5s-2.5,1.121-2.5,2.5v1.5Zm7,1h-9v5.5c0,.827.673,1.5,1.5,1.5h6c.827,0,1.5-.673,1.5-1.5v-5.5Z"/>
</svg>
