<?xml version="1.0" encoding="UTF-8"?>
<svg xmlns="http://www.w3.org/2000/svg" id="Layer_1" data-name="Layer 1" viewBox="0 0 24 24">
  <path d="m10,22.588h0s0,1.398,0,1.398h0s-7.067-6.911-7.067-6.911c-3.903-3.903-3.903-10.247-.004-14.146C4.818,1.04,7.329,0,10,0s5.182,1.04,7.071,2.929c1.889,1.889,2.929,4.4,2.929,7.071,0,1.033-.159,2.041-.46,3h-1.061c.336-.952.521-1.96.521-3,0-2.404-.936-4.664-2.636-6.364-1.7-1.699-3.96-2.636-6.364-2.636s-4.664.937-6.364,2.636C.126,7.146.126,12.855,3.636,16.364l6.364,6.224Zm0-8.588c-2.206,0-4-1.794-4-4s1.794-4,4-4,4,1.794,4,4-1.794,4-4,4Zm3-4c0-1.654-1.346-3-3-3s-3,1.346-3,3,1.346,3,3,3,3-1.346,3-3Zm11,7v7h-12v-7c0-1.103.897-2,2-2h8c1.103,0,2,.897,2,2Zm-10-1c-.178,0-.336.059-.481.141l3.42,3.42c.566.566,1.555.566,2.121,0l3.42-3.42c-.145-.082-.303-.141-.481-.141h-8Zm9,7v-5.965l-3.232,3.232c-.472.473-1.1.732-1.768.732s-1.296-.26-1.768-.732l-3.232-3.232v5.965h10Z"/>
</svg>
