<?xml version="1.0" encoding="UTF-8"?>
<svg xmlns="http://www.w3.org/2000/svg" id="Layer_1" data-name="Layer 1" viewBox="0 0 24 24">
  <path d="M22,20c-.929,0-1.705,.64-1.929,1.5h-3.071v-7.5h-1v8.5h4.071c.224,.86,1,1.5,1.929,1.5,1.103,0,2-.897,2-2s-.897-2-2-2Zm0,3c-.551,0-1-.448-1-1s.449-1,1-1,1,.448,1,1-.449,1-1,1Zm-9.5-2.929v-6.071h-1v6.071c-.86,.224-1.5,1-1.5,1.929,0,1.103,.897,2,2,2s2-.897,2-2c0-.929-.64-1.705-1.5-1.929Zm-.5,2.929c-.551,0-1-.448-1-1s.449-1,1-1,1,.448,1,1-.449,1-1,1Zm-5-1.5H3.929c-.224-.86-1-1.5-1.929-1.5-1.103,0-2,.897-2,2s.897,2,2,2c.929,0,1.705-.64,1.929-1.5h4.071V14h-1v7.5Zm-5,1.5c-.551,0-1-.448-1-1s.449-1,1-1,1,.448,1,1-.449,1-1,1ZM17.037,5.308c-1.019-2.617-3.486-4.308-6.287-4.308-3.722,0-6.75,3.028-6.75,6.75,0,.54,.072,1.099,.215,1.659l.095,.376-.341,.187c-1.215,.662-1.969,1.918-1.969,3.278,0,1.811,1.29,3.326,3,3.674v1c-2.262-.363-4-2.312-4-4.674,0-1.6,.819-3.084,2.161-3.96-.107-.519-.161-1.035-.161-1.54C3,3.477,6.477,0,10.75,0c3.126,0,5.891,1.834,7.117,4.695,2.99,.735,5.133,3.449,5.133,6.555,0,2.742-1.646,5.103-4,6.158v-1.11c1.786-.977,3-2.873,3-5.048,0-2.723-1.933-5.092-4.597-5.634l-.268-.055-.099-.254Z"/>
</svg>
