<?xml version="1.0" encoding="UTF-8"?>
<svg xmlns="http://www.w3.org/2000/svg" id="Layer_1" data-name="Layer 1" viewBox="0 0 24 24">
  <path d="M9,13.703c.364,.332,.707,.614,1,.841v2.456h-2v7h-1v-7h-3v7h-1v-7H1V8.5c0-1.379,1.121-2.5,2.5-2.5h3.202c-.194,.307-.339,.646-.456,1H3.5c-.827,0-1.5,.673-1.5,1.5v7.5h7v-2.297Zm7-5.278c0,2.212-3.331,4.632-3.711,4.9l-.289,.204-.289-.204c-.38-.269-3.711-2.688-3.711-4.9,0-1.337,1.01-2.425,2.25-2.425,.706,0,1.337,.353,1.75,.902,.413-.55,1.044-.902,1.75-.902,1.24,0,2.25,1.088,2.25,2.425Zm-1,0c0-.785-.561-1.425-1.25-1.425s-1.25,.64-1.25,1.425v.575h-1v-.575c0-.785-.561-1.425-1.25-1.425s-1.25,.64-1.25,1.425c0,1.309,1.954,3.072,3,3.871,1.045-.8,3-2.565,3-3.871ZM3,2.5c0-1.379,1.121-2.5,2.5-2.5s2.5,1.121,2.5,2.5-1.121,2.5-2.5,2.5-2.5-1.121-2.5-2.5Zm1,0c0,.827,.673,1.5,1.5,1.5s1.5-.673,1.5-1.5-.673-1.5-1.5-1.5-1.5,.673-1.5,1.5Zm19,6c0-1.379-1.121-2.5-2.5-2.5h-3.202c.194,.307,.339,.646,.456,1h2.746c.827,0,1.5,.673,1.5,1.5v7.5h-7v-2.297c-.364,.332-.707,.614-1,.841v2.456h2v7h1v-7h3v7h1v-7h2V8.5Zm-7-6c0-1.379,1.121-2.5,2.5-2.5s2.5,1.121,2.5,2.5-1.121,2.5-2.5,2.5-2.5-1.121-2.5-2.5Zm1,0c0,.827,.673,1.5,1.5,1.5s1.5-.673,1.5-1.5-.673-1.5-1.5-1.5-1.5,.673-1.5,1.5Z"/>
</svg>
