<?xml version="1.0" encoding="UTF-8"?>
<svg xmlns="http://www.w3.org/2000/svg" id="Layer_1" data-name="Layer 1" viewBox="0 0 24 24">
  <path d="M12,0C5.383,0,0,5.383,0,12s5.383,12,12,12,12-5.383,12-12S18.617,0,12,0Zm0,23c-6.065,0-11-4.935-11-11S5.935,1,12,1s11,4.935,11,11-4.935,11-11,11ZM9.31,6.223c-.471-.266-1.035-.268-1.51-.005-.362,.2-.625,.529-.74,.927-.114,.398-.067,.817,.112,1.135l1.605,3.72-1.584,3.695c-.261,.474-.259,1.038,.006,1.51,.284,.503,.808,.787,1.352,.787,.261,0,.526-.065,.771-.203l9.651-5.791L9.321,6.229l-.011-.006Zm-.49,10.702c-.263,.149-.601,.056-.749-.21-.094-.167-.095-.368,.02-.581l1.775-4.135-1.797-4.16c-.071-.128-.088-.277-.047-.418,.041-.141,.134-.258,.262-.329,.084-.046,.176-.069,.267-.069,.091,0,.182,.023,.264,.068l8.212,4.909-8.207,4.924Z"/>
</svg>
