<?xml version="1.0" encoding="UTF-8"?>
<svg xmlns="http://www.w3.org/2000/svg" id="Layer_1" data-name="Layer 1" viewBox="0 0 24 24">
  <path d="M24,3H12.5V0h-1V3H0v1H4.373L1.127,18.245c-.33,1.401-.008,2.849,.882,3.972,.897,1.133,2.247,1.783,3.703,1.783h12.576c1.447,0,2.793-.651,3.692-1.786,.898-1.135,1.224-2.594,.893-4l-3.247-14.214h4.374v-1Zm-12.5,1v3H4.714l.683-3h6.102Zm8,3.937l.7,3.063h-7.7v-3h7v-.063Zm-7,4.063h7.928l.685,3H12.5v-3Zm-1,3H2.892l.683-3h7.925v3Zm0-4H3.803l.697-3.06v.06h7v3ZM2.664,16H11.5v3H2.037c.016-.177,.022-.354,.064-.53l.563-2.47Zm3.048,7c-1.149,0-2.213-.512-2.919-1.404-.374-.473-.609-1.021-.717-1.596H11.5v3H5.712Zm15.484-1.407c-.708,.894-1.768,1.407-2.908,1.407h-5.788v-3h9.422c-.112,.573-.35,1.12-.725,1.593Zm.77-2.593H12.5v-3h8.842l.557,2.44c.044,.186,.052,.373,.067,.56Zm-2.68-12h-6.786v-3h6.101l.685,3Z"/>
</svg>
