<?xml version="1.0" encoding="UTF-8"?>
<svg xmlns="http://www.w3.org/2000/svg" id="Layer_1" data-name="Layer 1" viewBox="0 0 24 24">
  <path d="M11.25,.04l2.902,5.482c-.25,.281-.461,.592-.636,.929l-2.266-4.285-2.171,4.079L3.034,2.845l3.844,5.871-4.203,2.072,4.044,1.786-1.512,4.119,3.958-1.36,2.175,4.065,1.66-3.246v2.196l-1.64,3.205-2.676-4.999-5.14,1.766,1.914-5.212L.313,10.837l5.11-2.519L-.046-.034,8.678,4.871,11.25,.04Zm12.75,16.96h-2v7h-1v-7h-3v7h-1v-7h-2V8.5c0-1.378,1.122-2.5,2.5-2.5h4c1.378,0,2.5,1.122,2.5,2.5v8.5Zm-1-8.5c0-.827-.673-1.5-1.5-1.5h-4c-.827,0-1.5,.673-1.5,1.5v7.5h7v-7.5Zm-6-6c0-1.378,1.122-2.5,2.5-2.5s2.5,1.122,2.5,2.5-1.122,2.5-2.5,2.5-2.5-1.122-2.5-2.5Zm1,0c0,.827,.673,1.5,1.5,1.5s1.5-.673,1.5-1.5-.673-1.5-1.5-1.5-1.5,.673-1.5,1.5Z"/>
</svg>
