<?xml version="1.0" encoding="UTF-8"?>
<svg xmlns="http://www.w3.org/2000/svg" id="Layer_1" data-name="Layer 1" viewBox="0 0 24 24">
  <path d="M18,6c0-3.309-2.691-6-6-6S6,2.691,6,6H0v15.5c0,1.379,1.121,2.5,2.5,2.5h6.647l-1.022-1H2.5c-.827,0-1.5-.673-1.5-1.5V7H6v4h1V7h10v4h1V7h5v14.5c0,.827-.673,1.5-1.5,1.5h-5.625l-1.022,1h6.647c1.379,0,2.5-1.121,2.5-2.5V6h-6Zm-11,0c0-2.757,2.243-5,5-5s5,2.243,5,5H7Zm10,11c0-1.336-.521-2.591-1.465-3.535-.944-.945-2.2-1.465-3.535-1.465s-2.592,.521-3.535,1.465c-.944,.944-1.465,2.199-1.465,3.535s.521,2.591,1.469,3.539l3.531,3.454,3.535-3.458c.944-.944,1.465-2.199,1.465-3.535Zm-5,5.595l-2.828-2.767c-.756-.755-1.172-1.76-1.172-2.828s.416-2.073,1.172-2.828c.755-.756,1.76-1.172,2.828-1.172s2.072,.416,2.828,1.172c.756,.755,1.172,1.76,1.172,2.828s-.416,2.073-1.168,2.824l-2.832,2.771Zm1-5.595c0,.552-.448,1-1,1s-1-.448-1-1,.448-1,1-1,1,.448,1,1Z"/>
</svg>
