<?xml version="1.0" encoding="UTF-8"?>
<svg xmlns="http://www.w3.org/2000/svg" id="Layer_1" data-name="Layer 1" viewBox="0 0 24 24">
  <path d="M19,6.5c.552,0,1,.448,1,1s-.448,1-1,1-1-.448-1-1,.448-1,1-1Zm-4,0c-.552,0-1,.448-1,1s.448,1,1,1,1-.448,1-1-.448-1-1-1Zm7,16.5h2v1H5.502C2.474,24,.007,21.538,.002,18.513-.006,13.967,.012,2.994,.012,2.994,.029,1.34,1.368,0,3.012,0c1.667,0,2.984,1.314,3,2.992,.047,4.999-.143,9.355-.556,13.034,1.253-2.184,3.223-4.3,6.305-5.446-1.008-.647-1.749-1.47-1.749-2.738,0-.958,.376-1.985,.989-2.944V1.677c0-.647,.362-1.225,.944-1.507,.583-.284,1.259-.21,1.769,.192l1.358,1.061c.649-.266,1.306-.423,1.934-.423s1.279,.155,1.926,.419l1.356-1.059c.507-.401,1.186-.474,1.767-.191,.582,.282,.944,.86,.944,1.507v3.201c.62,.965,1.002,1.999,1.002,2.963,0,.025-.033,.654-.118,.798-.439,1.516-2.113,2.283-3.748,3.023-.691,.313-1.406,.637-1.996,1.008-.349,.22-.741,.33-1.132,.33-.002,0-.005-.001-.007-.001,0,0,0,0,0,0,0,0,0,0-.001,0-.388-.002-.777-.11-1.123-.328-.59-.372-1.305-.696-1.997-1.009-.305-.138-.609-.28-.91-.424-5.081,1.46-7.207,5.678-8.086,8.716-.009,.047-.517,2.316-.576,2.865,.383,.106,.778,.181,1.194,.181h11.5l-.002-7h1l.002,7h2.998V13.467c.314-.142,.653-.298,1-.469v10.002Zm-.247-13.295c-1.305,.267-2.775,.293-3.255,.293-.542,0-1.068-.181-1.498-.508-.43,.327-.956,.508-1.498,.508-.483,0-2.02-.029-3.311-.341,.588,.402,1.331,.745,2.101,1.094,.605,.274,1.215,.565,1.781,.889,.145-.374,.503-.64,.927-.64,.427,0,.786,.271,.929,.648,.57-.327,1.185-.62,1.794-.896,.74-.335,1.453-.665,2.03-1.047Zm-3.255-3.703c-.431,0-.83,.184-1.122,.518l-.376,.43-.376-.429c-.292-.333-.691-.518-1.123-.518h-.007c-1.381,0-3.133,.822-3.904,1.591-.265,.264-.359,.468-.359,.571,.131,.403,2.327,.834,4.271,.834,.432,0,.83-.184,1.122-.518l.376-.431,.376,.431c.292,.334,.69,.518,1.122,.518,1.933,0,4.037-.375,4.448-.768,.017-.075,.026-.154,.033-.234-.346-.663-2.626-1.994-4.482-1.994Zm1.425-4.087c.752,.446,1.463,1.03,2.077,1.69V1.677c0-.261-.146-.494-.381-.607-.235-.115-.509-.084-.713,.078l-.983,.768Zm-2.916,.085c-2.147,0-4.869,2.31-5.721,4.533,1.025-.802,2.72-1.531,4.208-1.531,.575,.012,1.073,.181,1.505,.508,.431-.327,.956-.508,1.499-.508,1.221,0,2.967,.566,4.17,1.364-.921-2.17-3.568-4.366-5.66-4.366Zm-5.005,1.619c.615-.664,1.328-1.251,2.082-1.7l-.986-.77c-.208-.163-.481-.193-.715-.08-.235,.114-.381,.347-.381,.608v1.942Zm-6.987,1.382H1.009c-.001,.829-.003,1.862-.004,3h3.971c.025-.967,.036-1.973,.039-3ZM1.004,9c-.001,.969-.002,1.986-.003,3h3.799c.06-.962,.106-1.965,.141-3H1.004Zm-.003,4c0,1.046,0,2.066,0,3h3.454c.108-.952,.201-1.953,.278-3H1.001Zm.011-9.975c0,.099,0,.446-.002,.976H5.014c-.001-.335,.002-.659-.001-1-.01-1.122-.889-2.001-2-2.001C1.909,1,1.012,1.908,1.012,3.025ZM3.349,22.427c.081-.63,.241-1.572,.553-2.669,.161-.862,.302-1.787,.428-2.758H1c0,.554,0,1.064,.002,1.511,.003,1.693,.958,3.151,2.347,3.916Z"/>
</svg>
