<?xml version="1.0" encoding="UTF-8"?>
<svg xmlns="http://www.w3.org/2000/svg" id="Layer_1" data-name="Layer 1" viewBox="0 0 24 24">
  <path d="M11.604,7.604l-1.896,1.896,1.896,1.896-.707,.707-1.896-1.896-1.896,1.896-.707-.707,1.896-1.896-1.896-1.896,.707-.707,1.896,1.896,1.896-1.896,.707,.707Zm1.396,2.396h5v-1h-5v1Zm-2.104,3.896l-1.896,1.896-1.896-1.896-.707,.707,1.896,1.896-1.896,1.896,.707,.707,1.896-1.896,1.896,1.896,.707-.707-1.896-1.896,1.896-1.896-.707-.707Zm2.104,3.104h5v-1h-5v1ZM21,2V21.5c0,1.379-1.121,2.5-2.5,2.5H5.5c-1.379,0-2.5-1.121-2.5-2.5V2h5.05c.232-1.14,1.243-2,2.45-2h3c1.207,0,2.218,.86,2.45,2h5.05Zm-1,1h-5v-.5c0-.827-.673-1.5-1.5-1.5h-3c-.827,0-1.5,.673-1.5,1.5v.5H4V21.5c0,.827,.673,1.5,1.5,1.5h13c.827,0,1.5-.673,1.5-1.5V3Z"/>
</svg>
