<?xml version="1.0" encoding="UTF-8"?>
<svg xmlns="http://www.w3.org/2000/svg" id="Layer_1" data-name="Layer 1" viewBox="0 0 24 24">
  <path d="M23.954,.753L.753,23.953l-.707-.707L23.247,.046l.707,.707ZM4.563,13.729l-2.417,2.418,.707,.707,3.111-3.111-.354-.354c-1.039-1.039-1.611-2.42-1.611-3.889s.572-2.85,1.611-3.889c2.145-2.145,5.634-2.145,7.778,0l.354,.354,3.111-3.111-.707-.707-2.417,2.417c-1.078-.925-2.391-1.414-3.729-1.516V0h-1V3.04c-1.335,.102-2.632,.622-3.709,1.544L2.854,2.146l-.707,.707,2.421,2.421c-.903,1.05-1.438,2.343-1.543,3.724L.002,8.987l-.004,1,3.046,.011c.105,1.381,.617,2.68,1.52,3.73Zm18.512-3.371l.767-.364-.69-.494c-1.104-.791-2.367-1.265-3.692-1.425l-.927,.927c1.18,.006,2.324,.304,3.349,.874-2.079,1.318-3.382,3.636-3.382,6.124s1.303,4.806,3.382,6.123c-1.035,.576-2.189,.877-3.382,.877-3.849,0-6.98-3.123-6.998-6.967l-.937,.937c.481,3.954,3.853,7.03,7.935,7.03,1.675,0,3.284-.519,4.653-1.5l.689-.494-.766-.363c-2.172-1.033-3.576-3.247-3.576-5.643s1.404-4.61,3.576-5.642Z"/>
</svg>
