<?xml version="1.0" encoding="UTF-8"?>
<svg xmlns="http://www.w3.org/2000/svg" id="Layer_1" data-name="Layer 1" viewBox="0 0 24 24">
  <path d="m23.957,23l-.429-4h-3.388l-.217-2h3.391l-.429-4h-3.397l-.217-2h3.4l-.429-4h-3.405l-.217-2h3.408l-.429-4h-3.413l-.109-1h-3.018l.109,1h-6.331l.109-1h-3.018l-.109,1h-3.413l-.429,4h3.408l-.217,2H1.76l-.429,4h3.399l-.217,2H1.116l-.429,4h3.391l-.217,2H.473L.043,23h3.383l-.109,1h3.018l.109-1h11.113l.109,1h3.018l-.109-1h3.383Zm-1.328-3l.214,2h-2.378l-.217-2h2.381Zm-.644-6l.214,2h-2.387l-.217-2h2.39Zm-.644-6l.214,2h-2.395l-.217-2h2.398Zm-.644-6l.214,2h-2.403l-.217-2h2.406Zm-12.624,6h7.852l.217,2H7.857l.217-2Zm-.978,9h9.808l.217,2H6.878l.217-2Zm.109-1l.217-2h9.156l.217,2H7.204Zm.326-3l.217-2h8.504l.217,2H7.53Zm.652-6l.217-2h7.2l.217,2h-7.635Zm7.091-5l.217,2h-6.983l.217-2h6.548ZM3.088,4l.214-2h2.406l-.217,2h-2.403Zm-.644,6l.214-2h2.398l-.217,2h-2.395Zm-.644,6l.214-2h2.39l-.217,2H1.8Zm-.644,6l.214-2h2.381l-.217,2H1.157Zm3.275,1L6.823,1h1.006l-2.392,22h-1.006Zm2.121-1l.217-2h10.461l.217,2H6.552Zm12.01,1L16.171,1h1.006l2.392,22h-1.006Z"/>
</svg>
