<?xml version="1.0" encoding="UTF-8"?>
<svg xmlns="http://www.w3.org/2000/svg" id="Layer_1" data-name="Layer 1" viewBox="0 0 24 24">
  <path d="M13,11v1c0,.551-.448,1-1,1s-1-.449-1-1v-1H0v1c0,6.617,5.383,12,12,12s12-5.383,12-12v-1H13Zm-1,3c1.103,0,2-.897,2-2h3c0,2.757-2.243,5-5,5s-5-2.243-5-5h3c0,1.103,.897,2,2,2Zm0,9c-6.065,0-11-4.935-11-11H6c0,3.309,2.691,6,6,6s6-2.691,6-6h5c0,6.065-4.935,11-11,11ZM8,6c.768,0,1.469-.29,2-.766v.766c0,1.103-.897,2-2,2h-2v1h2c1.654,0,3-1.346,3-3V3c0-1.654-1.346-3-3-3s-3,1.346-3,3,1.346,3,3,3Zm0-5c1.103,0,2,.897,2,2s-.897,2-2,2-2-.897-2-2,.897-2,2-2Zm7,8c1.654,0,3-1.346,3-3V3c0-1.654-1.346-3-3-3s-3,1.346-3,3v3c0,1.654,1.346,3,3,3Zm-2-6c0-1.103,.897-2,2-2s2,.897,2,2v3c0,1.103-.897,2-2,2s-2-.897-2-2V3Zm9.991,4.312c.067-.338-.229-.652-.795-.837-.051-.019-.901-.329-1.331-.546-.637-.364-.936-.935-.839-1.544,.101-.62,.587-1.118,1.269-1.3,.785-.209,1.593-.03,2.4,.538l-.576,.817c-.568-.4-1.065-.523-1.566-.39-.296,.079-.502,.268-.539,.493-.038,.242,.149,.406,.314,.501,.301,.15,.966,.401,1.195,.485,1.272,.417,1.578,1.327,1.448,1.978-.174,.864-1.06,1.491-2.106,1.491-.69,0-1.649-.344-2.183-.782l.635-.772c.319,.262,1.033,.555,1.548,.555,.563,0,1.047-.295,1.126-.688Z"/>
</svg>
