<?xml version="1.0" encoding="UTF-8"?>
<svg xmlns="http://www.w3.org/2000/svg" id="Layer_1" data-name="Layer 1" viewBox="0 0 24 24">
  <path d="m10,11v-6.393c0-.789-.535-1.471-1.244-1.587-.452-.07-.886.046-1.227.336-.337.286-.529.703-.529,1.144v12.675l-3.449-2.745c-.321-.299-.688-.432-1.103-.429-.399.014-.77.182-1.043.475-.565.604-.534,1.556.069,2.121h-.001s.004.003.006.005l6.737,6.495-.519.89L.786,17.322s-.002-.003-.003-.004c-.997-.943-1.047-2.522-.108-3.526.939-1.005,2.521-1.06,3.529-.119l1.796,1.429V4.5c0-.734.321-1.429.882-1.905.559-.476,1.305-.681,2.034-.561.405.066.771.244,1.084.492v-.026c0-1.379,1.121-2.5,2.5-2.5,1.077,0,1.989.688,2.34,1.645.443-.396,1.021-.645,1.66-.645,1.379,0,2.5,1.121,2.5,2.5v.026c.313-.248.679-.426,1.084-.492.731-.118,1.476.085,2.035.561.56.477.881,1.171.881,1.905v7.5h0v5.324l-1-1.714v-3.609s0,0,0,0v-7.499c0-.44-.192-.857-.529-1.144-.341-.29-.774-.407-1.227-.336-.709.116-1.244.798-1.244,1.587v5.393h-1V3.5c0-.827-.673-1.5-1.5-1.5s-1.5.673-1.5,1.5v7.5h-1V2.5c0-.827-.673-1.5-1.5-1.5s-1.5.673-1.5,1.5v8.5h-1Zm9.5,13h4.495l-6.995-11.992-6.995,11.992h4.495v-1h-2.755l5.255-9.008,5.255,9.008h-2.755v1Zm-2-7h-1v4h1v-4Zm-.5,5c-.552,0-1,.448-1,1s.448,1,1,1,1-.448,1-1-.448-1-1-1Z"/>
</svg>
