<?xml version="1.0" encoding="UTF-8"?>
<svg xmlns="http://www.w3.org/2000/svg" id="Layer_1" data-name="Layer 1" viewBox="0 0 24 24">
  <path d="m20.114,17.993c3.876-4.628,3.886-8.996,3.886-10.493,0-5.153-3.629-7.5-7-7.5C11.037,0,6,4.579,6,10c0,3.309,2.691,6,6,6s6-2.691,6-6c0-2.582-1.151-4.965-2.992-6.762-.377.088-.747.193-1.102.328,1.893,1.649,3.094,3.94,3.094,6.434,0,2.757-2.243,5-5,5s-5-2.243-5-5C7,5.121,11.579,1,17,1c2.986,0,6,2.01,6,6.54,0,1.36-.009,5.417-3.596,9.743l-.343-.343c-.584-.584-1.537-.584-2.121,0s-.585,1.536,0,2.121l.396.396-3.579,3.579.707.707,3.579-3.579.397.397c.292.292.677.438,1.061.438s.769-.146,1.061-.438c.585-.585.585-1.536,0-2.121l-.446-.446Zm-.261,1.86c-.195.195-.512.195-.707,0l-1.5-1.5c-.195-.195-.195-.512,0-.707.098-.098.226-.146.354-.146s.256.049.354.146l1.5,1.5c.195.195.195.512,0,.707Zm-12.793-.793c.585-.585.585-1.536,0-2.121s-1.537-.584-2.121,0l-.343.343C1.009,12.957,1,8.899,1,7.5,1,3.01,4.014,1,7,1c.475,0,.941.042,1.401.104.351-.291.717-.565,1.099-.82-.807-.178-1.642-.283-2.5-.283C3.629,0,0,2.347,0,7.54c0,1.458.009,5.825,3.886,10.453l-.446.446c-.585.585-.585,1.536,0,2.121.292.292.677.438,1.061.438s.769-.146,1.061-.438l.397-.397,3.579,3.579.707-.707-3.579-3.579.396-.396Zm-2.914.793c-.195-.195-.195-.512,0-.707l1.5-1.5c.098-.098.226-.146.354-.146s.256.049.354.146c.195.195.195.512,0,.707l-1.5,1.5c-.195.195-.512.195-.707,0Z"/>
</svg>
