<?xml version="1.0" encoding="UTF-8"?>
<svg xmlns="http://www.w3.org/2000/svg" id="Layer_1" data-name="Layer 1" viewBox="0 0 24 24">
  <path d="m12,4c1.103,0,2-.897,2-2s-.897-2-2-2-2,.897-2,2,.897,2,2,2Zm0-3c.551,0,1,.449,1,1s-.449,1-1,1-1-.449-1-1,.449-1,1-1Zm10,18h-4.5c-.366,0-.705.106-1,.278v-1.278c0-1.103-.897-2-2-2h-.5v-4h1v-6.308L19.372.834l-.744-.669-4.351,4.834h-4.555L5.372.166l-.743.669,4.372,4.857v6.308h1v4h-.5c-1.103,0-2,.897-2,2v.278c-.295-.172-.634-.278-1-.278H2c-1.103,0-2,.897-2,2v4h24v-3c0-1.103-.897-2-2-2Zm-12-8v-5h4v5h-4Zm1,1h2v4h-2v-4ZM1,20c0-.552.449-1,1-1h4.5c.551,0,1,.448,1,1v3H1v-3Zm7.5-2c0-.552.449-1,1-1h5c.552,0,1,.448,1,1v5h-7v-5Zm14.5,5h-6.5v-2c0-.552.448-1,1-1h4.5c.552,0,1,.448,1,1v2Z"/>
</svg>
