<?xml version="1.0" encoding="UTF-8"?>
<svg xmlns="http://www.w3.org/2000/svg" id="Layer_1" data-name="Layer 1" viewBox="0 0 24 24">
  <path d="M23.991,13.408L21.841,1.946c-.26-1.146-1.263-1.946-2.438-1.946H4.597c-1.133,0-2.181,.835-2.442,1.964L.009,13.408l-.009,10.592H24l-.009-10.592Zm-3.129-11.259l2.044,10.851h-1.977l-.929-6V1.136c.425,.184,.756,.547,.862,1.013Zm-1.857,3.851H5V1h14l.004,5Zm-14.005,1h14.006v.076s.911,5.924,.911,5.924H4.082l.918-6ZM3.133,2.169c.107-.461,.447-.83,.867-1.023l.005,5.777-.935,6.076H1.102L3.133,2.169ZM1,23V14H23v9H1Zm8-5h6v1h-6v-1Z"/>
</svg>
