<?xml version="1.0" encoding="UTF-8"?>
<svg xmlns="http://www.w3.org/2000/svg" id="Layer_1" data-name="Layer 1" viewBox="0 0 24 24">
  <path d="M16.945,13.247l6.075-2.955-.438-.899-6.146,2.99-3.73,3.571-5.33-5.954h7.124v-1H5.5v.01c-.563-.022-1.134,.145-1.604,.523-.517,.416-.831,1.008-.888,1.668-.056,.66,.154,1.297,.591,1.793l4.529,5.179c.458,.507,1.085,.8,1.767,.824,.031,0,.062,.002,.095,.002,.642,0,1.248-.242,1.718-.69l5.237-5.062Zm-7.014,4.752c-.409-.016-.785-.191-1.056-.489l-4.525-5.175c-.256-.29-.378-.663-.345-1.048,.032-.386,.217-.732,.519-.975,.259-.209,.57-.311,.882-.311,.382,0,.762,.155,1.036,.456l5.545,6.193-.972,.939c-.294,.279-.662,.43-1.084,.41Zm14.068,1.001v1H0v-1H24ZM3.5,8c1.379,0,2.5-1.122,2.5-2.5s-1.121-2.5-2.5-2.5-2.5,1.122-2.5,2.5,1.121,2.5,2.5,2.5Zm0-4c.827,0,1.5,.673,1.5,1.5s-.673,1.5-1.5,1.5-1.5-.673-1.5-1.5,.673-1.5,1.5-1.5Z"/>
</svg>
