<?xml version="1.0" encoding="UTF-8"?>
<svg xmlns="http://www.w3.org/2000/svg" id="Layer_1" data-name="Layer 1" viewBox="0 0 24 24">
  <path d="M11,23h1v1h-1C4.935,24,0,19.065,0,13H1c0,5.514,4.486,10,10,10ZM12,1c3.164,0,5.842,2.112,6.705,5h-4.705v1h4.92c.047,.328,.08,.66,.08,1v1.5h-5v1h5v1.5c0,.551-.084,1.086-.208,1.609l.902,.507c.187-.684,.305-1.389,.305-2.117v-4C20,3.589,16.411,0,12,0S4,3.589,4,8v4c0,4.411,3.589,8,8,8v-1c-3.164,0-5.842-2.112-6.705-5h4.705v-1H5.08c-.047-.328-.08-.66-.08-1v-1.5h5v-1H5v-1.5c0-.34,.033-.672,.08-1h4.92v-1H5.295c.863-2.888,3.541-5,6.705-5Zm2,11.992l9.731,5.474-9.731,5.473V12.992Zm1,9.237l6.692-3.763-6.692-3.764v7.527Zm9-9.229h-1c0,.956-.143,1.878-.395,2.754l.901,.507c.321-1.031,.494-2.126,.494-3.261Z"/>
</svg>
