<?xml version="1.0" encoding="UTF-8"?>
<svg xmlns="http://www.w3.org/2000/svg" id="Layer_1" data-name="Layer 1" viewBox="0 0 24 24">
  <path d="m18.681,3.474l-3.474-3.474h-6.414l-3.474,3.474,6.681,7.794,6.681-7.794Zm-9.041.526l1.625,4.873-4.177-4.873h2.553Zm7.274,0l-4.177,4.873,1.625-4.873h2.553Zm-3.607,0l-1.306,3.919-1.306-3.919h2.612Zm-2.612-1l.667-2h1.279l.667,2h-2.612Zm6.099,0h-2.432l-.667-2h1.099l2,2Zm-7.586-2h1.099l-.667,2h-2.432l2-2Zm14.793,4.5v13.231c0,.618-.229,1.214-.645,1.676l-3.197,3.593h-1.344l3.799-4.263c.25-.277.387-.635.387-1.006V5.5c0-.827-.673-1.5-1.5-1.5s-1.5.673-1.5,1.5v9h-.007c0,.57-.19,1.14-.577,1.601l-3.099,3.205-.719-.695,3.075-3.179c.225-.268.333-.612.326-.957v-.01c-.01-.346-.136-.692-.382-.967-.267-.298-.634-.474-1.032-.496-.414-.019-.783.113-1.08.38l-3.858,3.55c.221.379.353.808.353,1.254v5.814h-1v-5.814c0-.418-.177-.82-.484-1.104l-4.026-3.703c-.293-.263-.675-.388-1.075-.376-.398.022-.766.198-1.032.496-.494.551-.508,1.394-.032,1.96l3.052,3.152-.719.695-3.075-3.179c-.399-.474-.594-1.053-.597-1.627h-.01V5.5c0-.827-.673-1.5-1.5-1.5s-1.5.673-1.5,1.5v13.231c0,.371.137.729.387,1.006l3.799,4.263h-1.344l-3.197-3.593c-.416-.462-.645-1.058-.645-1.676V5.5c0-1.378,1.121-2.5,2.5-2.5s2.5,1.122,2.5,2.5v6.997c.391-.294.86-.466,1.359-.493.669-.035,1.306.188,1.803.633l3.838,3.531,3.833-3.526c.502-.45,1.142-.679,1.808-.638.5.027.969.199,1.359.494v-6.997c0-1.378,1.121-2.5,2.5-2.5s2.5,1.122,2.5,2.5Z"/>
</svg>
