<?xml version="1.0" encoding="UTF-8"?>
<svg xmlns="http://www.w3.org/2000/svg" id="Layer_1" data-name="Layer 1" viewBox="0 0 24 24">
  <path d="m9.5,9c2.236,0,4.5-.687,4.5-2,0-2.627-9-2.627-9,0,0,1.313,2.264,2,4.5,2Zm0-3c2.273,0,3.5.71,3.5,1s-1.227,1-3.5,1-3.5-.71-3.5-1,1.227-1,3.5-1Zm9.5,6v-5c0-3.309-4.262-6-9.5-6C4.529,1,.445,3.425.04,6.5h-.04v11.286c0,2.924,3.901,5.214,8.881,5.214h15.119v-11h-5Zm-1,0h-3.26c1.387-.582,2.513-1.389,3.26-2.336v2.336ZM9.5,2c4.687,0,8.5,2.243,8.5,5s-3.813,5-8.5,5S1,9.757,1,7,4.813,2,9.5,2Zm13.5,20h-3v-5h-1v5h-3v-5h-1v5h-3v-5h-1v5h-2.119c-.298,0-.591-.011-.881-.03v-4.97h-1v4.868c-3.398-.465-6-2.143-6-4.082v-8.123c1.557,1.974,4.777,3.336,8.5,3.336h13.5v9Z"/>
</svg>
