<?xml version="1.0" encoding="UTF-8"?>
<svg xmlns="http://www.w3.org/2000/svg" id="Layer_1" data-name="Layer 1" viewBox="0 0 24 24">
  <path d="M12,10c-1.103,0-2,.897-2,2s.897,2,2,2,2-.897,2-2-.897-2-2-2Zm0,3c-.551,0-1-.449-1-1s.449-1,1-1,1,.449,1,1-.449,1-1,1Zm-3.707-4L.06,.767,.767,.06,8.989,8.282l.011-5.283,1,.002-.012,5.512c0,.82-.667,1.487-1.488,1.487H3v-1h5.293Zm5.719-.488l-.012-5.511,1-.002,.011,5.283L23.233,.06l.707,.707L15.707,9h5.293v1h-5.5c-.821,0-1.488-.667-1.488-1.488Zm-4.012,6.988v5.5h-1v-5.293L.752,23.954l-.707-.707L8.282,15.011l-5.283-.011,.002-1,5.512,.012c.82,0,1.487,.668,1.487,1.488Zm13.238,8.445L15.011,15.718l-.011,5.283-1-.002,.012-5.512c0-.819,.667-1.487,1.488-1.487h5.5v1h-5.293l8.238,8.238-.707,.707Z"/>
</svg>
