<?xml version="1.0" encoding="UTF-8"?>
<svg xmlns="http://www.w3.org/2000/svg" id="Layer_1" data-name="Layer 1" viewBox="0 0 24 24">
  <path d="m12.5,4h-1V0h1v4Zm0,16h-1v4h1v-4ZM4,11.5H0v1h4v-1Zm20,0h-4v1h4v-1Zm-1.377,6.097l-3.458-2.01-.502.865,3.458,2.01.502-.865ZM18.459,1.875l-.865-.502-2.01,3.459.865.502,2.01-3.459Zm4.172,4.515l-.504-.863-3.455,2.014.504.863,3.455-2.014Zm-4.146,15.727l-2.014-3.456-.863.504,2.014,3.456.863-.504Zm-13.132-5.664l-.502-.865-3.459,2.01.502.865,3.459-2.01Zm3.079-11.62l-2.01-3.459-.865.502,2.01,3.459.865-.502Zm-3.088,2.708l-3.456-2.014-.504.863,3.456,2.014.504-.863Zm3.063,11.624l-.863-.504-2.015,3.456.863.504,2.015-3.456Z"/>
</svg>
