<?xml version="1.0" encoding="UTF-8"?>
<svg xmlns="http://www.w3.org/2000/svg" id="Layer_1" data-name="Layer 1" viewBox="0 0 24 24">
  <path d="m23.409,14.091c.786.787.786,2.068,0,2.855l-6.38,6.027c-.684.684-1.585,1.025-2.488,1.025-.906,0-1.813-.344-2.505-1.035-.668-.668-1.036-1.556-1.036-2.501s.368-1.833,1.036-2.501l5.62-5.324.688.726-5.61,5.314c-.47.47-.733,1.107-.733,1.785s.264,1.315.743,1.794c.991.991,2.6.989,3.589,0l6.38-6.027c.387-.387.387-1.034-.01-1.431-.385-.385-1.057-.384-1.441,0l-6.38,6.027-.688-.727,6.37-6.018c.741-.743,2.081-.754,2.846.01Zm.591-11.591v9.571c-.312-.178-.647-.314-1-.405V2.883l-7.799,7.799c-.851.851-1.98,1.318-3.182,1.318-.018,0-.03,0-.044,0-1.196,0-2.326-.467-3.177-1.318L1,2.883v15.117h8.602c-.16.321-.288.654-.382,1H0V2.5C0,1.122,1.121,0,2.5,0h19c1.379,0,2.5,1.122,2.5,2.5Zm-1.234-.797c-.266-.421-.732-.703-1.266-.703H2.5c-.534,0-1,.282-1.266.703l8.272,8.272c.666.665,1.53,1.049,2.492,1.025h.017c.939,0,1.817-.364,2.479-1.025L22.766,1.703Z"/>
</svg>
