<?xml version="1.0" encoding="UTF-8"?>
<svg xmlns="http://www.w3.org/2000/svg" id="Layer_1" data-name="Layer 1" viewBox="0 0 24 24">
  <path d="M22.496,13.344l-.458-.344,.458-.343c.956-.719,1.504-1.779,1.504-2.908,0-2.102-1.757-3.749-4-3.749-.586,0-1.153,.147-1.704,.391,.43-.791,.704-1.588,.704-2.391,0-2.243-1.646-4-3.749-4-1.129,0-2.188,.548-2.908,1.505l-.342,.457-.344-.458c-.719-.956-1.778-1.503-2.906-1.503-2.104,0-3.751,1.757-3.751,4,0,.803,.279,1.602,.717,2.396-.555-.248-1.127-.396-1.717-.396C1.757,6,0,7.647,0,9.749c0,1.129,.548,2.188,1.505,2.908l.457,.343-.458,.344c-.956,.719-1.504,1.778-1.504,2.906,0,2.103,1.757,3.75,4,3.75,2.842,0,4.749-2.365,6.432-4.453,.347-.43,.684-.846,1.019-1.234,.032,2.331,.644,7.047,4.785,9.612l.527-.85c-3.739-2.316-4.273-6.76-4.304-8.863,.365,.417,.731,.866,1.109,1.334,1.683,2.088,3.59,4.453,6.432,4.453,2.243,0,4-1.647,4-3.75,0-1.128-.548-2.188-1.504-2.906ZM8.751,1c.811,0,1.579,.403,2.106,1.104l1.144,1.523,1.142-1.522c.528-.703,1.297-1.105,2.108-1.105,1.542,0,2.749,1.318,2.749,3,0,1.401-1.092,2.913-2.454,4.427-.49,.485-2.967,3.113-3.539,3.781-.579-.693-2.983-3.202-3.127-3.352-1.511-1.627-2.88-3.344-2.88-4.856,0-1.682,1.208-3,2.751-3Zm.902,13.92c-1.617,2.006-3.29,4.08-5.653,4.08-1.683,0-3-1.208-3-2.75,0-.811,.403-1.579,1.104-2.107l1.523-1.144-1.522-1.141c-.702-.529-1.105-1.297-1.105-2.109,0-1.542,1.317-2.749,3-2.749,1.428,0,2.851,1.179,4.186,2.579,.135,.145,2.576,2.886,3.104,3.422-.553,.575-1.082,1.231-1.637,1.919Zm10.347,4.08c-2.363,0-4.036-2.074-5.653-4.08-.555-.688-1.084-1.344-1.637-1.919,.528-.536,3.145-3.419,3.615-3.945,1.184-1.159,2.428-2.056,3.675-2.056,1.683,0,3,1.208,3,2.749,0,.812-.403,1.58-1.104,2.108l-1.523,1.142,1.522,1.144c.702,.528,1.105,1.297,1.105,2.107,0,1.542-1.317,2.75-3,2.75Z"/>
</svg>
