<?xml version="1.0" encoding="UTF-8"?>
<svg xmlns="http://www.w3.org/2000/svg" id="Layer_1" data-name="Layer 1" viewBox="0 0 24 24">
  <path d="m8,13h-1v-2.5c0-1.378,1.122-2.5,2.5-2.5h5c1.379,0,2.5,1.122,2.5,2.5v2.5h-1v-2.5c0-.827-.673-1.5-1.5-1.5h-5c-.827,0-1.5.673-1.5,1.5v2.5Zm.5-9.5c0-1.93,1.57-3.5,3.5-3.5s3.5,1.57,3.5,3.5-1.57,3.5-3.5,3.5-3.5-1.57-3.5-3.5Zm1,0c0,1.378,1.122,2.5,2.5,2.5s2.5-1.122,2.5-2.5-1.121-2.5-2.5-2.5-2.5,1.122-2.5,2.5Zm6.5,14.5h-2.683l-.92-2.626h-.794l-.92,2.626h-2.683v.795l1.861,1.5-.7,2.343.618.502,2.221-1.44,2.221,1.44.625-.48-.707-2.365,1.861-1.5v-.795Zm-3.011,1.938l.449,1.502-1.438-.933-1.438.933.449-1.502-1.164-.938h1.544l.608-1.735.608,1.735h1.544l-1.164.938Zm11.011-4.938h-2.683l-.92-2.626h-.794l-.92,2.626h-2.683v.795l1.861,1.5-.7,2.343.618.502,2.221-1.44,2.221,1.44.625-.48-.707-2.365,1.861-1.5v-.795Zm-3.011,1.938l.449,1.502-1.438-.933-1.438.933.449-1.502-1.164-.938h1.544l.608-1.735.608,1.735h1.544l-1.164.938Zm-12.989-1.938h-2.683l-.92-2.626h-.794l-.92,2.626H0v.795l1.861,1.5-.7,2.343.618.502,2.221-1.44,2.221,1.44.625-.48-.707-2.365,1.861-1.5v-.795Zm-3.011,1.938l.449,1.502-1.438-.933-1.438.933.449-1.502-1.164-.938h1.544l.608-1.735.608,1.735h1.544l-1.164.938Z"/>
</svg>
