<?xml version="1.0" encoding="UTF-8"?>
<svg xmlns="http://www.w3.org/2000/svg" id="Layer_1" data-name="Layer 1" viewBox="0 0 24 24">
  <path d="M12,0C5.383,0,0,5.383,0,12s5.383,12,12,12,12-5.383,12-12S18.617,0,12,0Zm0,18c-3.309,0-6-2.691-6-6s2.691-6,6-6,6,2.691,6,6-2.691,6-6,6ZM5.546,9.291l-3.468-2.009c.289-.606,.63-1.181,1.021-1.719l3.48,2.016c-.421,.515-.771,1.091-1.033,1.713Zm.902,6.955l-3.48,2.016c-.38-.546-.708-1.129-.985-1.74l3.486-2.02c.243,.631,.573,1.216,.978,1.744ZM17.421,7.579l3.48-2.016c.391,.539,.732,1.114,1.021,1.719l-3.468,2.009c-.262-.622-.612-1.197-1.033-1.713Zm1.109,6.924l3.486,2.02c-.277,.612-.605,1.194-.985,1.74l-3.48-2.016c.405-.528,.735-1.114,.978-1.744Zm.299-.983c.109-.49,.171-.997,.171-1.52,0-.601-.084-1.181-.227-1.737l3.541-2.052c.436,1.183,.687,2.456,.687,3.789,0,1.256-.222,2.458-.611,3.583l-3.56-2.063Zm1.442-8.748l-3.562,2.064c-.768-.701-1.688-1.235-2.708-1.541V1.191c2.483,.459,4.671,1.753,6.271,3.58ZM13,1.051V5.08c-.328-.047-.66-.08-1-.08s-.672,.033-1,.08V1.051c.33-.03,.662-.051,1-.051s.67,.021,1,.051Zm-3,.14V5.295c-1.021,.305-1.941,.84-2.708,1.541l-3.562-2.064c1.599-1.828,3.788-3.122,6.271-3.58ZM1.687,8.211l3.541,2.052c-.143,.557-.227,1.137-.227,1.737,0,.522,.062,1.03,.171,1.52l-3.56,2.063c-.389-1.125-.611-2.327-.611-3.583,0-1.333,.25-2.606,.687-3.789Zm1.894,10.854l3.543-2.053c.799,.778,1.781,1.366,2.876,1.693v4.104c-2.558-.473-4.809-1.828-6.42-3.744Zm7.42,3.885v-4.029c.328,.047,.66,.08,1,.08s.672-.033,1-.08v4.029c-.33,.03-.662,.051-1,.051s-.67-.021-1-.051Zm3-.14v-4.104c1.095-.327,2.077-.916,2.876-1.693l3.543,2.053c-1.611,1.916-3.861,3.272-6.42,3.744Z"/>
</svg>
