<?xml version="1.0" encoding="UTF-8"?>
<svg xmlns="http://www.w3.org/2000/svg" id="Layer_1" data-name="Layer 1" viewBox="0 0 24 24">
  <path d="m23.181,9.655c-.496-.452-1.141-.675-1.809-.652-.67.032-1.288.322-1.739.818l-3.732,4.102c-.314-1.108-1.335-1.923-2.543-1.923H2.5c-1.378,0-2.5,1.121-2.5,2.5v7c0,1.379,1.122,2.5,2.5,2.5h11.225l9.638-10.817c.912-1.022.831-2.604-.182-3.528Zm-.564,2.862l-9.341,10.483H2.5c-.827,0-1.5-.673-1.5-1.5v-7c0-.827.673-1.5,1.5-1.5h10.857c.905,0,1.643.737,1.643,1.643,0,.812-.605,1.511-1.403,1.624l-5.661.737.129.992,5.667-.738c1.021-.146,1.845-.878,2.146-1.823l4.496-4.941c.271-.298.643-.473,1.046-.492.403-.02.79.12,1.088.393.609.555.658,1.507.109,2.123ZM14,.361l-3.215,3.199L8,.219l-2.785,3.341L2,.361v9.639h12V.361Zm-1,8.639H3V2.767l2.285,2.273,2.715-3.259,2.715,3.259,2.285-2.273v6.233Z"/>
</svg>
