<?xml version="1.0" encoding="UTF-8"?>
<svg xmlns="http://www.w3.org/2000/svg" id="Layer_1" data-name="Layer 1" viewBox="0 0 24 24">
  <path d="m22.487,18c0-.274-.03-.551-.094-.85l1.526-.897-1.521-2.586-1.516.892c-.408-.34-.882-.606-1.396-.786v-1.771h-3v1.771c-.515.18-.988.446-1.396.786l-1.516-.892-1.521,2.586,1.526.897c-.063.299-.094.576-.094.85s.03.551.094.85l-1.526.897,1.521,2.586,1.516-.892c.408.34.882.606,1.396.786v1.771h3v-1.771c.515-.18.988-.446,1.396-.786l1.516.892,1.521-2.586-1.526-.897c.063-.299.094-.576.094-.85Zm.063,2.103l-.507.862-1.331-.796c-.543.68-1.325,1.15-2.225,1.281v1.551h-1v-1.551c-.895-.13-1.673-.595-2.216-1.269l-1.341.784-.507-.862,1.328-.776c-.169-.41-.265-.857-.265-1.327,0-.464.095-.906.26-1.312l-1.324-.791.507-.862,1.331.796c.543-.68,1.325-1.15,2.225-1.281v-1.551h1v1.551c.903.131,1.687.603,2.23,1.286l1.327-.802.507.862-1.321.798c.163.404.258.843.258,1.305,0,.465-.095.906-.26,1.312l1.324.791Zm-4.563-4.103c-1.103,0-2,.897-2,2s.897,2,2,2,2-.897,2-2-.897-2-2-2Zm0,3c-.552,0-1-.449-1-1s.448-1,1-1,1,.449,1,1-.448,1-1,1Zm-7.487-7c.612,0,1.162.249,1.565.649-.226.251-.44.512-.633.79-.229-.264-.556-.439-.932-.439-.689,0-1.25.561-1.25,1.25,0,.122.044.563.338,2.159l.109.591h-3.197s0,0-.001,0c-1.378,0-2.499-1.121-2.499-2.5v-1.998c-1.238.22-1.593.248-1.75.248-1.241,0-2.25-1.01-2.25-2.25s1.009-2.25,2.25-2.25c.157,0,.512.028,1.75.248v-1.998c0-1.379,1.122-2.5,2.5-2.5h1.998c-.219-1.239-.248-1.594-.248-1.75,0-1.24,1.009-2.25,2.25-2.25s2.25,1.01,2.25,2.25c0,.169-.031.525-.248,1.75h1.998c1.378,0,2.5,1.121,2.5,2.5h0v3.569c-.341.043-.674.109-1,.193v-3.762s0,0,0,0c0-.827-.673-1.5-1.5-1.5h-3.197l.109-.591c.294-1.598.338-2.038.338-2.159,0-.689-.561-1.25-1.25-1.25s-1.25.561-1.25,1.25c0,.122.044.563.338,2.159l.109.591h-3.197c-.827,0-1.5.673-1.5,1.5v3.197l-.591-.109c-1.654-.305-2.061-.338-2.159-.338-.689,0-1.25.561-1.25,1.25s.561,1.25,1.25,1.25c.098,0,.505-.033,2.159-.338l.591-.109v3.197c0,.827.673,1.5,1.5,1.5h0s1.997,0,1.997,0c-.219-1.239-.248-1.594-.248-1.75,0-1.24,1.009-2.25,2.25-2.25Z"/>
</svg>
