<?xml version="1.0" encoding="UTF-8"?>
<svg xmlns="http://www.w3.org/2000/svg" id="Layer_1" data-name="Layer 1" viewBox="0 0 24 24">
  <path d="m7,20c-1.103,0-2,.897-2,2s.897,2,2,2,2-.897,2-2-.897-2-2-2Zm0,3c-.551,0-1-.449-1-1s.449-1,1-1,1,.449,1,1-.449,1-1,1Zm17-1.5v2.5h-1v-2.5c0-.827-.673-1.5-1.5-1.5h-5c-.827,0-1.5.673-1.5,1.5v2.5h-1v-2.5c0-1.378,1.122-2.5,2.5-2.5h5c1.378,0,2.5,1.122,2.5,2.5Zm-5-9.5c-1.654,0-3,1.346-3,3s1.346,3,3,3,3-1.346,3-3-1.346-3-3-3Zm0,5c-1.103,0-2-.897-2-2s.897-2,2-2,2,.897,2,2-.897,2-2,2Zm-5.294,1c-.36.288-.687.616-.945,1h-5.021c-1.24,0-2.305-.927-2.476-2.156L3.245,2.294c-.103-.738-.742-1.294-1.486-1.294H0V0h1.759c1.24,0,2.305.927,2.476,2.156l.256,1.844h19.427l-1.478,7.388c-.268-.255-.568-.473-.887-.664l1.145-5.724H4.63l1.25,9h8.221c-.066.323-.101.658-.101,1h-7.982l.237,1.706c.103.738.742,1.294,1.486,1.294h5.965Z"/>
</svg>
