<?xml version="1.0" encoding="UTF-8"?>
<svg xmlns="http://www.w3.org/2000/svg" id="Layer_1" data-name="Layer 1" viewBox="0 0 24 24">
  <path d="m24,4.5v5.913c-.306-.33-.64-.632-1-.903v-5.01c0-.827-.673-1.5-1.5-1.5H2.5c-.827,0-1.5.673-1.5,1.5v12.5h10.151c.07.344.17.675.285,1h-7.436v6h-1v-6H0V4.5c0-1.379,1.122-2.5,2.5-2.5h.5V0h1v2h16V0h1v2h.5c1.379,0,2.5,1.121,2.5,2.5Zm-3.3,5.964l-.7-.307v3.343c0,.827-.673,1.5-1.5,1.5s-1.5-.673-1.5-1.5v-3.343l-.7.307c-2.005.877-3.3,2.854-3.3,5.036,0,2.075,1.167,3.964,3,4.9v3.6h1v-4.243l-.3-.131c-1.641-.718-2.7-2.337-2.7-4.126,0-1.516.765-2.911,2-3.736v1.736c0,1.379,1.121,2.5,2.5,2.5s2.5-1.121,2.5-2.5v-1.736c1.235.825,2,2.221,2,3.736,0,1.789-1.06,3.408-2.7,4.126l-.3.131v4.243h1v-3.6c1.833-.937,3-2.825,3-4.9,0-2.182-1.295-4.159-3.3-5.036Z"/>
</svg>
