<?xml version="1.0" encoding="UTF-8"?>
<svg xmlns="http://www.w3.org/2000/svg" id="Layer_1" data-name="Layer 1" viewBox="0 0 24 24">
  <path d="M20,9v-2h2V2h-1.191l1-2H4.5c-1.378,0-2.5,1.121-2.5,2.5V6.5c0,1.379,1.122,2.5,2.5,2.5h5.778l-2.26,6.026c-.218,.582-.783,.974-1.405,.974H1v-5H0v11H1v-5H6.614c1.036,0,1.977-.652,2.341-1.622l2.392-6.378h8.653Zm1-6v3h-1V3.618l.309-.618h.691ZM3,6.5V2.5c0-.827,.673-1.5,1.5-1.5h15.691l-1.191,2.382v4.618H4.5c-.827,0-1.5-.673-1.5-1.5Zm20.758,12.77c-.521-1.002-2.55-4.27-6.758-4.27s-6.236,3.268-6.758,4.269l-.121,.231,.121,.23c.521,1.002,2.55,4.27,6.758,4.27s6.236-3.268,6.758-4.269l.121-.231-.121-.23Zm-6.758,3.73c-3.37,0-5.137-2.44-5.746-3.501,.688-1.212,2.427-3.499,5.746-3.499s5.059,2.288,5.746,3.5c-.688,1.212-2.427,3.5-5.746,3.5Zm0-5.5c-1.103,0-2,.897-2,2s.897,2,2,2,2-.897,2-2-.897-2-2-2Zm0,3c-.551,0-1-.448-1-1s.449-1,1-1,1,.448,1,1-.449,1-1,1Z"/>
</svg>
