<?xml version="1.0" encoding="UTF-8"?>
<svg xmlns="http://www.w3.org/2000/svg" id="Layer_1" data-name="Layer 1" viewBox="0 0 24 24">
  <path d="m9.576,3.769l-.707-.707L11.528.403c.52-.52,1.425-.52,1.944,0l2.659,2.659-.707.707-2.424-2.424v8.655h-1V1.345l-2.424,2.424Zm-5.576.66v5.571h1v-5.571l2.424,2.424.707-.707-2.659-2.659c-.52-.52-1.425-.52-1.944,0L.869,6.146l.707.707,2.424-2.424Zm19.363,8.752l-9.639,10.818H2.5c-1.378,0-2.5-1.121-2.5-2.5v-7c0-1.379,1.122-2.5,2.5-2.5h10.858c1.208,0,2.229.814,2.542,1.923l3.732-4.102c.451-.496,1.069-.787,1.739-.818.666-.026,1.312.2,1.809.652,1.012.923,1.094,2.505.182,3.527Zm-.856-2.788c-.298-.272-.689-.414-1.088-.393-.403.019-.775.194-1.047.492l-4.495,4.941c-.301.945-1.124,1.678-2.146,1.823l-5.667.738-.129-.992,5.661-.737c.798-.113,1.404-.812,1.404-1.624,0-.905-.737-1.643-1.642-1.643H2.5c-.827,0-1.5.673-1.5,1.5v7c0,.827.673,1.5,1.5,1.5h10.776l9.34-10.483c.549-.615.5-1.567-.109-2.123Z"/>
</svg>
