<?xml version="1.0" encoding="UTF-8"?>
<svg xmlns="http://www.w3.org/2000/svg" id="Layer_1" data-name="Layer 1" viewBox="0 0 24 24">
  <path d="M24,12h0c0,.337-.016,.67-.043,1h-1.025c.032-.331,.068-.662,.068-1h0c0-6.066-4.935-11-11-11C7.485,1,3.395,3.807,1.756,8H6v1H1.5c-.827,0-1.5-.673-1.5-1.5V3H1V7.216C2.892,2.876,7.227,0,12,0c6.617,0,12,5.383,12,12h0Zm-8.299,7.321c.489-.457,.799-1.101,.799-1.821,0-1.378-1.121-2.5-2.5-2.5h-3v1h3c.827,0,1.5,.673,1.5,1.5s-.673,1.5-1.5,1.5h-2v1h2.5c.827,0,1.5,.673,1.5,1.5s-.673,1.5-1.5,1.5h-3.5v1h3.5c1.379,0,2.5-1.122,2.5-2.5,0-.941-.529-1.752-1.299-2.179Zm-3.701-13.821h-1v6.5H5.5v1h6.5V5.5Zm12,12.5v3c0,1.654-1.346,3-3,3s-3-1.346-3-3v-3c0-1.654,1.346-3,3-3s3,1.346,3,3Zm-1,0c0-1.103-.897-2-2-2s-2,.897-2,2v3c0,1.103,.897,2,2,2s2-.897,2-2v-3ZM1,12H0c0,5.579,3.833,10.268,9,11.605v-1.032C4.39,21.263,1,17.025,1,12Z"/>
</svg>
