<?xml version="1.0" encoding="UTF-8"?>
<svg xmlns="http://www.w3.org/2000/svg" id="Layer_1" data-name="Layer 1" viewBox="0 0 24 24">
  <path d="m8.5,11c2.481,0,4.5-2.019,4.5-4.5s-2.019-4.5-4.5-4.5-4.5,2.019-4.5,4.5,2.019,4.5,4.5,4.5Zm0-8c1.93,0,3.5,1.57,3.5,3.5s-1.57,3.5-3.5,3.5-3.5-1.57-3.5-3.5,1.57-3.5,3.5-3.5Zm3.5,13h1v8h-1v-8ZM20.5,0c-1.082,1.159,0,3-1,3-.582,0-.5-1.5-.5-1.5-.667.5-1.222,1.217-1.222,2,0,.601.21,1.44,1.013,2.231l.726,5.933-2.757,1.336H5c-1.654,0-3,1.346-3,3v8h1v-8c0-1.103.897-2,2-2h11.99l4.124-2h.328l.763-6.237c.421-.478,1.017-1.184,1.017-2.263,0-1.576-1.863-2.64-2.722-3.5Zm.058,11h-.115l-.612-5h1.34l-.612,5Zm.991-6.004l-2.104-.018c-.413-.423-.583-.838-.641-1.179.208.131.447.201.697.201.52,0,.849-.223,1.033-.411.457-.465.446-1.083.437-1.628-.001-.083-.002-.161-.002-.237.647.553,1.255,1.157,1.255,1.776,0,.649-.335,1.104-.674,1.496Z"/>
</svg>
