<?xml version="1.0" encoding="UTF-8"?>
<svg xmlns="http://www.w3.org/2000/svg" id="Layer_1" data-name="Layer 1" viewBox="0 0 24 24">
  <path d="m22.968,7.866L13.658.572c-.976-.766-2.34-.766-3.317,0L1.032,7.866c-.646.506-1.032,1.298-1.032,2.12v14.014h24v-14.014c0-.822-.386-1.614-1.032-2.12Zm.032,15.134H1v-13.014c0-.517.242-1.015.649-1.333L10.958,1.359c.614-.48,1.47-.48,2.083,0l9.31,7.294c.406.318.648.816.648,1.333v13.014Zm-10.5-8h-1v-7h1v7Zm5.5-1c0,3.309-2.691,6-6,6s-6-2.691-6-6c0-2.215,1.21-4.149,3-5.188v1.214c-1.207.914-2,2.348-2,3.974,0,2.757,2.243,5,5,5s5-2.243,5-5c0-1.627-.793-3.061-2-3.974v-1.214c1.79,1.039,3,2.973,3,5.188Z"/>
</svg>
