<?xml version="1.0" encoding="UTF-8"?>
<svg xmlns="http://www.w3.org/2000/svg" id="Layer_1" data-name="Layer 1" viewBox="0 0 24 24">
  <path d="M12,0C5.383,0,0,5.383,0,12s5.383,12,12,12,12-5.383,12-12S18.617,0,12,0Zm11,12c0,2.63-.93,5.046-2.476,6.941-2.469-1.364-2.523-3.835-2.524-3.941v-3h-5.5c-.827,0-1.5-.673-1.5-1.5v-2.5h3V4h3.768l.624-.935c2.785,1.998,4.609,5.254,4.609,8.935ZM1,12c0-.255,.021-.504,.038-.755l4.755,4.755h4.707c.827,0,1.5,.673,1.5,1.5v5.5c-6.065,0-11-4.935-11-11Zm12,10.949v-5.449c0-1.379-1.121-2.5-2.5-2.5H6.207L1.193,9.986C2.143,4.88,6.623,1,12,1c2.026,0,3.92,.56,5.552,1.52l-.32,.48h-4.232V7h-3v3.5c0,1.378,1.121,2.5,2.5,2.5h4.5v2c0,.128,.04,3.027,2.84,4.702-1.777,1.809-4.172,3.005-6.84,3.247Z"/>
</svg>
