<?xml version="1.0" encoding="UTF-8"?>
<svg xmlns="http://www.w3.org/2000/svg" id="Layer_1" data-name="Layer 1" viewBox="0 0 24 24">
  <path d="m18.171,9.222c-.47-.234-1.014-.208-1.46.065-.445.275-.711.752-.711,1.276v13.436h1v-7.692l6.458-3.262-5.287-3.823Zm-1.171,1.342c0-.252.166-.381.237-.425.053-.033.169-.09.289-.09.043,0,4.016,2.844,4.016,2.844l-4.542,2.295v-4.623Zm7-.577v.982l-1-.723v-.259c0-.525-.236-1.011-.648-1.333,0,0,0,0,0,0h0S13.041,1.359,13.041,1.359c-.613-.48-1.469-.48-2.082,0L1.649,8.653c-.413.323-.649.809-.649,1.333v13.013h13v1H0v-14.013c0-.834.376-1.607,1.033-2.121L10.342.572c.977-.765,2.34-.765,3.316,0l9.31,7.294h0c.657.514,1.032,1.286,1.032,2.121Zm-1,5.531l1-.505v8.988h-5v-1h4v-7.482Z"/>
</svg>
