<?xml version="1.0" encoding="UTF-8"?>
<svg xmlns="http://www.w3.org/2000/svg" id="Layer_1" data-name="Layer 1" viewBox="0 0 24 24">
  <path d="M4.177,4.271l-.713-.704c.882-.894,1.891-1.639,2.999-2.214l.464,.893c-1.02,.532-1.948,1.214-2.75,2.025ZM12,1c.623,0,1.23,.064,1.825,.164l.167-.999c-.656-.109-1.326-.165-1.992-.165s-1.336,.056-1.992,.165l.167,.999c.595-.1,1.202-.164,1.825-.164Zm7.472,1.621c-.604-.482-1.248-.912-1.935-1.268l-.464,.893c.595,.31,1.156,.675,1.681,1.085l.718-.709Zm2.852,5.615c.241,.66,.419,1.348,.53,2.06l1.002-.156c-.144-.921-.395-1.818-.747-2.679l-.785,.775ZM2.188,7.046l-.902-.455c-.565,1.119-.949,2.313-1.143,3.549l1.002,.156c.18-1.153,.535-2.245,1.043-3.25Zm14.881,14.71l.465,.894c1.108-.577,2.118-1.321,2.999-2.213l-.713-.705c-.802,.811-1.73,1.493-2.751,2.024Zm4.741-4.798l.902,.457c.566-1.118,.951-2.312,1.145-3.55l-1.002-.156c-.18,1.153-.536,2.245-1.044,3.249ZM.144,13.865c.193,1.237,.578,2.432,1.145,3.55l.902-.457c-.509-1.005-.864-2.097-1.044-3.249l-1.002,.156Zm11.856,9.135c-.623,0-1.23-.064-1.825-.164l-.167,.999c.656,.109,1.326,.165,1.992,.165s1.336-.056,1.992-.165l-.167-.999c-.595,.1-1.202,.164-1.825,.164Zm-8.533-2.562c.881,.892,1.891,1.636,2.999,2.213l.465-.894c-1.021-.531-1.949-1.213-2.751-2.024l-.713,.705Zm9.037-6.019L23.93,3.125l-.703-.711L11.799,13.71c-.376,.376-1.022,.379-1.406-.005l-5.039-4.895-.697,.717,5.034,4.89c.376,.376,.876,.583,1.408,.583s1.031-.207,1.405-.581Z"/>
</svg>
