<?xml version="1.0" encoding="UTF-8"?>
<svg xmlns="http://www.w3.org/2000/svg" id="Layer_1" data-name="Layer 1" viewBox="0 0 24 24">
  <path d="M17.225,14.125l6.802-2.125-6.802-2.125,2.837-5.936-5.936,2.837L12-.026l-2.125,6.802L3.938,3.938l2.837,5.936L-.026,12l6.802,2.125-2.837,5.936,5.936-2.837,2.125,6.802,2.125-6.802,5.936,2.837-2.837-5.936Zm.714-8.064l-1.679,3.512-1.397-.436-.436-1.397,3.512-1.678Zm-11.877,0l3.512,1.679-.436,1.397-1.397,.436-1.679-3.512Zm0,11.877l1.678-3.512,1.397,.436,.436,1.397-3.512,1.679Zm3.873-3.874l-6.608-2.064,6.608-2.065,2.065-6.608,2.064,6.608,6.608,2.065-6.608,2.064-2.064,6.608-2.065-6.608Zm4.929,.799l1.397-.436,1.678,3.512-3.512-1.678,.436-1.397Zm-1.863-2.863c0,.552-.448,1-1,1s-1-.448-1-1,.448-1,1-1,1,.448,1,1Z"/>
</svg>
