<?xml version="1.0" encoding="UTF-8"?>
<svg xmlns="http://www.w3.org/2000/svg" id="Layer_1" data-name="Layer 1" viewBox="0 0 24 24">
  <path d="m12,12c3.309,0,6-2.691,6-6,0-.341-.035-.674-.09-1h2.59v-1h-2.85c-.826-2.327-3.043-4-5.65-4-3.309,0-6,2.691-6,6s2.691,6,6,6Zm0-11c2.045,0,3.802,1.237,4.576,3H7.424c.774-1.763,2.531-3,4.576-3Zm-4.899,4h9.798c.066.323.101.658.101,1,0,2.757-2.243,5-5,5s-5-2.243-5-5c0-.342.035-.677.101-1Zm9.399,9H7.5c-2.481,0-4.5,2.019-4.5,4.5v5.5h1v-5.5c0-1.534.999-2.827,2.375-3.298l3.047,4.443,2.539-3.046,2.534,3.04,3.123-4.439c1.38.47,2.382,1.764,2.382,3.3v5.5h1v-5.5c0-2.481-2.019-4.5-4.5-4.5Zm-2.072,3.996l-2.466-2.96-2.461,2.954-2.048-2.985c.016,0,9.07-.001,9.082-.001l-2.107,2.993Z"/>
</svg>
