<?xml version="1.0" encoding="UTF-8"?>
<svg xmlns="http://www.w3.org/2000/svg" id="Layer_1" data-name="Layer 1" viewBox="0 0 24 24">
  <path d="M21.479,13l1.641,2.982,.877-.482-2.004-3.642c-.037-1.82-.766-3.474-1.942-4.7l3.356-3.857-.375-.328c-2.187-1.917-4.995-2.973-7.906-2.973C8.439,0,3,5.383,3,12v5.755c0,.922-.31,1.912-.92,2.943L.122,24H3.86c1.751,0,3.378-.944,4.248-2.465,.583-1.021,.892-2.184,.892-3.36v-6.175c0-3.309,2.691-6,6-6s6,2.691,6,6h-5v2.325l4.561,2.026,1.329,6.648h-7.082l-3.808-6.181v1.906l3.249,5.274h8.861l-1.671-8.352-4.439-1.974v-.675h4.479ZM15,5c-3.859,0-7,3.14-7,7v6.175c0,1.003-.263,1.993-.76,2.864-.692,1.21-1.987,1.961-3.38,1.961H1.878l1.062-1.792c.703-1.188,1.06-2.35,1.06-3.453v-5.755C4,5.935,8.991,1,15.126,1c2.502,0,4.921,.851,6.865,2.405l-2.683,3.082c-1.188-.931-2.685-1.487-4.309-1.487Z"/>
</svg>
