<?xml version="1.0" encoding="UTF-8"?>
<svg xmlns="http://www.w3.org/2000/svg" id="Layer_1" data-name="Layer 1" viewBox="0 0 24 24">
  <path d="M22,9v-1.5c0-1.758-1.308-3.204-3-3.449V0h-6V2.607c.357,.183,.693,.4,1,.654V1h4v3h-3.261c.253,.307,.47,.643,.654,1h3.107c1.378,0,2.5,1.122,2.5,2.5v1.5h-7v-1.5c0-1.758-1.308-3.204-3-3.449V0H5V4.051c-1.692,.245-3,1.691-3,3.449v1.5H.109l1.961,12.75c.201,1.304,1.304,2.25,2.623,2.25h14.65c1.319,0,2.422-.946,2.623-2.25l1.962-12.75h-1.929ZM10,1v3H6V1h4ZM3,7.5c0-1.378,1.122-2.5,2.5-2.5h5c1.378,0,2.5,1.122,2.5,2.5v1.5H3v-1.5Zm17.979,14.098c-.125,.812-.812,1.402-1.635,1.402H4.694c-.822,0-1.509-.59-1.635-1.402L1.275,10H22.763l-1.784,11.598ZM11.5,13h1v7h-1v-7Zm5,0h1v7h-1v-7Zm-10,0h1v7h-1v-7Z"/>
</svg>
