<?xml version="1.0" encoding="UTF-8"?>
<svg xmlns="http://www.w3.org/2000/svg" id="Layer_1" data-name="Layer 1" viewBox="0 0 24 24">
  <path d="m24.059,17.941l-2.506-2.507c-.581-.579-1.525-.58-2.105,0l-2.506,2.506.707.707,2.352-2.352v5.204c0,.827-.673,1.5-1.5,1.5h-6.5v1h6.5c1.378,0,2.5-1.122,2.5-2.5v-5.204l2.352,2.352.707-.707ZM3.5,8c.381,0,.763-.145,1.053-.435l2.506-2.506-.707-.707-2.352,2.352V2.5c0-.827.673-1.5,1.5-1.5h6.5V0h-6.5c-1.378,0-2.5,1.122-2.5,2.5v4.204L.648,4.352-.059,5.059l2.506,2.507c.291.29.671.435,1.053.435Zm3.5,9v-2h1v-1h-1.278c.172-.295.278-.634.278-1,0-.639-.546-1.562-1.154-2.532-.367-.586-1.325-.586-1.692,0-.608.97-1.154,1.894-1.154,2.532,0,.366.106.705.278,1h-1.278v1h1v2c0,2.39-1.362,5.171-1.798,6H0v1h10v-1h-1.202c-.436-.828-1.798-3.606-1.798-6Zm-3-4c0-.404.702-1.523.999-2.001.3.478,1.001,1.597,1.001,2.001,0,.551-.449,1-1,1s-1-.449-1-1Zm0,4v-2h2v2c0,2.283,1.075,4.782,1.675,6H2.325c.6-1.218,1.675-3.717,1.675-6Zm20-5c-.248,0-1,0-1-1.5v-5.5c0-1.245-.833-4.563-4.641-4.96l-.391-.041-.132.37c-.54,1.516-1.959,2.247-2.722,2.639-.688.354-1.114,1.039-1.114,1.789v1.204h3v2.5c0,3.237-1.359,3.5-3,3.5v1h10v-1Zm-7.009,0c.613-.662,1.009-1.745,1.009-3.5v-3.5h-3v-.204c0-.374.219-.718.571-.899.766-.394,2.3-1.184,3.052-2.812,3.336.575,3.376,3.881,3.376,3.916v5.5c0,.598.109,1.103.313,1.5h-5.323Z"/>
</svg>
