<?xml version="1.0" encoding="UTF-8"?>
<svg xmlns="http://www.w3.org/2000/svg" id="Layer_1" data-name="Layer 1" viewBox="0 0 24 24">
  <path d="M2.5,6c-1.379,0-2.5,1.122-2.5,2.5v7c0,1.378,1.121,2.5,2.5,2.5h2.399l7.101,5.922V.079L4.901,6H2.5ZM11,2.215V21.787l-5.739-4.787H2.5c-.827,0-1.5-.673-1.5-1.5v-7c0-.827,.673-1.5,1.5-1.5h2.763L11,2.215Zm10.977,6.785c-.112,1.424-.707,3.777-2.288,5.566,1.01,.845,2.396,1.434,4.31,1.434v1c-2.199,0-3.817-.717-5.004-1.747-1.188,1.028-2.801,1.747-4.996,1.747v-1c1.91,0,3.285-.594,4.296-1.436-.959-1.09-1.55-2.392-1.891-3.564h1.046c.289,.936,.765,1.987,1.542,2.884,1.469-1.689,1.866-3.91,1.968-4.884h-6.961v-1h4.5v-2h1v2h4.5v1h-2.023Z"/>
</svg>
