<?xml version="1.0" encoding="UTF-8"?>
<svg xmlns="http://www.w3.org/2000/svg" id="Layer_1" data-name="Layer 1" viewBox="0 0 24 24">
  <path d="m17.511,24h-3.511v-9c0-1.103-.897-2-2-2s-2,.897-2,2v9h-3.51l-.146-.243C3.391,18.835,0,12.337,0,5.728c0-.058.065-5.728,5.728-5.728,1.797,0,2.937.33,3.941.621.785.228,1.463.424,2.332.424s1.547-.196,2.332-.424c1.005-.291,2.144-.621,3.94-.621,5.662,0,5.728,5.67,5.728,5.728,0,6.607-3.391,13.105-6.344,18.029l-.146.243Zm-2.511-1h1.944c2.852-4.782,6.056-11.018,6.056-17.272,0-.192-.073-4.728-4.728-4.728-1.655,0-2.676.296-3.662.582-.822.238-1.6.463-2.61.463s-1.788-.225-2.61-.463c-.987-.286-2.007-.582-3.663-.582C1.073,1,1.001,5.535,1,5.729c0,6.256,3.204,12.49,6.057,17.271h1.943v-8c0-1.654,1.346-3,3-3s3,1.346,3,3v8Z"/>
</svg>
