<?xml version="1.0" encoding="UTF-8"?>
<svg xmlns="http://www.w3.org/2000/svg" id="Layer_1" data-name="Layer 1" viewBox="0 0 24 24">
  <path d="M6.5,17h2.5v7h-1v-6h-1.5c-3.032,0-5.5-2.468-5.5-5.5V7H0v-1H4V0h1V6h7V0h1V6h4v1h-1v2.14c-.34,.061-.675,.135-1,.235v-2.375H2v5.5c0,2.481,2.019,4.5,4.5,4.5Zm17.5,.5c0,3.584-2.916,6.5-6.5,6.5s-6.5-2.916-6.5-6.5,2.916-6.5,6.5-6.5,6.5,2.916,6.5,6.5Zm-1,0c0-3.032-2.468-5.5-5.5-5.5s-5.5,2.468-5.5,5.5,2.468,5.5,5.5,5.5,5.5-2.468,5.5-5.5Zm-8.5,.5h6v-1h-6v1Z"/>
</svg>
