<?xml version="1.0" encoding="UTF-8"?>
<svg xmlns="http://www.w3.org/2000/svg" id="Layer_1" data-name="Layer 1" viewBox="0 0 24 24">
  <path d="m18,14c-.552,0-1-.448-1-1s.448-1,1-1,1,.448,1,1-.448,1-1,1Zm4.85-1c-.523-2.569-2.373-4.697-4.85-5.573v-3.428h-.5c-1.872,0-3.439,1.238-3.878,3.001h-2.622v1h3.47l.06-.432c.182-1.321,1.187-2.321,2.471-2.529v3.124l.357.106c2.423.721,4.219,2.802,4.576,5.302l.062.429h1.005v3h-1.49l-.135.285c-.939,1.977-2.788,3.341-4.945,3.648l-.43.062v2.005h-2v-2h-6v2h-2v-2.163l-.357-.106c-2.733-.813-4.643-3.376-4.643-6.23,0-3.067,2.138-5.638,5-6.318v-1.031c-1.754.357-3.285,1.332-4.362,2.683-.417-.732-.638-1.674-.638-2.834H0c0,1.547.355,2.783,1.027,3.72-.651,1.111-1.027,2.402-1.027,3.78,0,3.167,2.038,6.023,5,7.072v2.428h4v-2h4v2h4v-2.15c2.201-.445,4.081-1.853,5.135-3.85h1.865v-5h-1.15Zm-14.85-6h1v-3h3v-1h-3V0h-1v3h-3v1h3v3Z"/>
</svg>
