<?xml version="1.0" encoding="UTF-8"?>
<svg xmlns="http://www.w3.org/2000/svg" id="Layer_1" data-name="Layer 1" viewBox="0 0 24 24">
  <path d="m20.676,15.691l.89.89.707-.707-5.574-5.574-.707.707.891.891-5.076,5.076-.891-.891-.707.707,5.574,5.574.707-.707-.891-.891,2.23-2.23,5.432,5.432.707-.707-5.432-5.432,2.139-2.139Zm-8.163,1.99l5.076-5.076,2.379,2.379-5.077,5.076-2.379-2.379ZM21.5,2h-3.5V0h-1v2H7V0h-1v2h-3.5c-1.379,0-2.5,1.122-2.5,2.5v19.5h14.59l-1-1H1v-14h22v4.773l1,1V4.5c0-1.378-1.121-2.5-2.5-2.5ZM1,8v-3.5c0-.827.673-1.5,1.5-1.5h19c.827,0,1.5.673,1.5,1.5v3.5H1Z"/>
</svg>
