<?xml version="1.0" encoding="UTF-8"?>
<svg xmlns="http://www.w3.org/2000/svg" id="Layer_1" data-name="Layer 1" viewBox="0 0 24 24">
  <path d="m12.499,10.025l-.023-8.734,4.149,4.066.699-.715L13.035.439c-.584-.584-1.537-.584-2.121,0l-4.25,4.25.707.707L11.476,1.292l.023,8.734c-3.625.259-6.499,3.284-6.499,6.975,0,3.859,3.141,7,7,7s7-3.141,7-7c0-3.691-2.875-6.717-6.501-6.975Zm-.499,12.975c-3.309,0-6-2.691-6-6s2.691-6,6-6,6,2.691,6,6-2.691,6-6,6Zm2.377-6.197c.386-.404.623-.951.623-1.553,0-1.24-1.01-2.25-2.25-2.25h-.25v-1h-1v1h-2v8h2v1h1v-1h.75c1.24,0,2.25-1.01,2.25-2.25,0-.83-.452-1.558-1.123-1.947Zm-3.877-2.803h2.25c.689,0,1.25.561,1.25,1.25s-.561,1.25-1.25,1.25h-2.25v-2.5Zm2.75,6h-2.75v-2.5h2.75c.689,0,1.25.561,1.25,1.25s-.561,1.25-1.25,1.25Z"/>
</svg>
