<?xml version="1.0" encoding="UTF-8"?>
<svg xmlns="http://www.w3.org/2000/svg" id="Layer_1" data-name="Layer 1" viewBox="0 0 24 24">
  <path d="m11.5,11v-1h-.717c-.983,0-1.783-.821-1.783-1.83v-.17h1v.17c0,.458.351.83.783.83h2.473c.432,0,.783-.373.783-.83,0-.371-.235-.7-.572-.799l-3.094-.777c-.779-.23-1.309-.953-1.309-1.764,0-1.009.8-1.83,1.783-1.83h.653v-1h1v1h.717c.983,0,1.783.821,1.783,1.83v.196h-1v-.196c0-.458-.351-.83-.783-.83h-2.371c-.432,0-.783.373-.783.83,0,.371.235.7.572.799l3.094.777c.779.23,1.309.953,1.309,1.764,0,1.009-.8,1.83-1.783,1.83h-.756v1h-1Zm-1.743,5.036c-.095.095-.146.22-.146.354s.052.259.146.354c.19.189.52.189.707,0l2.265-2.299,5.074,4.556h6.197v1h-5.703l-5.125,4h-2.344l-5.125-4H0v-1h6.047l5.125,4h1.656l4.244-3.312-4.301-3.862-1.597,1.622c-.571.571-1.557.569-2.124.002-.283-.283-.439-.66-.439-1.061s.156-.778.439-1.061l2.097-2.073-.809-.737c-.367-.334-.842-.518-1.338-.518-.649,0-2.149.634-2.882,1H0v-1h5.884c.282-.137.997-.469,1.73-.714-1.334-1.223-2.113-2.948-2.113-4.786,0-3.584,2.916-6.5,6.5-6.5s6.5,2.916,6.5,6.5c0,1.873-.805,3.627-2.182,4.852.764.24,1.503.534,1.782.648h5.9v1l-6.193-.039c-.886-.372-2.526-.961-3.153-.961-.508,0-.992.192-1.362.54l-3.535,3.496Zm2.094-3.492l.765-.741c.546-.515,1.273-.803,2.037-.803.129,0,.28.017.441.042,1.505-1.028,2.405-2.719,2.405-4.542,0-3.033-2.467-5.5-5.5-5.5s-5.5,2.467-5.5,5.5c0,1.802.883,3.48,2.36,4.51.769,0,1.6.266,2.152.769l.84.765Z"/>
</svg>
