<?xml version="1.0" encoding="UTF-8"?>
<svg xmlns="http://www.w3.org/2000/svg" id="Layer_1" data-name="Layer 1" viewBox="0 0 24 24">
  <path d="M13,11v1c0,.551-.449,1-1,1s-1-.449-1-1v-1H0v1c0,6.617,5.383,12,12,12s12-5.383,12-12v-1H13Zm-1,3c1.103,0,2-.897,2-2h3c0,2.757-2.243,5-5,5s-5-2.243-5-5h3c0,1.103,.897,2,2,2Zm0,9c-6.065,0-11-4.935-11-11H6c0,3.309,2.691,6,6,6s6-2.691,6-6h5c0,6.065-4.935,11-11,11Zm-4-14c1.654,0,3-1.346,3-3s-1.346-3-3-3c-.768,0-1.469,.29-2,.766v-.766c0-1.103,.897-2,2-2h2V0h-2c-1.654,0-3,1.346-3,3v3c0,1.654,1.346,3,3,3Zm0-5c1.103,0,2,.897,2,2s-.897,2-2,2-2-.897-2-2,.897-2,2-2Zm7,5c1.654,0,3-1.346,3-3V3c0-1.654-1.346-3-3-3s-3,1.346-3,3v3c0,1.654,1.346,3,3,3Zm-2-6c0-1.103,.897-2,2-2s2,.897,2,2v3c0,1.103-.897,2-2,2s-2-.897-2-2V3Zm9.991,4.313c.068-.339-.229-.652-.794-.837-.051-.019-.901-.329-1.332-.546-.637-.364-.937-.935-.839-1.544,.101-.621,.587-1.119,1.269-1.3,.785-.213,1.594-.03,2.399,.538l-.575,.817c-.569-.4-1.067-.523-1.566-.39-.296,.079-.503,.268-.54,.494-.039,.241,.149,.406,.314,.5,.365,.182,1.188,.482,1.196,.485,1.272,.417,1.577,1.328,1.447,1.979-.173,.864-1.059,1.491-2.107,1.491-.689,0-1.648-.344-2.182-.782l.635-.772c.319,.262,1.034,.555,1.547,.555,.563,0,1.048-.295,1.126-.687Z"/>
</svg>
