<?xml version="1.0" encoding="UTF-8"?>
<svg xmlns="http://www.w3.org/2000/svg" id="Layer_1" data-name="Layer 1" viewBox="0 0 24 24">
  <path d="m23.167,9.984L14.015.832c-1.072-1.072-2.955-1.072-4.027,0L.836,9.984C.298,10.522.002,11.237.002,11.998s.296,1.476.834,2.014l9.151,9.153c.538.538,1.253.834,2.014.834s1.477-.296,2.015-.834l9.151-9.153c1.11-1.11,1.11-2.917,0-4.028Zm-.707,3.321l-9.151,9.153c-.698.698-1.914.699-2.614,0L1.543,13.305c-.721-.721-.721-1.894,0-2.614L10.694,1.539c.348-.347.812-.539,1.307-.539s.959.191,1.307.539l9.152,9.153c.721.721.721,1.893,0,2.614Zm-6.46-.805v4l-1,1v-5c0-.827-.673-1.5-1.5-1.5h-6.176l3.282,3.283-.707.707-3.45-3.451c-.598-.598-.598-1.571,0-2.169l3.45-3.45.707.707-3.374,3.374h6.267c1.379,0,2.5,1.122,2.5,2.5Z"/>
</svg>
