<?xml version="1.0" encoding="UTF-8"?>
<svg xmlns="http://www.w3.org/2000/svg" id="Layer_1" data-name="Layer 1" viewBox="0 0 24 24">
  <path d="m17.5,11c-3.584,0-6.5,2.916-6.5,6.5s2.916,6.5,6.5,6.5,6.5-2.916,6.5-6.5-2.916-6.5-6.5-6.5Zm.5,11.975v-1.975h-1v1.975c-2.634-.239-4.736-2.341-4.975-4.975h1.975v-1h-1.975c.239-2.634,2.341-4.736,4.975-4.975v1.975h1v-1.975c2.634.239,4.736,2.341,4.975,4.975h-1.975v1h1.975c-.239,2.634-2.341,4.736-4.975,4.975Zm-9.026-10.949c3.323,0,6.026-2.703,6.026-6.025S12.297-.025,8.974-.025,2.949,2.678,2.949,6s2.703,6.025,6.025,6.025Zm0-11.051c2.771,0,5.026,2.254,5.026,5.025s-2.254,5.025-5.026,5.025-5.025-2.254-5.025-5.025S6.203.975,8.974.975Zm.786,13.025c-.147.324-.279.656-.385,1h-4.875c-1.93,0-3.5,1.57-3.5,3.5v5.5H0v-5.5c0-2.481,2.019-4.5,4.5-4.5h5.26Z"/>
</svg>
