<?xml version="1.0" encoding="UTF-8"?>
<svg xmlns="http://www.w3.org/2000/svg" id="Layer_1" data-name="Layer 1" viewBox="0 0 24 24">
  <path d="M8.848,3.859l-.695-.719L10.945,.434c.578-.579,1.529-.579,2.115,.006l2.787,2.701-.695,.719-2.652-2.571v7.711h-1V1.288l-2.652,2.571Zm4.444,8.681c.37-.349,.854-.54,1.362-.54,.627,0,2.267,.59,3.152,.961l6.193,.039v-1h-5.9c-.502-.207-2.493-1-3.445-1-.764,0-1.491,.288-2.038,.803l-.765,.74-.84-.765c-.552-.502-1.267-.778-2.035-.778-.962,0-2.623,.771-3.093,1H0v1H6.118s2.233-1,2.882-1c.496,0,.972,.184,1.338,.519l.809,.737-2.097,2.073c-.584,.585-.584,1.537,0,2.122,.586,.586,1.537,.583,2.125-.003l1.597-1.621,4.301,3.861-4.244,3.312h-1.656l-5.125-4H0v1H5.703l5.125,4h2.344l5.125-4h5.703v-1h-6.197l-5.075-4.557-2.264,2.3c-.194,.192-.512,.196-.708,0-.194-.195-.194-.513,0-.708l3.535-3.495Z"/>
</svg>
