<?xml version="1.0" encoding="UTF-8"?>
<svg xmlns="http://www.w3.org/2000/svg" id="Layer_1" data-name="Layer 1" viewBox="0 0 24 24">
  <path d="M18.5,20c1.378,0,2.5-1.122,2.5-2.5s-1.122-2.5-2.5-2.5c-1.207,0-2.217,.86-2.449,2h-6.051v.5c0,2.481-2.019,4.5-4.5,4.5s-4.5-2.019-4.5-4.5c0-1.219,.479-2.36,1.35-3.213,.776-.76,1.817-1.175,2.88-1.244l.603-1.021c-.111-.007-.221-.022-.333-.022-1.448,0-2.816,.559-3.85,1.573-1.064,1.042-1.65,2.438-1.65,3.927,0,3.033,2.467,5.5,5.5,5.5,2.864,0,5.224-2.201,5.478-5h5.073c.232,1.14,1.242,2,2.449,2Zm0-4c.827,0,1.5,.673,1.5,1.5s-.673,1.5-1.5,1.5-1.5-.673-1.5-1.5,.673-1.5,1.5-1.5Zm0-4c-.801,0-1.592,.175-2.313,.509l-2.503-4.173c.498-.457,.816-1.108,.816-1.836,0-1.378-1.122-2.5-2.5-2.5s-2.5,1.122-2.5,2.5,1.122,2.5,2.5,2.5c.291,0,.566-.06,.826-.151l2.999,4.999,.426-.247c.681-.394,1.458-.602,2.25-.602,2.481,0,4.5,2.019,4.5,4.5s-2.019,4.5-4.5,4.5c-1.557,0-2.93-.795-3.738-2h-1.155c.912,1.778,2.761,3,4.893,3,3.033,0,5.5-2.467,5.5-5.5s-2.467-5.5-5.5-5.5ZM10.5,6.5c0-.827,.673-1.5,1.5-1.5s1.5,.673,1.5,1.5-.673,1.5-1.5,1.5-1.5-.673-1.5-1.5Zm-1.715,4.458l-2.475,4.188c-.255-.088-.525-.146-.81-.146-1.378,0-2.5,1.122-2.5,2.5s1.122,2.5,2.5,2.5,2.5-1.122,2.5-2.5c0-.734-.323-1.388-.828-1.846l2.971-5.027-.43-.254c-1.365-.808-2.212-2.292-2.212-3.873,0-2.481,2.019-4.5,4.5-4.5s4.5,2.019,4.5,4.5c0,.672-.159,1.321-.438,1.912l.595,.992c.536-.86,.843-1.861,.843-2.904,0-3.033-2.467-5.5-5.5-5.5S6.5,3.467,6.5,6.5c0,1.765,.864,3.431,2.285,4.458Zm-3.285,8.042c-.827,0-1.5-.673-1.5-1.5s.673-1.5,1.5-1.5,1.5,.673,1.5,1.5-.673,1.5-1.5,1.5Z"/>
</svg>
