<?xml version="1.0" encoding="UTF-8"?>
<svg xmlns="http://www.w3.org/2000/svg" id="Layer_1" data-name="Layer 1" viewBox="0 0 24 24">
  <path d="m10.261,20c.087.343.195.677.326,1H3v-7.587c.323.131.657.238,1,.326v6.261h6.261ZM20,4v6.261c.343.087.677.195,1,.326V3h-7.587c.131.323.238.657.326,1h6.261ZM6,12c-3.309,0-6-2.691-6-6S2.691,0,6,0s6,2.691,6,6-2.691,6-6,6Zm0-1c.712,0,1.386-.154,2-.424v-1.576c0-.551-.448-1-1-1h-2c-.552,0-1,.449-1,1v1.576c.614.269,1.288.424,2,.424Zm-3-1.026v-.974c0-1.103.897-2,2-2h2c1.103,0,2,.897,2,2v.974c1.207-.914,2-2.348,2-3.974,0-2.757-2.243-5-5-5S1,3.243,1,6c0,1.627.793,3.061,2,3.974Zm1-5.974c0-1.103.897-2,2-2s2,.897,2,2-.897,2-2,2-2-.897-2-2Zm1,0c0,.551.448,1,1,1s1-.449,1-1-.448-1-1-1-1,.449-1,1Zm19,14c0,3.309-2.691,6-6,6s-6-2.691-6-6,2.691-6,6-6,6,2.691,6,6Zm-6,5c.712,0,1.386-.154,2-.424v-1.576c0-.551-.448-1-1-1h-2c-.552,0-1,.449-1,1v1.576c.614.269,1.288.424,2,.424Zm5-5c0-2.757-2.243-5-5-5s-5,2.243-5,5c0,1.627.793,3.061,2,3.974v-.974c0-1.103.897-2,2-2h2c1.103,0,2,.897,2,2v.974c1.207-.914,2-2.348,2-3.974Zm-3-2c0,1.103-.897,2-2,2s-2-.897-2-2,.897-2,2-2,2,.897,2,2Zm-1,0c0-.551-.448-1-1-1s-1,.449-1,1,.448,1,1,1,1-.449,1-1Z"/>
</svg>
