<?xml version="1.0" encoding="UTF-8"?>
<svg xmlns="http://www.w3.org/2000/svg" id="Layer_1" data-name="Layer 1" viewBox="0 0 24 24">
  <path d="M2.5,0h2.5V1H2.5c-.827,0-1.5,.673-1.5,1.5v2.5H0V2.5C0,1.122,1.121,0,2.5,0ZM1,7H0v6H1V7Zm0,8H0v5H5v-1H1v-4ZM19,2.5v2.5h1V2.5c0-1.378-1.121-2.5-2.5-2.5h-2.5V1h2.5c.827,0,1.5,.673,1.5,1.5ZM13,0H7V1h6V0Zm6,9.14c.34,.061,.675,.135,1,.235v-2.375h-1v2.14ZM7,19v1h2.375c-.1-.325-.174-.66-.235-1h-2.14Zm17-1.5c0,3.584-2.916,6.5-6.5,6.5s-6.5-2.916-6.5-6.5,2.916-6.5,6.5-6.5,6.5,2.916,6.5,6.5Zm-1,0c0-3.032-2.468-5.5-5.5-5.5s-5.5,2.468-5.5,5.5,2.468,5.5,5.5,5.5,5.5-2.468,5.5-5.5Zm-5-3h-1v2.5h-2.5v1h2.5v2.5h1v-2.5h2.5v-1h-2.5v-2.5Z"/>
</svg>
