<?xml version="1.0" encoding="UTF-8"?>
<svg xmlns="http://www.w3.org/2000/svg" id="Layer_1" data-name="Layer 1" viewBox="0 0 24 24">
  <path d="M23.181,9.655c-.497-.452-1.142-.675-1.809-.652-.67,.032-1.288,.322-1.739,.818l-3.732,4.102c-.314-1.108-1.335-1.923-2.543-1.923H2.5c-1.379,0-2.5,1.121-2.5,2.5v7c0,1.379,1.121,2.5,2.5,2.5H13.725l9.638-10.817c.912-1.022,.831-2.604-.182-3.528Zm-.564,2.862l-9.341,10.483H2.5c-.827,0-1.5-.673-1.5-1.5v-7c0-.827,.673-1.5,1.5-1.5H13.357c.905,0,1.643,.737,1.643,1.643,0,.812-.605,1.511-1.403,1.624l-5.661,.737,.129,.992,5.667-.738c1.021-.146,1.845-.878,2.146-1.823l4.496-4.941c.271-.298,.643-.473,1.046-.492,.402-.02,.79,.12,1.088,.393,.609,.555,.658,1.507,.109,2.123ZM.854,3.089c.768,1.555,1.723,3.49,3.472,4.45,.558,.306,1.175,.46,1.894,.46,.281,0,1.055-.026,2.041-.664,.539,1.03,.741,1.992,.741,2.665h1c0-.732,.353-2.203,1.592-3.155,.549,.729,1.386,1.154,2.262,1.153,.471,0,.947-.116,1.386-.361,1.312-.734,2.519-2.103,3.584-4.068l.235-.434-.431-.241c-.135-.075-3.322-1.821-6.17-.23-.664,.371-1.145,.979-1.352,1.711-.149,.526-.138,1.07,.014,1.581-.731,.524-1.236,1.186-1.564,1.85-.136-.362-.311-.739-.523-1.121,.166-.186,.322-.397,.465-.639,.501-.851,.632-1.848,.368-2.805-.272-.988-.923-1.807-1.832-2.306C4.102-1.225,.55,1.155,.4,1.257L.022,1.517s.622,1.15,.831,1.572Zm11.217,1.558c.134-.475,.445-.87,.877-1.11,.706-.396,1.454-.534,2.155-.534,1.074,0,2.04,.325,2.582,.551-.679,1.156-1.679,2.509-2.933,3.21-.888,.498-2.018,.179-2.517-.711-.241-.431-.3-.93-.165-1.405ZM7.556,1.812c.67,.367,1.148,.969,1.348,1.694,.191,.694,.098,1.417-.265,2.033-.054,.092-.117,.162-.176,.243-.903-1.246-2.277-2.48-4.305-3.416l-.418,.908c1.925,.888,3.19,2.055,3.999,3.21-.733,.488-1.479,.514-1.527,.515-.49,.002-.985-.107-1.406-.337-1.473-.808-2.313-2.512-3.056-4.016-.136-.274-.267-.54-.396-.789,.945-.497,3.493-1.532,6.202-.045Z"/>
</svg>
