<?xml version="1.0" encoding="UTF-8"?>
<svg xmlns="http://www.w3.org/2000/svg" id="Layer_1" data-name="Layer 1" viewBox="0 0 24 24">
  <path d="m20.5,0c-2.206,0-4,1.794-4,4h1c0-1.654,1.346-3,3-3h2.5v15.003c-.913-1.216-2.366-2.003-4-2.003-2.414,0-4.435,1.721-4.899,4h-4.201c-.465-2.279-2.485-4-4.899-4-1.634,0-3.087.788-4,2.003V1h3c1.654,0,3,1.346,3,3h1C8,1.794,6.206,0,4,0H0v19c0,2.757,2.243,5,5,5s5-2.243,5-5h4c0,2.757,2.243,5,5,5s5-2.243,5-5V0h-3.5ZM5,23c-2.206,0-4-1.794-4-4s1.794-4,4-4,4,1.794,4,4-1.794,4-4,4Zm14,0c-2.206,0-4-1.794-4-4s1.794-4,4-4,4,1.794,4,4-1.794,4-4,4Z"/>
</svg>
