<?xml version="1.0" encoding="UTF-8"?>
<svg xmlns="http://www.w3.org/2000/svg" id="Layer_1" data-name="Layer 1" viewBox="0 0 24 24">
  <path d="m21.5,0H2.5C1.122,0,0,1.121,0,2.5v21.5h18.207l5.793-5.793V2.5c0-1.379-1.121-2.5-2.5-2.5Zm-3.5,22.793v-4.793h4.793l-4.793,4.793Zm5-5.793h-6v6H1V2.5c0-.827.673-1.5,1.5-1.5h19c.827,0,1.5.673,1.5,1.5v14.5ZM10,4h1v7h-1v-7Zm3,0h4v1h-3v2h2v1h-2v3h-1v-7Zm-6,4.5h-1v-1h2v1.5c0,1.103-.897,2-2,2s-2-.897-2-2v-3c0-1.103.897-2,2-2s2,.897,2,2h-1c0-.552-.449-1-1-1s-1,.448-1,1v3c0,.552.449,1,1,1s1-.448,1-1"/>
</svg>
