<?xml version="1.0" encoding="UTF-8"?>
<svg xmlns="http://www.w3.org/2000/svg" id="Layer_1" data-name="Layer 1" viewBox="0 0 24 24">
  <path d="m1,21H0v-9.5c0-1.378,1.121-2.5,2.5-2.5h6.5v1H2.5c-.827,0-1.5.673-1.5,1.5v9.5Zm20.5-12h-6.5v1h6.5c.827,0,1.5.673,1.5,1.5v9.5h1v-9.5c0-1.378-1.121-2.5-2.5-2.5ZM11.5,1.293v16.707h1V1.29l4.15,4.067.699-.714L13.061.439c-.584-.585-1.537-.585-2.121,0l-4.25,4.25.707.707L11.5,1.293Zm11,21.707c-1.654,0-3-1.346-3-3h-1c0,1.654-1.346,3-3,3s-3-1.346-3-3h-1c0,1.654-1.346,3-3,3s-3-1.346-3-3h-1c0,1.654-1.346,3-3,3-.383,0-.756-.071-1.107-.211l-.369.93c.47.187.967.281,1.477.281,1.516,0,2.822-.857,3.5-2.104.678,1.246,1.984,2.104,3.5,2.104s2.822-.857,3.5-2.104c.678,1.246,1.984,2.104,3.5,2.104s2.822-.857,3.5-2.104c.678,1.246,1.984,2.104,3.5,2.104.51,0,1.007-.095,1.477-.281l-.369-.93c-.352.14-.725.211-1.107.211Z"/>
</svg>
