<?xml version="1.0" encoding="UTF-8"?>
<svg xmlns="http://www.w3.org/2000/svg" id="Layer_1" data-name="Layer 1" viewBox="0 0 24 24">
  <path d="M11.383,.021C6.605,.341,3,4.526,3,9.315v5.046c0,5.611,4.029,9.64,9,9.64h0c4.971,0,9-4.029,9-9v-6C21,3.833,16.623-.331,11.383,.021Zm.617,.979c3.35,0,6.221,2.072,7.411,5H4.589C5.779,3.072,8.65,1,12,1Zm7.912,15.124c-.279,1.076-1.25,1.876-2.412,1.876h-6c-.827,0-1.5-.673-1.5-1.5,0-.744,.561-1.38,1.304-1.478l.617-.082-.213-.585c-.14-.385-.208-.746-.208-1.105,0-1.792,1.458-3.25,3.25-3.25,1.602,0,2.947,1.153,3.197,2.743l.048,.301,.289,.096c.964,.32,1.623,1.178,1.701,2.167-.011,.276-.035,.549-.073,.817Zm.088-3.051c-.316-.322-.691-.592-1.121-.776-.438-1.927-2.13-3.297-4.129-3.297-2.343,0-4.25,1.906-4.25,4.25,0,.308,.036,.612,.11,.923-.948,.362-1.61,1.28-1.61,2.327,0,1.379,1.122,2.5,2.5,2.5h6c.6,0,1.156-.166,1.65-.433-1.314,2.623-4.022,4.433-7.15,4.433-4.411,0-8-3.589-8-8v-6c0-.692,.097-1.359,.263-2h15.473c.166,.641,.263,1.308,.263,2v4.073Z"/>
</svg>
