<?xml version="1.0" encoding="UTF-8"?>
<svg xmlns="http://www.w3.org/2000/svg" id="Layer_1" data-name="Layer 1" viewBox="0 0 24 24">
  <path d="m9,17v7h-1v-7h-2v-1h5v1h-2Zm14.5-1h-1.079l-1.671,3.024-1.671-3.024h-1.079l2.206,4.008-2.206,3.992h1.096l1.654-3.005,1.654,3.005h1.096l-2.206-3.992,2.206-4.008Zm-7.946,1.099l1.711,6.901h-1.03l-.496-2h-3.178l-.527,2h-1.034l1.827-6.935c.089-.385.353-.722.722-.911.369-.19.805-.205,1.191-.041.404.168.709.537.814.985Zm-.063,3.901l-.909-3.667c-.033-.143-.118-.251-.228-.297-.116-.049-.244-.046-.351.009-.105.054-.181.149-.206.261l-.973,3.695h2.667Zm2.509-13H4v-4h14v4Zm-1-3H5v2h12v-2ZM1,2.5c0-.827.673-1.5,1.5-1.5h17c.827,0,1.5.673,1.5,1.5v11.5h1V2.5c0-1.378-1.121-2.5-2.5-2.5H2.5C1.121,0,0,1.122,0,2.5v21.5h6v-1H1V2.5Zm3,9.5h2v-1h-2v1Zm6,0v-1h-2v1h2Zm4,0v-1h-2v1h2Zm4,0v-1h-2v1h2Z"/>
</svg>
