<?xml version="1.0" encoding="UTF-8"?>
<svg xmlns="http://www.w3.org/2000/svg" id="Layer_1" data-name="Layer 1" viewBox="0 0 24 24">
  <path d="M24,12c0,6.617-5.383,12-12,12-1.166,0-2.319-.167-3.428-.497l.285-.959c1.016,.302,2.073,.456,3.143,.456,6.065,0,11-4.935,11-11S18.065,1,12,1c-1.07,0-2.127,.153-3.143,.456l-.285-.959c1.109-.33,2.262-.497,3.428-.497,6.617,0,12,5.383,12,12Zm-11.996,6c.439,0,.879-.167,1.212-.5l3.727-3.642-.699-.715-3.73,3.646s-.008,.004-.011,.007V6h-1v10.794s-.01-.005-.015-.01l-3.726-3.642-.699,.715,3.722,3.638c.336,.336,.778,.504,1.219,.504Zm-8.353,1.163l-.759,.651c.748,.87,1.613,1.628,2.572,2.252l.546-.838c-.88-.573-1.673-1.268-2.359-2.065ZM.119,13.697c.16,1.128,.48,2.227,.952,3.266l.91-.414c-.433-.951-.726-1.958-.872-2.991l-.99,.14ZM.119,10.303l.99,.14c.146-1.033,.439-2.04,.872-2.991l-.91-.414c-.472,1.039-.792,2.137-.952,3.266ZM6.009,2.772l-.545-.838c-.954,.62-1.816,1.374-2.562,2.24l.758,.652c.685-.794,1.475-1.486,2.35-2.055Z"/>
</svg>
