<?xml version="1.0" encoding="UTF-8"?>
<svg xmlns="http://www.w3.org/2000/svg" id="Layer_1" data-name="Layer 1" viewBox="0 0 24 24">
  <path d="M17,7.046v-2.046c0-2.757-2.243-5-5-5S7,2.243,7,5v2.046c-2.52,.255-4.5,2.364-4.5,4.949,0,5.075,6.454,9.787,9.229,11.577l.271,.175,.271-.175c2.165-1.401,9.229-6.376,9.229-11.577,0-2.586-1.98-4.694-4.5-4.949ZM12,1c2.206,0,4,1.794,4,4v2.032c-1.761,.177-3.258,1.261-4,2.787-.742-1.526-2.239-2.611-4-2.787v-2.032c0-2.206,1.794-4,4-4Zm0,21.556c-2.318-1.53-8.5-6.039-8.5-10.56,0-2.206,1.794-4,4-4s4,1.796,4,4.004h1c0-2.208,1.794-4.004,4-4.004s4,1.794,4,4c0,3.652-4.34,7.812-8.5,10.56Zm-.5-8.691h1v3.271h-1v-3.271Z"/>
</svg>
