<?xml version="1.0" encoding="UTF-8"?>
<svg xmlns="http://www.w3.org/2000/svg" id="Layer_1" data-name="Layer 1" viewBox="0 0 24 24">
  <path d="M1,4.5c0,2.751,2.621,5.508,4.82,7.335h0c.693,.576,1.361,1.072,1.944,1.481-.166,.297-.31,.604-.422,.924-.637-.442-1.381-.988-2.16-1.635,0,0,0,0,0,0h0C2.817,10.64,0,7.639,0,4.5,0,2.019,2.019,0,4.5,0c1.752,0,3.257,1.017,4,2.484,.743-1.466,2.248-2.484,4-2.484,2.481,0,4.5,2.019,4.5,4.5,0,1.024-.317,2.035-.813,3.006-.308-.137-.624-.256-.951-.337,.479-.901,.764-1.801,.764-2.669,0-1.93-1.57-3.5-3.5-3.5s-3.5,1.572-3.5,3.504h-1c0-1.932-1.57-3.504-3.5-3.504S1,2.57,1,4.5Zm23.019,13.25c0,.886-.364,1.723-1.008,2.337,.005,.061,.008,.111,.008,.163,0,2.067-1.682,3.75-3.75,3.75-1.065,0-2.056-.447-2.759-1.223-.704,.775-1.694,1.223-2.76,1.223-1.982,0-3.593-1.551-3.725-3.5,0,0-.022-.359-.017-.413-.644-.615-1.008-1.452-1.008-2.337,0-.425,.088-.845,.261-1.25-.173-.405-.261-.825-.261-1.25,0-1.314,.804-2.489,2-2.988v-.012c0-1.792,1.458-3.25,3.25-3.25,.85,0,1.659,.335,2.26,.918,.601-.583,1.409-.918,2.259-.918,1.792,0,3.25,1.458,3.25,3.25v.012c1.196,.499,2,1.674,2,2.988,0,.425-.088,.845-.261,1.25,.173,.405,.261,.825,.261,1.25Zm-8.019,4.04V10.862c-.426-.536-1.064-.862-1.75-.862-1.241,0-2.25,1.01-2.25,2.25,0,.073,.082,.651,.082,.651l-.416,.187c-.981,.266-1.666,1.154-1.666,2.162,0,.345,.087,.688,.258,1.021l.117,.229-.117,.229c-.171,.333-.258,.677-.258,1.021,0,.434,.14,.846,.376,1.205,.573-1.153,1.752-1.955,3.124-1.955v1c-1.336,0-2.421,1.055-2.487,2.375,.067,1.457,1.264,2.625,2.737,2.625,.909,0,1.734-.456,2.25-1.21Zm6.644-5.29l.117-.229c.171-.333,.258-.677,.258-1.021,0-.838-.478-1.588-1.202-1.972-.433,1.286-1.637,2.222-3.068,2.222v-1c1.241,0,2.25-1.01,2.25-2.25h.019c0-1.24-1.009-2.25-2.25-2.25-.696,0-1.343,.333-1.769,.883v10.883c.514,.77,1.35,1.234,2.269,1.234,1.516,0,2.75-1.233,2.75-2.75,0-.066-.064-.581-.064-.581l.214-.173c.54-.435,.85-1.071,.85-1.746,0-.345-.087-.688-.258-1.021l-.117-.229Zm-4.644,3.5h1c0-1.103,.897-2,2-2v-1c-1.654,0-3,1.346-3,3Zm-6-6v1c1.654,0,3-1.346,3-3h-1c0,1.103-.897,2-2,2Z"/>
</svg>
