<?xml version="1.0" encoding="UTF-8"?>
<svg xmlns="http://www.w3.org/2000/svg" id="Layer_1" data-name="Layer 1" viewBox="0 0 24 24">
  <path d="m12.5,21h-1v-4h1v4Zm-.5,1c-.552,0-1,.448-1,1s.448,1,1,1,1-.448,1-1-.448-1-1-1Zm-6.996,2h4.496v-1h-2.754l5.254-9.008,5.254,9.008h-2.754v1h4.496l-6.996-11.992-6.996,11.992ZM17.002,5.022C15.87,2.004,12.999,0,9.75,0,5.477,0,2,3.477,2,7.75c0,.763.116,1.523.345,2.266-1.476,1.033-2.345,2.681-2.345,4.484,0,2.876,2.22,5.24,5.036,5.477l.57-.977c-2.481,0-4.606-2.019-4.606-4.5,0-1.583.822-3.021,2.2-3.847l.354-.212-.141-.388c-.273-.752-.412-1.527-.412-2.304,0-3.722,3.028-6.75,6.75-6.75,2.931,0,5.51,1.874,6.417,4.662l.11.338.355.007c3.512.07,6.368,2.983,6.368,6.493,0,2.977-2.014,5.487-4.749,6.254l.521.893c3.028-.965,5.229-3.802,5.229-7.146,0-3.933-3.108-7.216-6.998-7.478Z"/>
</svg>
