<?xml version="1.0" encoding="UTF-8"?>
<svg xmlns="http://www.w3.org/2000/svg" id="Layer_1" data-name="Layer 1" viewBox="0 0 24 24">
  <path d="m3,13c0,1.103.897,2,2,2s2-.897,2-2-.897-2-2-2-2,.897-2,2Zm3,0c0,.551-.448,1-1,1s-1-.449-1-1,.448-1,1-1,1,.449,1,1ZM21.5,0H2.5C1.121,0,0,1.122,0,2.5v15.5h15.023c-.233-.309-.433-.644-.594-1H1V6h22v6.036c.622.828,1,1.848,1,2.964V2.5c0-1.378-1.121-2.5-2.5-2.5ZM1,5v-2.5c0-.827.673-1.5,1.5-1.5h19c.827,0,1.5.673,1.5,1.5v2.5H1Zm23,16.5v2.5h-1v-2.5c0-.827-.673-1.5-1.5-1.5h-5c-.827,0-1.5.673-1.5,1.5v2.5h-1v-2.5c0-1.378,1.121-2.5,2.5-2.5h5c1.379,0,2.5,1.122,2.5,2.5Zm-5-3.5c1.654,0,3-1.346,3-3s-1.346-3-3-3-3,1.346-3,3,1.346,3,3,3Zm0-5c1.103,0,2,.897,2,2s-.897,2-2,2-2-.897-2-2,.897-2,2-2Z"/>
</svg>
