<?xml version="1.0" encoding="UTF-8"?>
<svg xmlns="http://www.w3.org/2000/svg" id="Layer_1" data-name="Layer 1" viewBox="0 0 24 24">
  <path d="M17,15c-4.208,0-6.237,3.268-6.758,4.269l-.121,.231,.121,.231c.522,1.001,2.551,4.269,6.758,4.269s6.236-3.268,6.759-4.269l.12-.231-.12-.231c-.521-1.001-2.551-4.269-6.759-4.269Zm0,8c-3.369,0-5.137-2.44-5.745-3.501,.688-1.212,2.426-3.499,5.745-3.499s5.059,2.288,5.746,3.5c-.688,1.212-2.428,3.5-5.746,3.5Zm0-5.5c-1.103,0-2,.897-2,2s.897,2,2,2,2-.897,2-2-.897-2-2-2Zm0,3c-.552,0-1-.449-1-1s.448-1,1-1,1,.449,1,1-.448,1-1,1ZM21.5,2H2.5C1.122,2,0,3.122,0,4.5v15.5H8v-1H1V10H23v5.185c.376,.318,.707,.648,1,.973V4.5c0-1.378-1.121-2.5-2.5-2.5ZM2.5,3H21.5c.827,0,1.5,.673,1.5,1.5v1.5H1v-1.5c0-.827,.673-1.5,1.5-1.5Zm-1.5,6v-2H23v2H1Zm2,6c0,1.103,.897,2,2,2s2-.897,2-2-.897-2-2-2-2,.897-2,2Zm3,0c0,.551-.449,1-1,1s-1-.449-1-1,.449-1,1-1,1,.449,1,1Z"/>
</svg>
