<?xml version="1.0" encoding="UTF-8"?>
<svg xmlns="http://www.w3.org/2000/svg" id="Layer_1" data-name="Layer 1" viewBox="0 0 24 24">
  <path d="m22,21v-10c0-1.083-.582-2.025-1.444-2.553L15.661,1.266c-.431-.752-1.233-1.266-2.161-1.266-1.378,0-2.5,1.122-2.5,2.5,0,.079.016.154.023.231l-3.284,3.269H3.062L.056,9.006l2.07,2.07,2.076-2.076h2.656l.143.143v2.656l-2.076,2.076,2.07,2.07,3.006-3.006v-4.677l2.631-2.632,3.406,4.998c-.016.124-.038.245-.038.373v10h-2v3h10v-3h-2Zm-1-10c0,1.103-.897,2-2,2s-2-.897-2-2,.897-2,2-2,2,.897,2,2Zm0,2.22v7.78h-4v-7.78c.532.48,1.229.78,2,.78s1.468-.301,2-.78Zm-12-.696l-2.006,2.006-.656-.656,1.662-1.662v-3.484l-.729-.729h-3.484l-1.662,1.662-.656-.656,2.006-2.006h4.263l1.261,1.261v4.263Zm.5-5.177l-.847-.847,2.714-2.714c.058.095.123.184.192.27l.499.731-2.558,2.559Zm2.5-4.847c0-.828.672-1.5,1.5-1.5s1.5.672,1.5,1.5-.672,1.5-1.5,1.5-1.5-.672-1.5-1.5Zm1.406,2.491c.032.001.062.009.094.009,1.09,0,2.009-.705,2.351-1.68l3.193,4.684c-.015,0-.029-.004-.043-.004-1.085,0-2.028.584-2.555,1.449l-3.039-4.458Zm9.594,18.009h-8v-1h8v1Z"/>
</svg>
