<?xml version="1.0" encoding="UTF-8"?>
<svg xmlns="http://www.w3.org/2000/svg" id="Layer_1" data-name="Layer 1" viewBox="0 0 24 24">
  <path d="M17.5,5c1.378,0,2.5-1.121,2.5-2.5s-1.122-2.5-2.5-2.5-2.5,1.121-2.5,2.5,1.122,2.5,2.5,2.5Zm0-4c.827,0,1.5,.673,1.5,1.5s-.673,1.5-1.5,1.5-1.5-.673-1.5-1.5,.673-1.5,1.5-1.5Zm3.429,17.243l-2.096-1.418,.706-4.927,3.855,2.203,.496-.869-4.198-2.4,.286-1.995c.098-.715-.119-1.438-.594-1.981-.475-.544-1.161-.856-1.883-.856-1.064,0-2.057,.475-2.725,1.303l-4.587,5.713,.779,.627,3.826-4.766-.834,5.865,6.168,4.112,2.942,4.903,.857-.514-3-5ZM15.999,7.506c.428-.323,.95-.506,1.501-.506,.433,0,.845,.188,1.13,.514,.285,.326,.415,.76,.356,1.186l-1.075,7.502-2.871-1.943,.96-6.753Zm-1.999,9.494l.891,.594-1.065,6.406h-1.018l1.192-7Zm-6.591-3.851c-1.512-1.046-3.05-.617-3.933,.511l-2.913,3.724c-.919,1.215-.688,2.964,.517,3.899l2.185,1.693c.344,.608,.988,1.024,1.735,1.024,1.103,0,2-.897,2-2,0-.693-.355-1.304-.892-1.663l4.001-5.144-2.699-2.044Zm-2.409,9.851c-.551,0-1-.448-1-1s.449-1,1-1,1,.448,1,1-.449,1-1,1Zm0-3c-.941,0-1.726,.655-1.938,1.531l-1.368-1.037c-.774-.601-.924-1.725-.343-2.493l2.923-3.736c.286-.378,1.291-1.238,2.523-.324l1.916,1.436-3.616,4.635c-.033-.002-.063-.01-.096-.01Z"/>
</svg>
