<?xml version="1.0" encoding="UTF-8"?>
<svg xmlns="http://www.w3.org/2000/svg" id="Layer_1" data-name="Layer 1" viewBox="0 0 24 24">
  <path d="M18.056,16.449l1.269-5.05,4.198,2.133,.453-.892-4.402-2.237,.349-1.39c.184-.724,.029-1.478-.426-2.07s-1.145-.936-1.891-.944c-.671-.007-1.324,.162-1.916,.497l-5.47,3.298L3.777,6.385c-.384-.241-.831-.385-1.309-.385-.754,0-1.456,.338-1.927,.927S-.104,8.275,.063,9.017l1.978,8.282,1.985-.49,1.791,7.192h1.029l-1.849-7.431,1.971-.486-2.047-7.978,5.33,2.84,5.081-3.064-1.267,5.478c-.251,1.071,.242,2.199,1.212,2.75l4.778,2.533,2.928,5.368,.878-.479-3.072-5.632-2.734-1.449Zm-15.277-.362l-1.742-7.296c-.099-.437,.005-.889,.285-1.239,.28-.35,.697-.551,1.146-.551,.669,0,1.253,.452,1.42,1.1l1.861,7.253-2.97,.733Zm12.261-2.502l1.469-6.349c.341-.138,.699-.227,1.087-.236,.438,.005,.842,.207,1.109,.554,.267,.347,.358,.79,.25,1.215l-1.809,7.197-1.387-.735c-.574-.326-.87-1.003-.719-1.647Zm3.46-8.584c1.378,0,2.5-1.122,2.5-2.5s-1.122-2.5-2.5-2.5-2.5,1.122-2.5,2.5,1.122,2.5,2.5,2.5Zm0-4c.827,0,1.5,.673,1.5,1.5s-.673,1.5-1.5,1.5-1.5-.673-1.5-1.5,.673-1.5,1.5-1.5ZM2.5,5c1.378,0,2.5-1.122,2.5-2.5S3.878,0,2.5,0,0,1.122,0,2.5s1.122,2.5,2.5,2.5ZM2.5,1c.827,0,1.5,.673,1.5,1.5s-.673,1.5-1.5,1.5-1.5-.673-1.5-1.5,.673-1.5,1.5-1.5ZM14.355,17.727l.684,.389-1.731,5.885h-1.147l1.966-6.41c.075,.047,.151,.093,.228,.136Z"/>
</svg>
