<?xml version="1.0" encoding="UTF-8"?>
<svg xmlns="http://www.w3.org/2000/svg" id="Layer_1" data-name="Layer 1" viewBox="0 0 24 24">
  <path d="m24,0v3c0,.551-.448,1-1,1h-3v-1h1.978c-.911-1.21-2.349-2-3.978-2-2.757,0-5,2.243-5,5h-1c0-3.309,2.691-6,6-6,2.099,0,3.932,1.092,5,2.731V0h1Zm-8,13.74c.326.083.659.148,1,.191v6.14c0,2.203-3.733,3.929-8.5,3.929S0,22.274,0,20.071V4.5C0,1.977,3.733,0,8.5,0c1.354,0,2.62.164,3.746.451-.26.269-.498.558-.719.862-.932-.198-1.956-.312-3.027-.312C4.435,1,1,2.603,1,4.5s3.435,3.5,7.5,3.5c.512,0,1.014-.026,1.5-.074v1.002c-.487.044-.986.071-1.5.071-3.287,0-6.081-.94-7.5-2.351v3.117c0,1.562,3.014,3.233,7.5,3.233.521,0,1.021-.025,1.5-.067v1c-.487.042-.986.067-1.5.067-3.287,0-6.081-.884-7.5-2.211v2.978c0,1.562,3.014,3.233,7.5,3.233s7.5-1.672,7.5-3.233v-1.027Zm0,6.331v-3.283c-1.419,1.327-4.213,2.211-7.5,2.211s-6.081-.884-7.5-2.211v3.283c0,1.385,3.08,2.929,7.5,2.929s7.5-1.544,7.5-2.929Zm2-9.071c-1.627,0-3.059-.791-3.969-2h1.969v-1h-3c-.551,0-1,.449-1,1v3h1v-2.705c1.074,1.626,2.91,2.705,5,2.705,3.309,0,6-2.691,6-6h-1c0,2.757-2.243,5-5,5Z"/>
</svg>
