<?xml version="1.0" encoding="UTF-8"?>
<svg xmlns="http://www.w3.org/2000/svg" id="Layer_1" data-name="Layer 1" viewBox="0 0 24 24">
  <path d="m19.658,12.525c-1.167-.389-2.175-.737-3.073-1.052l.565.175c1.173-3.782,1.658-7.402,1.8-8.648h4.272l.778-3h-1.01l-.584,2h-4.364l-.041.456c-.004.043-.397,4.34-1.803,8.88-.624-.22-1.206-.428-1.722-.613-3.401-1.219-4.809-1.724-7.478-1.724-.593,0-1.166.082-1.716.222l-1.607-5.222h3.323v-1H0v1h2.63l1.702,5.531c-2.54,1.051-4.332,3.554-4.332,6.469,0,3.164,2.112,5.842,5,6.705v1.295h1v-1.08c.328.047.66.08,1,.08h11v1h1v-1.034c2.786-.177,5-2.249,5-4.799,0-2.665-1.371-4.454-4.342-5.642Zm-1.033,9.475H7c-3.309,0-6-2.691-6-6s2.691-6,6-6c2.495,0,3.76.453,7.14,1.665,1.341.48,3.007,1.078,5.174,1.799,3.267,1.307,3.686,3.2,3.686,4.703,0,2.367-2.271,3.833-4.375,3.833ZM7,13c-1.654,0-3,1.346-3,3s1.346,3,3,3c1.483,0,2.71-1.084,2.949-2.5h3.051v-1h-3.051c-.24-1.416-1.466-2.5-2.949-2.5Zm0,5c-1.103,0-2-.897-2-2s.897-2,2-2,2,.897,2,2-.897,2-2,2Z"/>
</svg>
