<?xml version="1.0" encoding="UTF-8"?>
<svg xmlns="http://www.w3.org/2000/svg" id="Layer_1" data-name="Layer 1" viewBox="0 0 24 24">
  <path d="M13.215,15.618l-.216,.148v8.154l9.676-1.881-1.793-4.828c.241-.704,1.076-3.357,1.076-6.234C21.957,3.384,12.401,.208,12.001,.079c-.4,.129-9.941,3.304-9.941,10.896,0,2.876,.834,5.53,1.076,6.235l-1.811,4.829,9.674,1.881V15.767l-.216-.148c-1.878-1.298-3.78-3.205-3.78-4.339,0-1.367,.883-2.25,2.25-2.25,.434,0,.916,.203,1.277,.511l1.473,1.655,1.428-1.61c.407-.353,.889-.556,1.322-.556,1.367,0,2.25,.883,2.25,2.25,0,1.132-1.906,3.039-3.789,4.339Zm4.789-4.339c0-1.913-1.336-3.25-3.25-3.25-.681,0-1.383,.284-2.023,.846l-.728,.817-.771-.862c-.595-.517-1.297-.801-1.979-.801-1.914,0-3.25,1.337-3.25,3.25,0,1.974,2.976,4.278,3.996,5.01v6.419l-7.322-1.424,1.524-4.066-.064-.174c-.011-.029-1.077-2.963-1.077-6.068C3.06,4.611,10.805,1.565,12.001,1.134c1.198,.431,8.956,3.469,8.956,9.844,0,3.105-1.066,6.037-1.077,6.066l-.064,.174,1.511,4.066-7.328,1.424v-6.419c1.021-.732,4.004-3.038,4.004-5.01Z"/>
</svg>
