<?xml version="1.0" encoding="UTF-8"?>
<svg xmlns="http://www.w3.org/2000/svg" id="Layer_1" data-name="Layer 1" viewBox="0 0 24 24">
  <path d="m19.07,2.929c-1.889-1.889-4.399-2.929-7.07-2.929s-5.183,1.04-7.071,2.929c-3.898,3.899-3.898,10.243.004,14.146l7.067,6.912,7.07-6.916c3.898-3.899,3.898-10.243,0-14.142Zm-.703,13.431l-6.367,6.229-6.364-6.225c-3.509-3.509-3.509-9.219,0-12.728,1.7-1.7,3.96-2.636,6.364-2.636s4.664.936,6.363,2.636c3.509,3.509,3.509,9.219.004,12.724ZM9,6h1v8h-1V6Zm5.5,0h-2.5v8h1v-3h1.5c1.379,0,2.5-1.122,2.5-2.5s-1.121-2.5-2.5-2.5Zm0,4h-1.5v-3h1.5c.827,0,1.5.673,1.5,1.5s-.673,1.5-1.5,1.5Z"/>
</svg>
