<?xml version="1.0" encoding="UTF-8"?>
<svg xmlns="http://www.w3.org/2000/svg" id="Layer_1" data-name="Layer 1" viewBox="0 0 24 24">
  <path d="M1,14.535l1-1v10.465H1V14.535Zm3.972-3.972l.028,13.438,1-.002-.03-14.434-.998,.998Zm4.528-4.527l-.53,.53,.03,17.435,1-.002-.03-17.493-.47-.47ZM22.5,0h-5.5V1h5.293l-6.793,6.793L9.5,1.793,.057,11.236l.707,.707L9.5,3.207l6,6L23,1.707V7h1V1.5c0-.827-.673-1.5-1.5-1.5Zm1.5,18c0,3.309-2.691,6-6,6s-6-2.691-6-6,2.691-6,6-6,6,2.691,6,6Zm-1,0c0-2.757-2.243-5-5-5s-5,2.243-5,5,2.243,5,5,5,5-2.243,5-5Zm-1.646-2.646l-.913,.913c.349,.49,.56,1.086,.56,1.733s-.21,1.243-.56,1.733l.913,.913-.707,.707-.913-.913c-.49,.349-1.086,.56-1.733,.56s-1.243-.21-1.733-.56l-.913,.913-.707-.707,.913-.913c-.349-.49-.56-1.086-.56-1.733s.21-1.243,.56-1.733l-.913-.913,.707-.707,.913,.913c.49-.349,1.086-.56,1.733-.56s1.243,.21,1.733,.56l.913-.913,.707,.707Zm-3.354,4.646c1.103,0,2-.897,2-2s-.897-2-2-2-2,.897-2,2,.897,2,2,2Z"/>
</svg>
