<?xml version="1.0" encoding="UTF-8"?>
<svg xmlns="http://www.w3.org/2000/svg" id="Layer_1" data-name="Layer 1" viewBox="0 0 24 24">
  <path d="m16.118,15l2.876-13.899-.979-.202-2.917,14.101h-2.593V0h-1v15h-2.593L5.993.899l-.979.202,2.876,13.899H.032l1.206,3.29c1.094,2.183,2.038,2.621,3.926,2.695-.415.407-.801.964-1.207,1.776l-.453,1.239h1.063l.307-.843c1.037-2.072,1.652-2.157,3.84-2.157l5.937.005c2.854-.037,3.41.023,4.466,2.106l.324.889h1.063l-.471-1.286c-.393-.778-.766-1.332-1.173-1.731,1.921-.082,2.858-.563,3.961-2.752l1.179-3.231h-7.882Zm5.788,2.834c-1.08,2.137-1.641,2.194-4.496,2.16l-11.436.005c-2.188,0-2.803-.085-3.818-2.105l-.693-1.894h21.109l-.666,1.834Z"/>
</svg>
