<?xml version="1.0" encoding="UTF-8"?>
<svg xmlns="http://www.w3.org/2000/svg" id="Layer_1" data-name="Layer 1" viewBox="0 0 24 24">
  <path d="m14.707,0H4.5c-1.379,0-2.5,1.121-2.5,2.5v21.5h20V7.293L14.707,0Zm.293,1.707l5.293,5.293h-5.293V1.707ZM3,23V2.5c0-.827.673-1.5,1.5-1.5h9.5v7h7v15H3Zm9-10.5v3.001c-.418-.314-.938-.501-1.5-.501-1.379,0-2.5,1.121-2.5,2.5s1.121,2.5,2.5,2.5,2.5-1.121,2.5-2.5v-5c0-.275.225-.5.5-.5h2.5v-1h-2.5c-.827,0-1.5.673-1.5,1.5Zm-1.5,6.5c-.827,0-1.5-.673-1.5-1.5s.673-1.5,1.5-1.5,1.5.673,1.5,1.5-.673,1.5-1.5,1.5Z"/>
</svg>
