<?xml version="1.0" encoding="UTF-8"?>
<svg xmlns="http://www.w3.org/2000/svg" id="Layer_1" data-name="Layer 1" viewBox="0 0 24 24">
  <path d="m23.706,10.249l-5.674,1.368c.859-1.131,1.186-2.217.813-3.098-.495-1.167-2.055-1.688-4.416-1.468-1.501.215-2.469.539-3.405.852l-.464.168c-.274-.601-.427-1.086-.5-1.371,1.55-1.312,2.94-4.737,2.94-6.7h-1c0,1.702-1.361,5-2.67,6H3.71C2.034,4.257,1,1.976,1,0H0c0,2.264,1.182,4.861,3.089,6.795.766,1.524,1.474,2.678,2.215,3.672C2.103,12.554.479,14.883,1.155,16.476c.227.535.677.938,1.339,1.197.562.22,1.266.326,2.071.326,1.277,0,2.811-.273,4.436-.784v6.785h1v-7.127c.527-.194,1.059-.406,1.593-.647,2.136-.964,3.922-2.116,5.208-3.285l7.139-1.72-.234-.972ZM4.319,7h4.782c.2.759.77,2.428,2.198,4.042-1.159,1.056-2.149,1.381-2.842,1.446-1.643-1.579-2.798-2.953-4.138-5.488Zm6.863,8.315c-3.326,1.5-6.673,2.074-8.324,1.426-.402-.157-.665-.377-.783-.656-.396-.933.821-2.866,3.853-4.824.613.735,1.412,1.545,2.146,2.244.941-.025,2.619-.413,4.281-2.092l.346-.349-.343-.352c-.569-.582-.994-1.182-1.329-1.748l.312-.113c.894-.299,1.818-.609,3.206-.808,1.813-.174,3.076.153,3.377.865.566,1.335-2.064,4.294-6.742,6.405ZM6.5,5c1.378,0,2.5-1.122,2.5-2.5S7.878,0,6.5,0s-2.5,1.122-2.5,2.5,1.122,2.5,2.5,2.5Zm0-4c.827,0,1.5.673,1.5,1.5s-.673,1.5-1.5,1.5-1.5-.673-1.5-1.5.673-1.5,1.5-1.5Z"/>
</svg>
