<?xml version="1.0" encoding="UTF-8"?>
<svg xmlns="http://www.w3.org/2000/svg" id="Layer_1" data-name="Layer 1" viewBox="0 0 24 24">
  <path d="m21.5,5h-3.988c.517-.45.861-1.055.959-1.739.107-.755-.085-1.508-.543-2.118-.458-.611-1.126-1.006-1.881-1.114-.76-.105-1.509.085-2.118.542-.923.692-1.541,1.676-1.93,2.568-.389-.892-1.006-1.876-1.93-2.568C9.461.113,8.712-.079,7.952.029c-.755.108-1.423.503-1.881,1.114s-.65,1.363-.543,2.118c.099.687.445,1.294.958,1.739h-3.987c-1.379,0-2.5,1.122-2.5,2.5v4.5h2v12h9.34l.34-1H3v-11h12.145l.294-1H1v-3.5c0-.827.673-1.5,1.5-1.5h19c.827,0,1.5.673,1.5,1.5v3.5h-2.413l.294,1h3.119v-4.5c0-1.378-1.121-2.5-2.5-2.5Zm-13.006,0c-.761-.287-1.161-.586-1.252-.658-.396-.297-.653-.732-.724-1.223s.056-.979.354-1.376c.297-.397.731-.654,1.222-.724.497-.069.98.056,1.377.353,1.298.974,1.899,2.93,2.029,3.629h-3.006Zm8.988-1.881c-.07.491-.327.925-.742,1.237-.073.058-.472.356-1.233.644h-3.011c.14-.788.74-2.658,2.034-3.629.396-.296.879-.422,1.377-.353.49.07.925.327,1.222.725.298.396.424.885.354,1.376Zm1.017,8.381h-.971l-1.178,4.5h-4.35v.922l3.322,1.848-1.305,4.077.724.542,3.273-2.532,3.261,2.521.752-.523-1.327-4.029,3.3-1.91v-.916h-4.326l-1.176-4.5Zm.999,6.867l1.047,3.182-2.529-1.956-2.532,1.958,1.041-3.256-2.327-1.295h2.925l.892-3.405.89,3.405h2.957l-2.362,1.367Z"/>
</svg>
