<?xml version="1.0" encoding="UTF-8"?>
<svg xmlns="http://www.w3.org/2000/svg" id="Layer_1" data-name="Layer 1" viewBox="0 0 24 24">
  <path d="m20,18v-7.306c-.322.257-.659.496-1,.727v6.579h-9v3c0,1.103-.897,2-2,2s-2-.897-2-2V3c0-.771-.301-1.468-.78-2h8.575c.513-.376,1.033-.711,1.555-1H3C1.346,0,0,1.346,0,3v3h5v15c0,1.654,1.346,3,3,3h13c1.654,0,3-1.346,3-3v-3h-4ZM5,5H1v-2c0-1.103.897-2,2-2s2,.897,2,2v2Zm18,16c0,1.103-.897,2-2,2h-10.766c.476-.531.766-1.232.766-2v-2h12v2Zm-14-6h1c0-.655.055-1.326.159-2.001,3.131-.04,6.209-1.253,9.153-3.608,2.991-2.394,3.855-6.009,4.372-8.169l.302-1.222h-.643c-1.929,0-5.636.385-8.82,2.956-3.2,2.586-5.523,7.651-5.523,12.044ZM22.706,1.015c-.487,2.038-1.307,5.425-4.019,7.595-2.477,1.982-5.041,3.092-7.634,3.331.507-.562,4.629-5.091,7.447-7.441-3.198,1.6-6.509,4.967-7.871,6.45.849-2.862,2.494-5.577,4.524-7.216,2.626-2.121,5.653-2.633,7.554-2.72Z"/>
</svg>
