<?xml version="1.0" encoding="UTF-8"?>
<svg xmlns="http://www.w3.org/2000/svg" id="Layer_1" data-name="Layer 1" viewBox="0 0 24 24">
  <path d="m12.5,20h11.467l-1.89-7.14c-.29-1.096-1.284-1.86-2.417-1.86H4.369c-1.133,0-2.126.765-2.417,1.86L.062,20h11.438v3h-5.5v1h12v-1h-5.5v-3Zm2.559-4l.375,3h-6.867l.375-3h6.117Zm-5.992-1l.375-3h5.117l.375,3h-5.867Zm7.375,4l-.375-3h5.807l.794,3h-6.227Zm4.669-5.884l.499,1.884h-5.668l-.375-3h4.094c.68,0,1.276.459,1.45,1.116Zm-18.191,0c.174-.657.771-1.116,1.45-1.116h4.064l-.375,3H2.42l.499-1.884Zm-.764,2.884h5.778l-.375,3H1.361l.794-3Zm5.845-7h-4v-1h3c0-1.198.441-2.284,1.146-3.146l-2.157-2.157.707-.707,2.157,2.157c.739-.605,1.646-.995,2.647-1.096V0h1v3.051c1.001.101,1.908.491,2.646,1.096l2.157-2.157.707.707-2.157,2.157c.705.862,1.146,1.948,1.146,3.146h3v1h-4v-1c0-2.206-1.794-4-4-4s-4,1.794-4,4v1Z"/>
</svg>
