<?xml version="1.0" encoding="UTF-8"?>
<svg xmlns="http://www.w3.org/2000/svg" id="Layer_1" data-name="Layer 1" viewBox="0 0 24 24">
  <path d="m24,5.5v13.231c0,.618-.229,1.214-.645,1.676l-3.197,3.593h-1.344l3.799-4.263c.25-.277.387-.635.387-1.006V5.5c0-.827-.673-1.5-1.5-1.5s-1.5.673-1.5,1.5v9h-.007c0,.57-.19,1.14-.577,1.601l-3.099,3.206-.719-.695,3.075-3.179c.225-.268.333-.612.326-.957v-.01c-.01-.346-.136-.693-.382-.967-.267-.297-.634-.474-1.032-.496-.39-.014-.782.113-1.08.38l-3.858,3.55c.221.379.352.808.352,1.254v5.814h-1v-5.814c0-.418-.177-.821-.484-1.104l-4.026-3.704c-.292-.263-.677-.39-1.075-.375-.398.022-.766.198-1.032.496-.494.551-.508,1.394-.032,1.96l3.052,3.153-.719.695-3.075-3.179c-.399-.474-.595-1.053-.597-1.627h-.01V5.5c0-.827-.673-1.5-1.5-1.5s-1.5.673-1.5,1.5v13.231c0,.371.137.729.387,1.006l3.799,4.263h-1.344l-3.197-3.593c-.416-.462-.645-1.058-.645-1.676V5.5c0-1.378,1.121-2.5,2.5-2.5s2.5,1.122,2.5,2.5v6.999c.931-.7,2.26-.669,3.162.138l3.838,3.531,3.833-3.527c.502-.45,1.146-.68,1.808-.637.5.027.969.199,1.359.494v-6.997c0-1.378,1.121-2.5,2.5-2.5s2.5,1.122,2.5,2.5Zm-14.912,1.519l-2.588-1.493v-1.526h3.721l.997-3.636h1.586l.996,3.636h3.7v1.519l-2.621,1.539,1.301,3.302-1.268.875-2.901-2.328-2.907,2.306-1.218-.906,1.202-3.288Zm1.229-.446l-1.235,3.377.003.002,2.931-2.325,2.942,2.361h.002s-1.324-3.361-1.324-3.361l2.773-1.627h-3.372l-.996-3.636h-.059l-.997,3.636h-3.396l2.728,1.573Z"/>
</svg>
