<?xml version="1.0" encoding="UTF-8"?>
<svg xmlns="http://www.w3.org/2000/svg" id="Layer_1" data-name="Layer 1" viewBox="0 0 24 24">
  <path d="M23.992,10.802c-.06-.732-.439-1.401-1.043-1.836-.389-.28-.848-.419-1.315-.436,.155-.329,.245-.687,.245-1.062,0-.668-.26-1.296-.732-1.768-.563-.562-1.372-.781-2.135-.675,.118-.762-.108-1.568-.693-2.154-.762-.762-1.893-.919-2.817-.492-.034-.615-.28-1.191-.719-1.629-.975-.975-2.561-.976-3.535,0l-2.088,2.087c-.489,.49-.755,1.167-.73,1.859,.008,.229,.059,.45,.128,.665l-1.23-.276c-1.337-.359-2.706,.436-3.063,1.767h.003c-.001,.005-.005,.009-.006,.014l-1.599,6.712-2.662,2.662v1.414l3.568-3.569,1.662-6.974h0c.214-.799,1.035-1.274,1.857-1.055l4.3,.966c.8,.214,1.275,1.039,1.062,1.837-.215,.799-1.039,1.273-1.854,1.056l-3.021-.704-.227,.974,3.005,.7c.217,.058,.434,.086,.647,.086,1.103,0,2.115-.737,2.416-1.853,.006-.024,.006-.047,.011-.071,.313,.137,.651,.214,1.002,.214,.124,0,.245-.018,.365-.036-.11,.755,.116,1.551,.695,2.132,.487,.487,1.128,.731,1.768,.731,.122,0,.244-.017,.365-.035-.018,.12-.036,.241-.036,.364,0,.668,.26,1.296,.732,1.768,.388,.388,.88,.633,1.413,.708l-3.877,3.878c-.871,.871-1.96,1.502-3.148,1.827l-2.072,.565-2.837,2.836h1.414l1.942-1.942,1.816-.495c1.355-.37,2.598-1.091,3.592-2.084l6.706-6.707c.52-.519,.783-1.237,.725-1.97ZM9.866,5.656c-.265-.268-.424-.614-.437-.996-.016-.421,.14-.817,.438-1.115l2.088-2.087c.584-.585,1.537-.585,2.121,0,.283,.283,.439,.66,.439,1.061s-.156,.777-.439,1.061l-2.087,2.087c-.156,.156-.34,.269-.544,.344l-1.578-.354Zm3.542,2.192c-.09-.342-.247-.661-.469-.936-.045-.45,.108-.891,.429-1.211l2.121-2.122c.586-.584,1.536-.586,2.122,0,.584,.585,.584,1.537,0,2.122l-2.122,2.121c-.554,.555-1.509,.559-2.081,.026Zm2.788,2.803c-.584-.585-.584-1.537,0-2.122l2.122-2.121c.566-.565,1.555-.566,2.121,0,.283,.283,.439,.66,.439,1.061s-.156,.777-.439,1.061l-2.121,2.122c-.585,.584-1.539,.583-2.122,0Zm6.364,1.414l-1.414,1.414c-.567,.567-1.556,.567-2.121,0-.283-.283-.439-.66-.439-1.061s.156-.777,.439-1.061l1.339-1.339c.328-.328,.76-.498,1.179-.498,.294,0,.582,.084,.822,.257,.37,.267,.594,.659,.63,1.105,.035,.439-.123,.871-.435,1.182Zm.46,6.294l.959,.281c-.794,2.712-2.589,4.509-5.335,5.338l-.289-.957c2.436-.736,3.962-2.261,4.665-4.662Zm-2.5,0l.959,.281c-.422,1.442-1.376,2.397-2.835,2.838l-.289-.957c1.131-.342,1.839-1.049,2.165-2.162ZM.979,5.641L.021,5.359C.793,2.723,2.688,.828,5.355,.021l.289,.957C3.277,1.694,1.664,3.306,.979,5.641ZM5.355,2.521l.289,.957c-1.099,.332-1.848,1.08-2.165,2.162l-.959-.281c.41-1.402,1.417-2.41,2.835-2.838Z"/>
</svg>
