<?xml version="1.0" encoding="UTF-8"?>
<svg xmlns="http://www.w3.org/2000/svg" id="Layer_1" data-name="Layer 1" viewBox="0 0 24 24">
  <path d="m23.606,22.789l.371.93c-.47.187-.966.281-1.478.281-1.516,0-2.822-.857-3.5-2.103-.678,1.246-1.984,2.103-3.5,2.103s-2.822-.857-3.5-2.104c-.678,1.246-1.984,2.104-3.5,2.104s-2.822-.857-3.5-2.104c-.678,1.246-1.984,2.104-3.5,2.104-.511,0-1.007-.095-1.477-.281l.37-.93c.351.14.724.211,1.107.211,1.654,0,3-1.346,3-3h1c0,1.654,1.346,3,3,3s3-1.346,3-3h1c0,1.654,1.346,3,3,3s3-1.346,3-3h1c0,1.654,1.346,3,3,3,.384,0,.756-.071,1.106-.211Zm-2.606-8.789h-1c0,1.654-1.346,3-3,3-3.454,0-5-3.767-5-7.5,0-3.547,2.67-7.5,6.5-7.5.602,0,1.167.132,1.689.274l.399.064.435-.78-.438-.243c-1.552-.861-3.311-1.316-5.086-1.316C9.71,0,5,4.71,5,10.5v3c0,2.787-2.703,4.046-4.607,3.289l-.37.93c2.503.995,5.977-.752,5.977-4.219v-3C6,5.262,10.262,1,15.5,1c.547,0,1.093.048,1.63.142-3.719.784-6.13,4.687-6.13,8.358,0,5.084,2.411,8.5,6,8.5,1.516,0,2.822-.857,3.5-2.103.678,1.246,1.984,2.103,3.5,2.103v-1c-1.654,0-3-1.346-3-3Z"/>
</svg>
