<?xml version="1.0" encoding="UTF-8"?>
<svg xmlns="http://www.w3.org/2000/svg" id="Layer_1" data-name="Layer 1" viewBox="0 0 24 24">
  <path d="M9.5,6c1.654,0,3-1.346,3-3s-1.346-3-3-3-3,1.346-3,3,1.346,3,3,3Zm0-5c1.103,0,2,.897,2,2s-.897,2-2,2-2-.897-2-2,.897-2,2-2Zm10.86,21h2.64v1h-3.36l-2-6h-2.665c-.259,3.902-3.508,7-7.475,7-4.136,0-7.5-3.364-7.5-7.5,0-3.967,3.098-7.216,7-7.475v1c-3.351,.257-6,3.059-6,6.475,0,3.584,2.916,6.5,6.5,6.5,3.415,0,6.218-2.649,6.475-6h-2.475c-1.378,0-2.5-1.122-2.5-2.5V7h1v4h8v1H10v2.5c0,.827,.673,1.5,1.5,1.5h6.86l2,6ZM24,1.207l-2.793,2.793h2.793v1h-4v-1.207l2.793-2.793h-2.793V0h4V1.207Zm-6,6.793h-4v-1.207l2.793-2.793h-2.793v-1h4v1.207l-2.793,2.793h2.793v1Z"/>
</svg>
