<?xml version="1.0" encoding="UTF-8"?>
<svg xmlns="http://www.w3.org/2000/svg" id="Layer_1" data-name="Layer 1" viewBox="0 0 24 24">
  <path d="m10.884,5.076l-1.384-.77v-.384h1.812l.491-1.875h.404l.49,1.875h1.802v.382l-1.375.796.552,1.679-.312.218-1.359-1.051-1.364,1.055-.301-.226.543-1.698Zm-6.922-1.294C3.962,1.343,6.803,0,11.962,0s8,1.343,8,3.781c0,1.314-.994,2.046-1.962,2.533v2.686c0,3.309-2.691,6-6,6s-6-2.691-6-6v-2.681c-1.052-.507-2.038-1.222-2.038-2.538Zm13.038,5.219v-.745c-.868.314-2.503.745-5,.745s-4.132-.43-5-.745v.745c0,2.757,2.243,5,5,5s5-2.243,5-5ZM4.962,3.781c0,.708.488,1.203,1.742,1.762l.296.132v1.508c.592.251,2.231.816,5,.816s4.407-.565,5-.817v-1.503l.29-.134c1.188-.549,1.672-1.061,1.672-1.765,0-1.742-2.617-2.781-7-2.781s-7,1.04-7,2.781Zm16.038,12.219v8H3v-8h6.268l2.732,4.099,2.732-4.099h6.268Zm-4.662,3l.667-1h2.995v-1h-4.732l-3.268,4.901-3.268-4.901h-4.732v1h2.995l.667,1h-3.662v4h16v-4h-3.662Z"/>
</svg>
