<?xml version="1.0" encoding="UTF-8"?>
<svg xmlns="http://www.w3.org/2000/svg" id="Layer_1" data-name="Layer 1" viewBox="0 0 24 24">
  <path d="m23.368.637c-.49-.49-1.164-.715-1.853-.614-4.653.679-11.379,3.161-16.302,8.098-1.503,1.508-2.307,3.596-2.205,5.727.083,1.726.734,3.315,1.845,4.593L.018,23.274l.707.707,4.831-4.831c.072.064.138.133.213.195,1.34,1.107,2.991,1.648,4.664,1.648,2.1,0,4.233-.854,5.824-2.517,4.702-4.915,7.071-11.495,7.72-16.014.097-.678-.125-1.344-.61-1.827ZM5.561,17.732c-.935-1.1-1.482-2.459-1.553-3.933-.089-1.851.608-3.663,1.914-4.972.673-.675,1.371-1.283,2.079-1.849v8.315l-2.439,2.439Zm9.974.055c-2.496,2.609-6.505,2.955-9.128.788-.05-.042-.094-.088-.143-.131l6.444-6.443h6.991c-1.096,2.028-2.473,4.019-4.163,5.786Zm7.453-15.465c-.355,2.473-1.266,5.584-2.794,8.679h-6.486l4.275-4.274-.707-.707-8.275,8.274V6.22C14.48,2.257,20.357,1.202,21.659,1.013c.31,0,.779.108,1.002.331.259.259.378.615.326.978Z"/>
</svg>
