<?xml version="1.0" encoding="UTF-8"?>
<svg xmlns="http://www.w3.org/2000/svg" id="Layer_1" data-name="Layer 1" viewBox="0 0 24 24">
  <path d="M17.792,7.208c-.827-3.617-4.051-6.208-7.792-6.208C5.589,1,2,4.589,2,9c0,1.271,.308,2.526,.894,3.659-1.774,.953-2.894,2.797-2.894,4.841,0,3.032,2.467,5.5,5.5,5.5h10.5c4.411,0,8-3.589,8-8,0-3.741-2.591-6.966-6.208-7.792Zm-1.792,14.792H5.5c-2.481,0-4.5-2.019-4.5-4.5,0-1.826,1.092-3.457,2.782-4.156l.539-.224-.303-.498c-.667-1.098-1.019-2.351-1.019-3.622,0-3.86,3.14-7,7-7,3.372,0,6.265,2.406,6.878,5.722l.062,.338,.338,.062c3.315,.612,5.722,3.505,5.722,6.877,0,3.859-3.141,7-7,7Z"/>
</svg>
