<?xml version="1.0" encoding="UTF-8"?>
<svg xmlns="http://www.w3.org/2000/svg" id="Layer_1" data-name="Layer 1" viewBox="0 0 24 24">
  <path d="m10.5,5c1.378,0,2.5-1.121,2.5-2.5s-1.122-2.5-2.5-2.5-2.5,1.121-2.5,2.5,1.122,2.5,2.5,2.5Zm0-4c.827,0,1.5.673,1.5,1.5s-.673,1.5-1.5,1.5-1.5-.673-1.5-1.5.673-1.5,1.5-1.5ZM3.83,19H0v-1h3.17l.691-1.613c.113.086.217.181.34.258l.507.303-.879,2.051Zm19.205-10.683l-1.054,2.683h-3.98v1h3.588l-3.928,10h-6.659v-4.783l-3.171-1.897,2.781-6.521,1.927,3.201h3.462v-1h-2.897l-2.281-3.789c-.449-.747-1.27-1.211-2.142-1.211H3.032l-1.82,3.641.895.447,1.543-3.088h2.625l-2.034,4.861c-.461,1.124-.051,2.412.987,3.067l4.772,2.854v4.217H0v1h2v1h1v-1h12v1h1v-1h2.341l5.625-14.317-.932-.365ZM5.752,14.077c-.616-.39-.863-1.162-.587-1.833l2.194-5.244h1.32c.505,0,.977.263,1.252.684l-2.979,7.111-1.201-.718Z"/>
</svg>
