<?xml version="1.0" encoding="UTF-8"?>
<svg xmlns="http://www.w3.org/2000/svg" id="Layer_1" data-name="Layer 1" viewBox="0 0 24 24">
  <path d="M18.5,0H5.5c-1.378,0-2.5,1.122-2.5,2.5V24H21V2.5c0-1.378-1.121-2.5-2.5-2.5Zm1.5,23H4V2.5c0-.827,.673-1.5,1.5-1.5h13c.827,0,1.5,.673,1.5,1.5V23Zm-2-14c-.552,0-1,.448-1,1,0,.033,.016,.061,.019,.093-.745,.179-2.335,.668-3.447,1.792-.438-1.538-1.065-3.444-1.098-3.542l-.136-.412c.384-.14,.661-.5,.661-.932,0-.552-.448-1-1-1s-1,.448-1,1c0,.432,.277,.792,.661,.932l-.136,.412c-.033,.098-.66,2.004-1.098,3.542-1.112-1.124-2.71-1.616-3.446-1.794,.003-.032,.019-.059,.019-.092,0-.552-.448-1-1-1s-1,.448-1,1,.448,1,1,1c.085,0,.16-.028,.239-.048,.373,.404,1.761,2.012,1.761,3.548v2.5h8v-2.5c0-1.537,1.388-3.144,1.761-3.548,.079,.02,.154,.048,.239,.048,.552,0,1-.448,1-1s-.448-1-1-1Zm-3,5.5v1.5h-6v-1.5c0-1.142-.562-2.248-1.112-3.064,.833,.338,1.809,.902,2.329,1.801l.622,1.075,.296-1.206c.198-.805,.565-2.014,.865-2.969,.3,.955,.667,2.165,.865,2.969l.296,1.206,.622-1.075c.522-.901,1.497-1.465,2.33-1.802-.55,.816-1.114,1.924-1.114,3.066Z"/>
</svg>
