<?xml version="1.0" encoding="UTF-8"?>
<svg xmlns="http://www.w3.org/2000/svg" id="Layer_1" data-name="Layer 1" viewBox="0 0 24 24">
  <path d="m19.627,15.152c.627-.64,1.373-1.618,1.373-2.664v-.5h-5v.5c0,1.046.745,2.024,1.373,2.664-2.341.655-4.373,3.228-4.373,5.848,0,1.647,1.346,2.988,3,2.988h5c1.654,0,3-1.341,3-2.988,0-2.62-2.032-5.193-4.373-5.848Zm-2.536-2.164h2.818c-.245.713-.932,1.435-1.409,1.854-.478-.419-1.164-1.141-1.409-1.854Zm3.909,10h-5c-1.103,0-2-.892-2-1.988,0-2.426,2.322-4.888,4.5-5,2.178.112,4.5,2.574,4.5,5,0,1.097-.897,1.988-2,1.988Zm-7-10.5v-.488H1c.003-.479.266-.919.685-1.147l7.792-4.19c.16-.086.341-.131.523-.131s.363.045.522.131l6.186,3.326h2.104c-.008-.005-.014-.012-.023-.017l-7.793-4.19c-.156-.084-.323-.146-.496-.188v-.803l3.971-2.269-3.999-2.521h-.972v5.593c-.172.042-.339.104-.496.188L1.208,9.973c-.746.406-1.208,1.187-1.208,2.035v.992h2v8H.003l-.02,2.997,1,.006.013-2.003h10.105c-.066-.323-.101-.658-.101-1h-2v-8h2v8c0-1.311.372-2.598,1-3.745v-4.255h2.055c-.021-.17-.055-.335-.055-.512ZM10.5,1.2l2.029,1.278-2.029,1.16V1.2Zm-5.5,19.8h-2v-8h2v8Zm3,0h-2v-8h2v8Z"/>
</svg>
