<?xml version="1.0" encoding="UTF-8"?>
<svg xmlns="http://www.w3.org/2000/svg" id="Layer_1" data-name="Layer 1" viewBox="0 0 24 24">
  <path d="m5,19.013c0,.552-.448,1-1,1s-1-.448-1-1,.448-1,1-1,1,.448,1,1Zm7-1c-.552,0-1,.448-1,1s.448,1,1,1,1-.448,1-1-.448-1-1-1Zm-4,0c-.552,0-1,.448-1,1s.448,1,1,1,1-.448,1-1-.448-1-1-1ZM24,2v12.513c0,1.378-1.122,2.5-2.5,2.5h-4.5v-1.207l6-6V3.184l-7,6.534v3.795c0,1.055-.659,1.954-1.584,2.321.956.732,1.584,1.872,1.584,3.167,0,2.206-1.794,4-4,4H3.937C1.731,23-.063,21.206-.063,19c0-1.302.635-2.45,1.602-3.181-.902-.378-1.538-1.269-1.538-2.306v-4.511h5V1l5.063-.013c.985,0,1.88.581,2.282,1.479l2.971,6.521h0l7.487-6.987h1.197ZM6,9l8.217-.013-2.783-6.109c-.242-.543-.78-.891-1.371-.891l-4.063.013v7Zm6.126,7.013H3.811c-1.595.067-2.874,1.376-2.874,2.987,0,1.654,1.346,3,3,3h8.063c1.654,0,3-1.346,3-3,0-1.611-1.279-2.92-2.874-2.987Zm2.874-6.025l-14,.011v3.514c0,.827.673,1.5,1.5,1.5h11c.827,0,1.5-.673,1.5-1.5v-3.525Zm8,1.232l-4.793,4.793h3.293c.827,0,1.5-.673,1.5-1.5v-3.293Z"/>
</svg>
