<?xml version="1.0" encoding="UTF-8"?>
<svg xmlns="http://www.w3.org/2000/svg" id="Layer_1" data-name="Layer 1" viewBox="0 0 24 24">
  <path d="m4.385,10.308l1.219.905,2.906-2.306,2.901,2.327,1.269-.876-1.302-3.302,2.622-1.538v-1.519h-3.701l-.996-3.637h-1.585l-.997,3.637h-3.721v1.526l2.588,1.492-1.203,3.289Zm-.296-5.308h3.395l.997-3.637h.06l.996,3.637h3.372l-2.774,1.627,1.325,3.36h-.002s-2.942-2.359-2.942-2.359l-2.931,2.325-.003-.003,1.235-3.377-2.726-1.573Zm19.091,4.654c-.497-.451-1.143-.687-1.809-.651-.67.031-1.288.321-1.739.817l-3.732,4.103c-.314-1.108-1.335-1.923-2.542-1.923H2.5c-1.378,0-2.5,1.121-2.5,2.5v7c0,1.379,1.122,2.5,2.5,2.5h11.224l9.639-10.817c.911-1.023.829-2.605-.183-3.528Zm-.564,2.862l-9.34,10.483H2.5c-.827,0-1.5-.673-1.5-1.5v-7c0-.827.673-1.5,1.5-1.5h10.858c.905,0,1.642.737,1.642,1.643,0,.812-.606,1.511-1.404,1.624l-5.661.737.129.992,5.667-.738c1.022-.146,1.845-.878,2.146-1.823l4.495-4.94c.272-.299.644-.474,1.047-.492.398-.021.79.121,1.088.392.609.556.658,1.508.109,2.123Z"/>
</svg>
