<?xml version="1.0" encoding="UTF-8"?>
<svg xmlns="http://www.w3.org/2000/svg" id="Layer_1" data-name="Layer 1" viewBox="0 0 24 24">
  <path d="M12,11.082l9.291-4.866L12.971,.089c-.159-.058-.343-.089-.53-.089-.848,0-1.44,.617-1.44,1.5V19h1v-7.918Zm0-9.582c0-.332,.148-.5,.44-.5,.046,0,.092,.005,.132,.013l6.84,5.058-7.412,3.883V1.5Zm11.991,17.081c-.092,3.045-5.322,5.419-11.991,5.419S.101,21.625,.009,18.581c-.008-.048-.009-.081-.009-.081,0-2.607,3.772-4.73,9-5.326v1.008c-4.558,.55-8,2.303-8,4.319,0,2.439,5.037,4.5,11,4.5s11-2.061,11-4.5c0-2.161-3.954-4.021-9-4.419v-1.002c5.742,.425,10,2.65,10,5.421,0,0,0,.033-.009,.081Z"/>
</svg>
