<?xml version="1.0" encoding="UTF-8"?>
<svg xmlns="http://www.w3.org/2000/svg" id="Layer_1" data-name="Layer 1" viewBox="0 0 24 24">
  <path d="m21,24H3v-2.591c0-3.362,1.751-6.525,5.207-9.409C4.712,9.085,2.961,5.89,3,2.494,3.016,1.133,4.136.025,5.496.025l13.002-.004c1.365,0,2.487,1.109,2.502,2.474.037,3.383-1.715,6.579-5.209,9.505,3.457,2.896,5.209,6.06,5.209,9.409v2.591Zm-17-1h16v-1.591c0-3.182-1.787-6.215-5.312-9.018l-.492-.392.492-.392c3.561-2.829,5.347-5.893,5.312-9.103-.009-.818-.683-1.484-1.502-1.484l-13.002.004c-.815,0-1.486.664-1.496,1.48-.037,3.223,1.75,6.284,5.311,9.102l.495.393-.495.392c-3.523,2.789-5.311,5.823-5.311,9.018v1.591Z"/>
</svg>
