<?xml version="1.0" encoding="UTF-8"?>
<svg xmlns="http://www.w3.org/2000/svg" id="Layer_1" data-name="Layer 1" viewBox="0 0 24 24">
  <path d="m16.181,3.474l-3.474-3.474h-6.414l-3.474,3.474,6.681,7.794,6.681-7.794Zm-9.041.526l1.625,4.873-4.177-4.873h2.553Zm7.274,0l-4.177,4.873,1.625-4.873h2.553Zm-3.607,0l-1.306,3.919-1.306-3.919h2.612Zm-2.612-1l.667-2h1.279l.667,2h-2.612Zm6.099,0h-2.432l-.667-2h1.099l2,2ZM6.707,1h1.099l-.667,2h-2.432l2-2Zm16.474,8.655c-.496-.452-1.141-.675-1.809-.652-.67.032-1.288.322-1.739.818l-3.732,4.102c-.314-1.108-1.335-1.923-2.543-1.923H2.5c-1.379,0-2.5,1.121-2.5,2.5v7c0,1.379,1.121,2.5,2.5,2.5h11.225l9.638-10.817c.912-1.022.831-2.604-.182-3.528Zm-.564,2.862l-9.341,10.483H2.5c-.827,0-1.5-.673-1.5-1.5v-7c0-.827.673-1.5,1.5-1.5h10.857c.905,0,1.643.737,1.643,1.643,0,.812-.605,1.511-1.403,1.624l-5.661.737.129.992,5.667-.738c1.021-.146,1.845-.878,2.146-1.823l4.496-4.941c.271-.298.643-.473,1.046-.492.398-.02.789.12,1.088.393.609.555.658,1.507.109,2.123Z"/>
</svg>
