<?xml version="1.0" encoding="UTF-8"?>
<svg xmlns="http://www.w3.org/2000/svg" id="Layer_1" data-name="Layer 1" viewBox="0 0 24 24">
  <path d="M1,1h15V0H0V21.5c0,1.379,1.122,2.5,2.5,2.5H13.5c1.379,0,2.5-1.121,2.5-2.5v-4.5H1V1ZM15,18v3.5c0,.827-.673,1.5-1.5,1.5H2.5c-.827,0-1.5-.673-1.5-1.5v-3.5H15ZM21.499,3.001h-7c-.665,0-1.293,.26-1.766,.733-.473,.475-.733,1.102-.733,1.767l.002,7.911c0,.589,.309,1.108,.826,1.392,.242,.132,.502,.198,.762,.198,.296,0,.591-.085,.855-.255l2.702-1.747h6.853V5.501c0-1.379-1.122-2.5-2.501-2.5Zm1.501,8.999h-6.147l-2.948,1.906c-.185,.118-.408,.125-.597,.021-.191-.105-.306-.297-.306-.515l-.002-7.911c0-.398,.156-.774,.44-1.06,.284-.284,.66-.441,1.059-.441h7c.827,0,1.501,.674,1.501,1.501v6.499Zm-3.75-6.5c-.489,0-.932,.216-1.25,.564-.318-.349-.761-.564-1.25-.564-.965,0-1.75,.841-1.75,1.875,0,1.658,2.442,3.352,2.721,3.54l.279,.188,.279-.188c.278-.188,2.721-1.882,2.721-3.54,0-1.034-.785-1.875-1.75-1.875Zm-1.25,4.387c-.869-.646-2-1.744-2-2.512,0-.482,.337-.875,.75-.875s.75,.393,.75,.875h1c0-.482,.337-.875,.75-.875s.75,.393,.75,.875c0,.768-1.131,1.865-2,2.512Zm-8,11.113H6v-1h4v1Z"/>
</svg>
