<?xml version="1.0" encoding="UTF-8"?>
<svg xmlns="http://www.w3.org/2000/svg" id="Layer_1" data-name="Layer 1" viewBox="0 0 24 24">
  <path d="m23.982,15.726l-3.775,3.774,3.775,3.774-.707.707-3.775-3.774-3.775,3.774-.707-.707,3.775-3.774-3.775-3.774.707-.707,3.775,3.774,3.775-3.774.707.707ZM1,12C1,5.935,5.935,1,12,1s11,4.935,11,11c0,.338-.021.67-.051,1h1c.027-.331.051-.662.051-1C24,5.383,18.617,0,12,0S0,5.383,0,12s5.383,12,12,12c.338,0,.669-.023,1-.051v-1c-.33.03-.662.051-1,.051-6.065,0-11-4.935-11-11Zm11-.283l-4.757,2.854.515.857,5.243-3.146v-7.283h-1v6.717Z"/>
</svg>
