<?xml version="1.0" encoding="UTF-8"?>
<svg xmlns="http://www.w3.org/2000/svg" id="Layer_1" data-name="Layer 1" viewBox="0 0 24 24">
  <path d="M5.5,5c1.379,0,2.5-1.121,2.5-2.5S6.879,0,5.5,0,3,1.121,3,2.5s1.121,2.5,2.5,2.5Zm0-4c.827,0,1.5,.673,1.5,1.5s-.673,1.5-1.5,1.5-1.5-.673-1.5-1.5,.673-1.5,1.5-1.5Zm13,4c1.379,0,2.5-1.121,2.5-2.5s-1.121-2.5-2.5-2.5-2.5,1.121-2.5,2.5,1.121,2.5,2.5,2.5Zm0-4c.827,0,1.5,.673,1.5,1.5s-.673,1.5-1.5,1.5-1.5-.673-1.5-1.5,.673-1.5,1.5-1.5Zm-2.5,7.425c0-1.337-1.01-2.425-2.25-2.425-.706,0-1.337,.353-1.75,.902-.413-.55-1.044-.902-1.75-.902-1.24,0-2.25,1.088-2.25,2.425,0,2.212,3.331,4.632,3.711,4.9l.289,.204,.289-.204c.38-.269,3.711-2.688,3.711-4.9Zm-4,3.871c-1.046-.799-3-2.562-3-3.871,0-.785,.561-1.425,1.25-1.425s1.25,.64,1.25,1.425v.575h1v-.575c0-.785,.561-1.425,1.25-1.425s1.25,.64,1.25,1.425c0,1.306-1.955,3.071-3,3.871Zm9,7.704v4h-1v-4h-3v4h-1v-4h-2.951l.993-5.489c.35-.274,.769-.625,1.205-1.04l-1,5.529h8.521l-1.921-10.764c-.128-.716-.749-1.236-1.477-1.236h-1.615c-.113-.342-.254-.67-.439-.968,.117-.017,.235-.032,.356-.032h1.698c1.212,0,2.247,.866,2.461,2.061l2.13,11.939h-2.96Zm-11.042-5.489l.993,5.489h-2.951v4h-1v-4h-3v4h-1v-4H.04L2.17,8.061c.214-1.194,1.249-2.061,2.461-2.061h1.698c.121,0,.239,.015,.356,.032-.186,.299-.327,.626-.439,.968h-1.615c-.728,0-1.349,.521-1.477,1.236l-1.921,10.764H9.754l-1-5.529c.436,.415,.854,.766,1.205,1.04Z"/>
</svg>
