<?xml version="1.0" encoding="UTF-8"?>
<svg xmlns="http://www.w3.org/2000/svg" id="Layer_1" data-name="Layer 1" viewBox="0 0 24 24">
  <path d="m24,20.5c0,1.93-1.57,3.5-3.5,3.5h-8.5v-1h8.5c1.379,0,2.5-1.121,2.5-2.5s-1.121-2.5-2.5-2.5H5.5c-3.033,0-5.5-2.468-5.5-5.5s2.467-5.5,5.5-5.5h3.5v1h-3.5c-2.481,0-4.5,2.019-4.5,4.5s2.019,4.5,4.5,4.5h15c1.93,0,3.5,1.57,3.5,3.5Zm-18,3.5h4v-1h-4v1ZM12,7.09l-2-5.47c0-.268.063-.534.184-.771.199-.39.543-.679.947-.794.393-.109.802-.055,1.155.158l11.658,7.285-11.654,7.284c-.237.145-.5.217-.761.217-1.528,0-1.529-1.201-1.527-1.625l2-5.465v-.82Zm.836-.538l6.164.948-6.131.943-1.864,5.013c.015.142.073.274.164.374.032.034.069.066.109.092.154.1.334.104.486.011l10.293-6.434L11.761,1.065c-.137-.084-.269-.071-.356-.048-.139.039-.256.141-.329.285-.038.074-.062.155-.071.239l1.832,5.01ZM0,24h4v-1H0v1Z"/>
</svg>
