<?xml version="1.0" encoding="UTF-8"?>
<svg xmlns="http://www.w3.org/2000/svg" id="Layer_1" data-name="Layer 1" viewBox="0 0 24 24">
  <path d="m9,15h-1v-.5c0-.827-.673-1.5-1.5-1.5h-2c-.827,0-1.5.673-1.5,1.5v.5h-1c-1.103,0-2,.897-2,2v7h11v-7c0-1.103-.897-2-2-2Zm-5-.5c0-.275.224-.5.5-.5h2c.276,0,.5.225.5.5v.5h-3v-.5Zm-2,1.5h7c.551,0,1,.448,1,1v1H1v-1c0-.552.449-1,1-1Zm-1,7v-4h4v2h1v-2h4v4H1ZM19,5.984l4.942-2.978-4.851-3.006h-1.091v10h1v-4.016Zm0-4.863l3.024,1.874-3.024,1.822V1.12Zm5,17.38c0,1.93-1.57,3.5-3.5,3.5h-6.5v-1h6.5c1.378,0,2.5-1.121,2.5-2.5s-1.122-2.5-2.5-2.5h-5c-1.93,0-3.5-1.57-3.5-3.5s1.57-3.5,3.5-3.5h.5v1h-.5c-1.378,0-2.5,1.121-2.5,2.5s1.122,2.5,2.5,2.5h5c1.93,0,3.5,1.57,3.5,3.5Z"/>
</svg>
