<?xml version="1.0" encoding="UTF-8"?>
<svg xmlns="http://www.w3.org/2000/svg" id="Layer_1" data-name="Layer 1" viewBox="0 0 24 24">
  <path d="m21.5,0H2.5C1.122,0,0,1.122,0,2.5v5.5h1v16h10.344c-.375-.304-.721-.641-1.043-1H2v-15h20v1.521c.351.235.686.491,1,.772v-2.292h1V2.5c0-1.378-1.121-2.5-2.5-2.5Zm1.5,7H1V2.5c0-.827.673-1.5,1.5-1.5h19c.827,0,1.5.673,1.5,1.5v4.5Zm-5.5,4c-3.584,0-6.5,2.916-6.5,6.5s2.916,6.5,6.5,6.5,6.5-2.916,6.5-6.5-2.916-6.5-6.5-6.5Zm0,12c-3.032,0-5.5-2.467-5.5-5.5s2.468-5.5,5.5-5.5,5.5,2.467,5.5,5.5-2.468,5.5-5.5,5.5Zm.5-5.707l1.854,1.854-.707.707-2.146-2.146v-3.707h1v3.293Z"/>
</svg>
