<?xml version="1.0" encoding="UTF-8"?>
<svg xmlns="http://www.w3.org/2000/svg" id="Layer_1" data-name="Layer 1" viewBox="0 0 24 24">
  <path d="m24,3v4.5c0,.827-.673,1.5-1.5,1.5h-4.5v-1h4.244c-1.639-4.193-5.729-7-10.244-7C5.935,1,1,5.935,1,12c0,4.67,2.906,8.77,7.266,10.341.629.226,1.287.393,1.962.503.122.386.281.753.496,1.086-2.224-.43-3.257-.816-3.257-.816C2.965,21.284,0,16.93,0,12,0,5.383,5.383,0,12,0c4.773,0,9.109,2.876,11,7.216V3h1Zm-7,18.5c0,1.379-1.122,2.5-2.5,2.5s-2.5-1.121-2.5-2.5v-3c0-1.379,1.122-2.5,2.5-2.5h1.5v1h-1.5c-.827,0-1.5.673-1.5,1.5v1.001c.418-.314.938-.501,1.5-.501,1.378,0,2.5,1.121,2.5,2.5Zm-1,0c0-.827-.673-1.5-1.5-1.5s-1.5.673-1.5,1.5.673,1.5,1.5,1.5,1.5-.673,1.5-1.5Zm8-3v3c0,1.379-1.122,2.5-2.5,2.5s-2.5-1.121-2.5-2.5v-3c0-1.379,1.122-2.5,2.5-2.5s2.5,1.121,2.5,2.5Zm-1,0c0-.827-.673-1.5-1.5-1.5s-1.5.673-1.5,1.5v3c0,.827.673,1.5,1.5,1.5s1.5-.673,1.5-1.5v-3ZM13,5.5h-1v6.5h-5.5v1h6.5v-7.5Z"/>
</svg>
