<?xml version="1.0" encoding="UTF-8"?>
<svg xmlns="http://www.w3.org/2000/svg" id="Layer_1" data-name="Layer 1" viewBox="0 0 24 24">
  <path d="M13,17.987v.013c0,.552-.448,1-1,1s-1-.448-1-1v-.013c0-.552,.448-1,1-1s1,.448,1,1ZM21,2V21.5c0,1.378-1.122,2.5-2.5,2.5H5.5c-1.378,0-2.5-1.122-2.5-2.5V2h5.05c.232-1.14,1.242-2,2.45-2h3c1.208,0,2.217,.86,2.45,2h5.05Zm-1,1h-5v-.5c0-.827-.673-1.5-1.5-1.5h-3c-.827,0-1.5,.673-1.5,1.5v.5H4V21.5c0,.827,.673,1.5,1.5,1.5h13c.827,0,1.5-.673,1.5-1.5V3Zm-7.075,3.12c-1.085-.283-2.202-.059-3.066,.612-.864,.668-1.359,1.678-1.359,2.769h1c0-.779,.354-1.5,.971-1.978s1.421-.638,2.204-.435c.839,.217,1.521,.899,1.738,1.739,.314,1.216-.247,2.427-1.364,2.944-.941,.435-1.549,1.442-1.549,2.564v.666h1v-.666c0-.734,.38-1.384,.969-1.657,1.562-.723,2.349-2.409,1.913-4.101-.306-1.186-1.271-2.15-2.457-2.457Z"/>
</svg>
