<?xml version="1.0" encoding="UTF-8"?>
<svg xmlns="http://www.w3.org/2000/svg" id="Layer_1" data-name="Layer 1" viewBox="0 0 24 24">
  <path d="m12,5.038c1.378,0,2.5-1.121,2.5-2.5S13.378.038,12,.038s-2.5,1.121-2.5,2.5,1.122,2.5,2.5,2.5Zm0-4c.827,0,1.5.673,1.5,1.5,0,.47-.222.885-.561,1.16-.13-.402-.494-.698-.939-.698s-.81.296-.939.698c-.339-.275-.561-.69-.561-1.16,0-.827.673-1.5,1.5-1.5Zm6,4c1.378,0,2.5-1.121,2.5-2.5S19.378.038,18,.038s-2.5,1.121-2.5,2.5,1.122,2.5,2.5,2.5Zm0-4c.827,0,1.5.673,1.5,1.5,0,.47-.222.885-.561,1.16-.13-.402-.494-.698-.939-.698s-.81.296-.939.698c-.339-.275-.561-.69-.561-1.16,0-.827.673-1.5,1.5-1.5ZM6,5.038c1.378,0,2.5-1.121,2.5-2.5S7.378.038,6,.038s-2.5,1.121-2.5,2.5,1.122,2.5,2.5,2.5Zm0-4c.827,0,1.5.673,1.5,1.5,0,.47-.222.885-.561,1.16-.13-.402-.494-.698-.939-.698s-.81.296-.939.698c-.339-.275-.561-.69-.561-1.16,0-.827.673-1.5,1.5-1.5Zm15.749,9.247c-.638-2.555-2.343-4.069-4.698-4.249.349.352.671.738.949,1.173,1.387.436,2.339,1.558,2.779,3.318.08.319.194.906.328,1.651l-1.379.919c.059.348.12.708.181,1.081l1.385-.924c.551,3.218,1.295,8.086,1.547,9.745h-3.572c-.315-2.084-1.669-10.973-2.105-12.715-.68-2.724-2.562-4.285-5.165-4.285s-4.484,1.562-5.165,4.285c-.436,1.742-1.79,10.631-2.105,12.715H1.158c.251-1.656.993-6.511,1.544-9.729l1.386.924c.062-.372.122-.733.181-1.081l-1.379-.919c.135-.753.251-1.346.331-1.667.44-1.76,1.392-2.882,2.779-3.318.278-.435.6-.821.949-1.173-2.355.18-4.059,1.695-4.698,4.249C1.768,12.219-.003,24-.003,24h24.007s-1.771-11.781-2.255-13.715Zm-9.749-3.285c2.167,0,3.618,1.22,4.195,3.527.092.368.229,1.086.39,2l-1.585,1.057v-4.042l-3,2.001-3-2.001v4.042l-1.585-1.057c.161-.914.299-1.632.39-2,.577-2.308,2.027-3.527,4.195-3.527Zm-2,7.25v-2.839l2,1.333,2-1.333v2.839l-2,1.334-2-1.334Zm-2.771-.645l4.771,3.18,4.771-3.18c.544,3.214,1.245,7.801,1.487,9.395H5.742c.242-1.594.943-6.181,1.487-9.395Z"/>
</svg>
