<?xml version="1.0" encoding="UTF-8"?>
<svg xmlns="http://www.w3.org/2000/svg" id="Layer_1" data-name="Layer 1" viewBox="0 0 24 24">
  <path d="M17.5,11c-3.584,0-6.5,2.916-6.5,6.5s2.916,6.5,6.5,6.5,6.5-2.916,6.5-6.5-2.916-6.5-6.5-6.5Zm5.5,6.5c0,1.337-.48,2.563-1.276,3.517l-7.74-7.741c.954-.796,2.18-1.276,3.517-1.276,3.032,0,5.5,2.467,5.5,5.5Zm-11,0c0-1.337,.48-2.563,1.276-3.517l7.74,7.741c-.954,.796-2.18,1.276-3.517,1.276-3.032,0-5.5-2.467-5.5-5.5Zm-.974,5.5c.306,.36,.641,.695,1.003,1h-1.028C4.935,24,0,19.065,0,13H1c0,5.514,4.486,10,10,10h.026ZM4,12v-4C4,3.589,7.589,0,12,0s8,3.589,8,8v1.375c-.325-.1-.66-.174-1-.235v-1.14c0-.34-.033-.672-.08-1h-4.92v-1h4.705c-.863-2.888-3.541-5-6.705-5S6.158,3.112,5.295,6h4.705v1H5.08c-.047,.328-.08,.66-.08,1v1.5h5v1H5v1.5c0,.34,.027,.673,.074,1h4.926v1H5.293c.576,1.92,1.957,3.495,3.749,4.335,.039,.398,.113,.786,.205,1.166-3.057-1.126-5.247-4.059-5.247-7.502Z"/>
</svg>
