<?xml version="1.0" encoding="UTF-8"?>
<svg xmlns="http://www.w3.org/2000/svg" id="Layer_1" data-name="Layer 1" viewBox="0 0 24 24">
  <path d="m17.039,14.742c1.141,1.76,1.272,3.933.363,5.962-.538,1.202-1.496,2.16-2.698,2.698-.892.399-1.812.599-2.712.599-1.148,0-2.264-.323-3.25-.962-1.717-1.112-2.742-2.996-2.742-5.039,0-1.481.542-2.835,1.434-3.883.16.295.349.574.591.814l.032.032c-.652.845-1.056,1.89-1.056,3.037,0,1.703.854,3.272,2.285,4.2,1.469.951,3.295,1.059,5.011.29.963-.432,1.763-1.231,2.194-2.194.768-1.715.662-3.541-.29-5.011-.928-1.431-2.497-2.285-4.2-2.285h-1.665l2.56,2.561-.707.707-2.75-2.75c-.266-.265-.421-.618-.438-.995-.019-.419.141-.83.438-1.126l2.75-2.75.707.707-2.646,2.646h1.751c2.043,0,3.927,1.025,5.039,2.742Zm1.264-9.621c-1.35-3.121-4.382-5.122-7.803-5.122C5.813,0,2,3.813,2,8.5c0,.593.061,1.182.182,1.754-1.354.871-2.182,2.369-2.182,3.996,0,2.382,1.769,4.342,4.058,4.68-.035-.306-.058-.615-.058-.93,0-.026.004-.05.004-.076-1.711-.347-3.004-1.863-3.004-3.674,0-1.387.762-2.656,1.987-3.311l.348-.185-.099-.381c-.157-.606-.236-1.236-.236-1.874,0-4.136,3.364-7.5,7.5-7.5,3.104,0,5.844,1.865,6.981,4.752l.105.27.287.042c2.922.426,5.126,2.978,5.126,5.937,0,2.232-1.227,4.178-3.04,5.209.026.26.04.524.04.791,0,.107-.012.211-.016.316,2.369-1.121,4.016-3.526,4.016-6.316,0-3.355-2.43-6.262-5.697-6.878Z"/>
</svg>
