<?xml version="1.0" encoding="UTF-8"?>
<svg xmlns="http://www.w3.org/2000/svg" id="Layer_1" data-name="Layer 1" viewBox="0 0 24 24">
  <path d="M20.465,8C20.204,3.546,16.508,0,11.99,0S3.777,3.546,3.516,8H.018l1.997,13.601c.201,1.368,1.395,2.399,2.778,2.399h14.511c1.383,0,2.577-1.032,2.778-2.404l1.876-13.596h-3.494ZM11.99,1c3.967,0,7.216,3.098,7.475,7H4.516c.259-3.902,3.508-7,7.475-7Zm9.102,20.455c-.129,.881-.898,1.545-1.789,1.545H4.792c-.89,0-1.659-.664-1.789-1.545L1.175,9H22.811l-1.719,12.455Zm-8.592-5.955h3.5v1h-3.5v3.5h-1v-3.5h-3.5v-1h3.5v-3.5h1v3.5Z"/>
</svg>
