<?xml version="1.0" encoding="UTF-8"?>
<svg xmlns="http://www.w3.org/2000/svg" id="Layer_1" data-name="Layer 1" viewBox="0 0 24 24">
  <path d="m2,13.535l1-1v11.465h-1v-10.465Zm9.967-5.032l.033,15.498,1-.002-.031-14.494-1.002-1.002Zm-4.999.064l.032,15.434,1-.002-.034-16.43-.998.998Zm14.537,3.433h-1.005v-2h-1v2h-1.005c-1.376,0-2.495,1.119-2.495,2.495,0,1.108.744,2.095,1.81,2.398l4.106,1.174c.638.183,1.084.773,1.084,1.438,0,.824-.671,1.495-1.495,1.495h-3.01c-.824,0-1.495-.671-1.495-1.495v-.505h-1v.505c0,1.376,1.119,2.495,2.495,2.495h1.005v2h1v-2h1.005c1.376,0,2.495-1.119,2.495-2.495,0-1.108-.744-2.095-1.81-2.398l-4.106-1.174c-.638-.183-1.084-.773-1.084-1.438,0-.824.671-1.495,1.495-1.495h3.01c.824,0,1.495.671,1.495,1.495v.505h1v-.505c0-1.376-1.119-2.495-2.495-2.495Zm.995-12h-5.5v1h5.293l-6.793,6.793L9.5,1.793.057,11.236l.707.707L9.5,3.207l6,6,7.5-7.5v5.293h1V1.5c0-.827-.673-1.5-1.5-1.5Z"/>
</svg>
