<?xml version="1.0" encoding="UTF-8"?>
<svg xmlns="http://www.w3.org/2000/svg" id="Layer_1" data-name="Layer 1" viewBox="0 0 24 24">
  <path d="m23.069,1.635c-.592-.494-1.366-.7-2.123-.56l-6.46,1.174c-1.073.195-1.964.849-2.486,1.736-.521-.888-1.413-1.541-2.486-1.736L3.054,1.076c-.758-.14-1.532.066-2.123.56-.592.494-.931,1.219-.931,1.989v17.145l12,2.182,12-2.182V3.625c0-.771-.339-1.496-.931-1.989Zm-11.569,20.208l-10.5-1.909V3.625c0-.473.208-.918.572-1.221.363-.303.838-.427,1.304-.344l6.46,1.175c1.254.228,2.165,1.318,2.165,2.593v16.016Zm11.5-1.909l-10.5,1.909V5.828c0-1.275.91-2.366,2.165-2.594l6.46-1.175c.464-.083.941.041,1.304.344.363.303.572.748.572,1.221v16.31ZM7,13h-1v-6h1v6Zm.5,3c0,.552-.448,1-1,1s-1-.448-1-1,.448-1,1-1,1,.448,1,1Z"/>
</svg>
