<?xml version="1.0" encoding="UTF-8"?>
<svg xmlns="http://www.w3.org/2000/svg" id="Layer_1" data-name="Layer 1" viewBox="0 0 24 24">
  <path d="M24,10v-.5C24,4.262,19.738,0,14.5,0h-.5V10h5.5v2h-1.005c-1.376,0-2.495,1.119-2.495,2.495,0,1.108,.744,2.095,1.81,2.399l4.106,1.173c.638,.182,1.084,.773,1.084,1.438,0,.824-.671,1.495-1.495,1.495h-3.01c-.824,0-1.495-.671-1.495-1.495v-.505h-1v.505c0,1.376,1.119,2.495,2.495,2.495h1.005v2h1v-2h1.005c1.376,0,2.495-1.119,2.495-2.495,0-1.108-.744-2.095-1.81-2.399l-4.106-1.173c-.638-.182-1.084-.773-1.084-1.438,0-.824,.671-1.495,1.495-1.495h3.01c.824,0,1.495,.671,1.495,1.495v.505h1v-.505c0-1.376-1.119-2.495-2.495-2.495h-1.005v-2h3.5Zm-9-1V1.015c4.29,.25,7.735,3.696,7.985,7.985h-7.985Zm-.081,13.198c.213,.281,.458,.532,.73,.757-1.414,.663-2.986,1.045-4.649,1.045C4.935,24,0,19.065,0,13S4.935,2,11,2c.133,0,.265,.009,.396,.018l.644,.035-.037,9.947h2.756c-.206,.307-.359,.646-.485,1h-2.275v.002l-1-.004,.037-9.998c-.012,0-.024,0-.037,0C5.486,3,1,7.486,1,13s4.486,10,10,10c1.39,0,2.715-.287,3.919-.802Z"/>
</svg>
