<?xml version="1.0" encoding="UTF-8"?>
<svg xmlns="http://www.w3.org/2000/svg" id="Layer_1" data-name="Layer 1" viewBox="0 0 24 24">
  <path d="m21.5,2h-5.032c-1.099-1.227-2.695-2-4.468-2s-3.369.773-4.468,2H2.5c-1.379,0-2.5,1.121-2.5,2.5v19.5h24V4.5c0-1.379-1.121-2.5-2.5-2.5Zm-9.5-1c2.757,0,5,2.243,5,5v1h-5.291l1.838-3.677-.895-.447-2.061,4.124h-3.591v-1c0-2.757,2.243-5,5-5Zm11,22H1V4.5c0-.827.673-1.5,1.5-1.5h4.305c-.512.883-.805,1.908-.805,3v2h12v-2c0-1.092-.293-2.117-.805-3h4.305c.827,0,1.5.673,1.5,1.5v18.5Z"/>
</svg>
