<?xml version="1.0" encoding="UTF-8"?>
<svg xmlns="http://www.w3.org/2000/svg" id="Layer_1" data-name="Layer 1" viewBox="0 0 24 24">
  <path d="m21,17.051v-8.051C21,4.037,16.962,0,12,0c-3.309,0-6,2.691-6,6s2.691,6,6,6c2.79,0,5.134-1.916,5.803-4.5-.175-.675-.458-1.306-.84-1.867.009.123.037.241.037.367,0,2.757-2.243,5-5,5s-5-2.243-5-5S9.243,1,12,1c4.411,0,8,3.589,8,8v8.051c-1.692.245-3,1.691-3,3.449v3.5h7v-3.5c0-1.758-1.308-3.204-3-3.449Zm2,5.949h-5v-2.5c0-1.379,1.122-2.5,2.5-2.5s2.5,1.121,2.5,2.5v2.5Zm-19-5.949V6c0-.458.047-.905.122-1.342-.713,1.289-1.122,2.768-1.122,4.342v8.051c-1.692.245-3,1.691-3,3.449v3.5h7v-3.5c0-1.758-1.308-3.204-3-3.449Zm2,5.949H1v-2.5c0-1.379,1.122-2.5,2.5-2.5s2.5,1.121,2.5,2.5v2.5Z"/>
</svg>
