<?xml version="1.0" encoding="UTF-8"?>
<svg xmlns="http://www.w3.org/2000/svg" id="Layer_1" data-name="Layer 1" viewBox="0 0 24 24">
  <path d="m23,4s0,0,0,0V0s-1.01,0-1.01,0l-.104.362c-.299,1.041-1.168,1.638-2.386,1.638h-3.5c-1.103,0-2,.897-2,2v2c0,.73.397,1.363.982,1.712l1.53,3.972-2.152,1.316H3c-1.654,0-3,1.346-3,3v8h1v-8c0-1.103.897-2,2-2h11.641l3.894-2.381-.011-.018c.131-.105.252-.224.347-.37.295-.454.341-1.02.126-1.516l-.673-1.714h1.177c1.217,0,2.087.597,2.386,1.638l.104.362h1.009v-4s0,0,0,0c.551,0,1-.449,1-1s-.449-1-1-1Zm-4.931,6.089l.008.02c.083.188.066.404-.046.577-.056.086-.131.155-.218.202h0c-.087.048-.186.073-.289.073h-.219l-1.14-2.961h1.084l.82,2.089Zm1.431-3.089h-3.5c-.551,0-1-.449-1-1v-2c0-.551.449-1,1-1h3.5c1.021,0,1.885-.33,2.5-.923v5.846c-.616-.593-1.479-.923-2.5-.923Zm-13,4c2.481,0,4.5-2.019,4.5-4.5s-2.019-4.5-4.5-4.5S2,4.019,2,6.5s2.019,4.5,4.5,4.5Zm0-8c1.93,0,3.5,1.57,3.5,3.5s-1.57,3.5-3.5,3.5-3.5-1.57-3.5-3.5,1.57-3.5,3.5-3.5Zm3.5,13h1v8h-1v-8Z"/>
</svg>
