<?xml version="1.0" encoding="UTF-8"?>
<svg xmlns="http://www.w3.org/2000/svg" id="Layer_1" data-name="Layer 1" viewBox="0 0 24 24">
  <path d="m24,11.977v12.023h-1v-12.023C23,5.912,18.065.977,12,.977S1,5.912,1,11.977v12.023H0v-12.023C0,5.36,5.383-.023,12-.023s12,5.383,12,12Zm-3.986,10.023h-2.014v2h-3v-2h-6v2h-3v-2h-1.986l-.104-3.754c0-1.221.206-2.409.612-3.545l1.443-4.041c.354-.993,1.3-1.659,2.354-1.659h7.181c1.054,0,2,.667,2.354,1.659l1.443,4.042c.406,1.137.612,2.325.612,3.531l.104,3.768Zm-14.538-7h12.867l-1.43-4.005c-.213-.595-.78-.995-1.413-.995h-7.181c-.632,0-1.2.4-1.413.995l-1.43,4.005Zm2.524,7h-1v1h1v-1Zm9,0h-1v1h1v-1Zm1.986-1l-.076-2.754c0-.765-.095-1.515-.272-2.246h-2.728v1.5c0,.276-.224.5-.5.5s-.5-.224-.5-.5v-1.5h-6v1.5c0,.276-.224.5-.5.5s-.5-.224-.5-.5v-1.5h-2.728c-.177.729-.272,1.476-.272,2.232l.077,2.768h14Z"/>
</svg>
