<?xml version="1.0" encoding="UTF-8"?>
<svg xmlns="http://www.w3.org/2000/svg" id="Layer_1" data-name="Layer 1" viewBox="0 0 24 24">
  <path d="M18,13c-.552,0-1-.448-1-1s.448-1,1-1,1,.448,1,1-.448,1-1,1Zm4.497-2c-.503-1.321-1.376-2.501-2.497-3.373V3h-.5c-1.182,0-3.415,.643-3.903,3.008v-.002c-.027,.068-.094,.969-.096,.995h.979l.04-.411c.181-1.889,1.678-2.4,2.48-2.538v4.08l.206,.15c1.15,.833,2.024,2.032,2.462,3.374l.112,.345h1.22v4h-1.375l-.128,.311c-.754,1.837-2.268,3.243-4.152,3.857l-.345,.112v2.72h-3v-2h-5v2h-3v-2.72l-.345-.112c-2.784-.907-4.655-3.487-4.655-6.418,0-2.802,1.717-5.21,4.153-6.229-.199-.272-.371-.56-.52-.861-1.046,.462-1.968,1.151-2.712,2-.56-.365-.921-.976-.921-1.66,0-1.103,.897-2,2-2v-1c-1.654,0-3,1.346-3,3,0,.997,.498,1.91,1.299,2.464-.82,1.228-1.299,2.702-1.299,4.286,0,3.242,1.995,6.11,5,7.247v3.003h5v-2h3v2h5v-3.003c1.898-.719,3.435-2.151,4.287-3.997h1.713v-6h-1.503ZM6.076,3.213C6.366,1.701,7.563,.454,9.053,.109c1.221-.282,2.473-.006,3.435,.758,.961,.764,1.512,1.906,1.512,3.132,0,1.527-.858,2.897-2.24,3.575-.158,.078-.26,.247-.26,.433v1.993h-3v-1.993c0-.188-.104-.355-.271-.438-1.634-.806-2.499-2.557-2.154-4.356Zm4.424,4.794s.001-.005,.001-.007h-1.002s.001,.005,.001,.007v.993h1v-.993Zm-1.828-1.334c.166,.082,.301,.198,.422,.327h1.812c.119-.129,.253-.245,.414-.323,1.036-.508,1.68-1.534,1.68-2.677,0-.92-.414-1.776-1.135-2.35-.721-.574-1.665-.78-2.587-.566-1.111,.256-2.003,1.188-2.22,2.318-.26,1.352,.389,2.667,1.614,3.271Z"/>
</svg>
