<?xml version="1.0" encoding="UTF-8"?>
<svg xmlns="http://www.w3.org/2000/svg" id="Layer_1" data-name="Layer 1" viewBox="0 0 24 24">
  <path d="m12.5,16c4.411,0,8-3.589,8-8S16.911,0,12.5,0,4.5,3.589,4.5,8s3.589,8,8,8Zm0-15c3.86,0,7,3.14,7,7s-3.14,7-7,7-7-3.14-7-7S8.64,1,12.5,1Zm0,19v3h5.5v1H6v-1h5.5v-3.051C5.351,19.438.5,14.279.5,8,.5,5.062,1.57,2.231,3.512.03l.75.662c-1.781,2.018-2.762,4.613-2.762,7.308,0,6.065,4.935,11,11,11,3.647,0,7.058-1.799,9.122-4.813l.825.565c-2.251,3.286-5.969,5.248-9.947,5.248Z"/>
</svg>
