<?xml version="1.0" encoding="UTF-8"?>
<svg xmlns="http://www.w3.org/2000/svg" id="Layer_1" data-name="Layer 1" viewBox="0 0 24 24">
  <path d="m17.5,11c-3.584,0-6.5,2.916-6.5,6.5s2.916,6.5,6.5,6.5,6.5-2.916,6.5-6.5-2.916-6.5-6.5-6.5Zm0,12c-3.032,0-5.5-2.468-5.5-5.5s2.468-5.5,5.5-5.5,5.5,2.468,5.5,5.5-2.468,5.5-5.5,5.5Zm.5-4h-1v-6h1v6Zm.5,2c0,.552-.448,1-1,1s-1-.448-1-1,.448-1,1-1,1,.448,1,1Zm5.5-11.014v2.042c-.305-.362-.64-.696-1-1.003v-1.039c0-.517-.242-1.015-.648-1.333,0,0,0,0,0,0h0S13.041,1.359,13.041,1.359c-.613-.481-1.47-.479-2.083,0L1.649,8.653c-.407.318-.649.816-.649,1.333v13.014h10.026c.306.36.641.695,1.003,1H0v-14.014c0-.822.386-1.614,1.032-2.12L10.341.572c.977-.766,2.34-.766,3.317,0l9.31,7.294c.646.506,1.032,1.298,1.032,2.12Z"/>
</svg>
