<?xml version="1.0" encoding="UTF-8"?>
<svg xmlns="http://www.w3.org/2000/svg" id="Layer_1" data-name="Layer 1" viewBox="0 0 24 24">
  <path d="m24,12c0,2.791-1.647,5.195-4.016,6.316.004-.106.016-.21.016-.316,0-.267-.014-.53-.04-.791,1.813-1.032,3.04-2.977,3.04-5.209,0-2.959-2.204-5.511-5.126-5.937l-.287-.042-.106-.27c-1.137-2.887-3.877-4.752-6.98-4.752-4.136,0-7.5,3.364-7.5,7.5,0,.635.079,1.265.236,1.874l.098.38-.346.186c-1.226.654-1.987,1.924-1.987,3.311,0,1.812,1.293,3.327,3.004,3.674,0,.025-.004.05-.004.076,0,.315.023.624.058.93-2.29-.338-4.058-2.298-4.058-4.68,0-1.627.827-3.125,2.181-3.996-.12-.574-.181-1.163-.181-1.754C2,3.813,5.813,0,10.5,0c3.421,0,6.453,2,7.802,5.121,3.269.616,5.698,3.523,5.698,6.879Zm-7.5,6c0-.274-.03-.551-.094-.85l1.526-.897-1.521-2.586-1.516.892c-.408-.34-.882-.606-1.396-.786v-1.771h-3v1.771c-.515.18-.988.446-1.396.786l-1.516-.892-1.521,2.586,1.526.897c-.063.299-.094.576-.094.85s.03.551.094.85l-1.526.897,1.521,2.586,1.516-.892c.408.34.882.606,1.396.786v1.771h3v-1.771c.515-.18.988-.446,1.396-.786l1.516.892,1.521-2.586-1.526-.897c.063-.299.094-.576.094-.85Zm.063,2.103l-.507.862-1.331-.796c-.543.68-1.325,1.15-2.225,1.281v1.551h-1v-1.551c-.895-.13-1.673-.595-2.216-1.269l-1.341.784-.507-.862,1.328-.776c-.169-.41-.265-.857-.265-1.327,0-.464.095-.906.26-1.312l-1.324-.791.507-.862,1.331.796c.543-.68,1.325-1.15,2.225-1.281v-1.551h1v1.551c.903.131,1.687.603,2.23,1.286l1.327-.802.507.862-1.321.798c.163.404.258.843.258,1.305,0,.465-.095.906-.26,1.312l1.324.791Zm-4.563-4.103c-1.103,0-2,.897-2,2s.897,2,2,2,2-.897,2-2-.897-2-2-2Zm0,3c-.552,0-1-.449-1-1s.448-1,1-1,1,.449,1,1-.448,1-1,1Z"/>
</svg>
