<?xml version="1.0" encoding="UTF-8"?>
<svg xmlns="http://www.w3.org/2000/svg" id="Layer_1" data-name="Layer 1" viewBox="0 0 24 24">
  <path d="M21.5,2h-3.5V0h-1V2H7V0h-1V2H2.5C1.122,2,0,3.122,0,4.5V24H12.028c-.362-.305-.696-.64-1.003-1H1V9H23v2.026c.36,.306,.695,.641,1,1.003V4.5c0-1.378-1.122-2.5-2.5-2.5ZM1,4.5c0-.827,.673-1.5,1.5-1.5H21.5c.827,0,1.5,.673,1.5,1.5v3.5H1v-3.5Zm16.5,6.5c-3.584,0-6.5,2.916-6.5,6.5s2.916,6.5,6.5,6.5,6.5-2.916,6.5-6.5-2.916-6.5-6.5-6.5Zm0,12c-3.033,0-5.5-2.467-5.5-5.5s2.467-5.5,5.5-5.5,5.5,2.467,5.5,5.5-2.467,5.5-5.5,5.5Zm2.162-5.888c.213-.318,.338-.701,.338-1.112,0-1.103-.897-2-2-2v-1h-1v1h-2v7h2v1h1v-1h1c1.103,0,2-.897,2-2,0-.871-.56-1.614-1.338-1.888Zm-3.662-2.112h2c.551,0,1,.449,1,1s-.449,1-1,1h-2v-2Zm3,5h-3v-2h3c.551,0,1,.449,1,1s-.449,1-1,1Z"/>
</svg>
