<?xml version="1.0" encoding="UTF-8"?>
<svg xmlns="http://www.w3.org/2000/svg" id="Layer_1" data-name="Layer 1" viewBox="0 0 24 24">
  <path d="M12,11.993l3.535-3.457c.944-.944,1.465-2.2,1.465-3.536s-.521-2.592-1.465-3.536h0c-.945-.944-2.2-1.464-3.535-1.464s-2.592,.52-3.535,1.464c-.945,.944-1.465,2.2-1.465,3.536s.523,2.595,1.478,3.548l3.522,3.445ZM9.172,2.171c.755-.755,1.759-1.171,2.828-1.171s2.072,.416,2.828,1.171c.756,.755,1.172,1.76,1.172,2.829s-.416,2.074-1.168,2.825l-2.832,2.77-2.819-2.757c-.761-.761-1.181-1.768-1.181-2.837s.416-2.074,1.172-2.829Zm11.828,3.829v1h-2.29c-.102,.344-.236,.676-.39,1h2.68v8h-2.293l-3.854-3.854-.707,.707,4.146,4.146h2.707v5H11v-3.707l-4.293-4.293H3v-6h2.684c-.155-.324-.289-.656-.392-1H3v-1H0V24H3v-1H21v1h3V6h-3ZM2,23H1V7h1V23Zm1-8h3.293l3.707,3.707v3.293H3v-7Zm20,8h-1V7h1V23ZM12,7c1.103,0,2-.897,2-2s-.897-2-2-2-2,.897-2,2,.897,2,2,2Zm0-3c.551,0,1,.449,1,1s-.449,1-1,1-1-.449-1-1,.449-1,1-1Z"/>
</svg>
