<?xml version="1.0" encoding="UTF-8"?>
<svg xmlns="http://www.w3.org/2000/svg" id="Layer_1" data-name="Layer 1" viewBox="0 0 24 24">
  <path d="m2.5,4h9.5v1H2.5c-.827,0-1.5.673-1.5,1.5v11c0,.827.673,1.5,1.5,1.5h8.176l-3.187-3.261.715-.699,3.387,3.465c.547.547.547,1.443-.004,1.994l-3.383,3.461-.715-.699,3.187-3.261H2.5c-1.379,0-2.5-1.121-2.5-2.5V6.5c0-1.379,1.121-2.5,2.5-2.5Zm14.5,11.5c0-1.379,1.121-2.5,2.5-2.5s2.5,1.121,2.5,2.5-1.121,2.5-2.5,2.5-2.5-1.121-2.5-2.5Zm1,0c0,.827.673,1.5,1.5,1.5s1.5-.673,1.5-1.5-.673-1.5-1.5-1.5-1.5.673-1.5,1.5Zm3.5,3.5h-4c-1.379,0-2.5,1.121-2.5,2.5v2.5h1v-2.5c0-.827.673-1.5,1.5-1.5h4c.827,0,1.5.673,1.5,1.5v2.5h1v-2.5c0-1.379-1.121-2.5-2.5-2.5ZM17,2.5c0-1.379,1.121-2.5,2.5-2.5s2.5,1.121,2.5,2.5-1.121,2.5-2.5,2.5-2.5-1.121-2.5-2.5Zm1,0c0,.827.673,1.5,1.5,1.5s1.5-.673,1.5-1.5-.673-1.5-1.5-1.5-1.5.673-1.5,1.5Zm3.5,3.5h-4c-1.379,0-2.5,1.121-2.5,2.5v2.5h1v-2.5c0-.827.673-1.5,1.5-1.5h4c.827,0,1.5.673,1.5,1.5v2.5h1v-2.5c0-1.379-1.121-2.5-2.5-2.5Z"/>
</svg>
