<?xml version="1.0" encoding="UTF-8"?>
<svg xmlns="http://www.w3.org/2000/svg" id="Layer_1" data-name="Layer 1" viewBox="0 0 24 24">
  <path d="m9,12c3.309,0,6-2.691,6-6S12.309,0,9,0,3,2.691,3,6s2.691,6,6,6Zm0-11c2.757,0,5,2.243,5,5s-2.243,5-5,5-5-2.243-5-5S6.243,1,9,1Zm9,17.5v5.5h-1v-5.5c0-1.93-1.57-3.5-3.5-3.5H4.5c-1.93,0-3.5,1.57-3.5,3.5v5.5H0v-5.5c0-2.481,2.019-4.5,4.5-4.5h9c2.481,0,4.5,2.019,4.5,4.5Zm3.19-8.983l2.784,2.784-.707.707-2.784-2.784-2.784,2.784-.707-.707,2.784-2.784-2.784-2.784.707-.707,2.784,2.784,2.784-2.784.707.707-2.784,2.784Z"/>
</svg>
