<?xml version="1.0" encoding="UTF-8"?>
<svg xmlns="http://www.w3.org/2000/svg" id="Layer_1" data-name="Layer 1" viewBox="0 0 24 24">
  <path d="m21.5,16H2.5c-1.378,0-2.5,1.122-2.5,2.5v3c0,1.378,1.122,2.5,2.5,2.5h19c1.378,0,2.5-1.122,2.5-2.5v-3c0-1.378-1.122-2.5-2.5-2.5Zm-6.5,7H2.5c-.827,0-1.5-.673-1.5-1.5v-3c0-.827.673-1.5,1.5-1.5h12.5v6Zm8-1.5c0,.827-.673,1.5-1.5,1.5h-5.5v-6h5.5c.827,0,1.5.673,1.5,1.5v3ZM6.711,11.825l1.936-1.131c.537.489,1.167.852,1.853,1.068v2.238h3v-2.238c.687-.217,1.316-.58,1.853-1.068l1.936,1.131,1.513-2.591-1.941-1.134c.094-.385.14-.747.14-1.1s-.046-.716-.14-1.101l1.941-1.133-1.513-2.591-1.936,1.13c-.537-.488-1.167-.851-1.853-1.068V0h-3v2.238c-.687.217-1.316.58-1.853,1.068l-1.936-1.13-1.513,2.591,1.941,1.133c-.094.385-.14.748-.14,1.101s.046.715.14,1.1l-1.941,1.134,1.513,2.591Zm1.608-3.26c-.205-.481-.319-1.009-.319-1.565s.112-1.079.315-1.558l-1.749-1.035.504-.863,1.76,1.042c.634-.831,1.581-1.397,2.67-1.535V1h1v2.05c1.092.138,2.04.706,2.675,1.541l1.755-1.048.504.863-1.746,1.042c.201.477.312,1.001.312,1.551,0,.559-.116,1.09-.323,1.573l1.757,1.02-.504.863-1.771-1.028c-.634.824-1.576,1.385-2.659,1.521v2.05h-1v-2.05c-1.086-.137-2.03-.701-2.665-1.529l-1.765,1.036-.504-.863,1.752-1.029Zm3.681.435c-1.103,0-2-.897-2-2s.897-2,2-2,2,.897,2,2-.897,2-2,2Zm0-3c-.551,0-1,.449-1,1s.449,1,1,1,1-.449,1-1-.449-1-1-1Z"/>
</svg>
