<?xml version="1.0" encoding="UTF-8"?>
<svg xmlns="http://www.w3.org/2000/svg" id="Layer_1" data-name="Layer 1" viewBox="0 0 24 24">
  <path d="M6.5,17h2.5v7h-1v-6h-1.5c-3.032,0-5.5-2.467-5.5-5.5V7H0v-1H4V0h1V6h7V0h1V6h4v1h-1v2.14c-.34,.061-.675,.135-1,.235v-2.375H2v5.5c0,2.481,2.019,4.5,4.5,4.5Zm17.5,.5c0,3.584-2.916,6.5-6.5,6.5s-6.5-2.916-6.5-6.5,2.916-6.5,6.5-6.5,6.5,2.916,6.5,6.5Zm-1,0c0-3.033-2.468-5.5-5.5-5.5s-5.5,2.467-5.5,5.5,2.468,5.5,5.5,5.5,5.5-2.467,5.5-5.5Zm-4.104-.484h-2.78c-.054,0-.083-.023-.104-.102l1.917-3.154-.855-.52-2.024,3.363c-.102,.335-.041,.687,.165,.964,.211,.285,.54,.448,.902,.448h2.78c.046,0,.072,.032,.087,.059,.011,.021,.033,.075-.008,.137l-1.898,3.022,.848,.532,1.892-3.012c.227-.343,.245-.785,.048-1.153-.194-.361-.565-.586-.968-.586Z"/>
</svg>
