<?xml version="1.0" encoding="UTF-8"?>
<svg xmlns="http://www.w3.org/2000/svg" id="Layer_1" data-name="Layer 1" viewBox="0 0 24 24">
  <path d="M12,12.5h5.051c.245,1.692,1.691,3,3.449,3,1.93,0,3.5-1.57,3.5-3.5s-1.57-3.5-3.5-3.5c-1.758,0-3.204,1.308-3.449,3h-5.051V4h5.051c.245,1.692,1.691,3,3.449,3,1.93,0,3.5-1.57,3.5-3.5s-1.57-3.5-3.5-3.5c-1.758,0-3.204,1.308-3.449,3h-6.051V11.5H6.949c-.245-1.692-1.691-3-3.449-3-1.93,0-3.5,1.57-3.5,3.5s1.57,3.5,3.5,3.5c1.758,0,3.204-1.308,3.449-3h4.051v8.5h6.051c.245,1.692,1.691,3,3.449,3,1.93,0,3.5-1.57,3.5-3.5s-1.57-3.5-3.5-3.5c-1.758,0-3.204,1.308-3.449,3h-5.051v-7.5Zm8.5-3c1.379,0,2.5,1.122,2.5,2.5s-1.121,2.5-2.5,2.5-2.5-1.121-2.5-2.5,1.121-2.5,2.5-2.5Zm0-8.5c1.379,0,2.5,1.122,2.5,2.5s-1.121,2.5-2.5,2.5-2.5-1.122-2.5-2.5,1.121-2.5,2.5-2.5ZM3.5,14.5c-1.379,0-2.5-1.121-2.5-2.5s1.121-2.5,2.5-2.5,2.5,1.122,2.5,2.5-1.121,2.5-2.5,2.5Zm17,3.5c1.379,0,2.5,1.121,2.5,2.5s-1.121,2.5-2.5,2.5-2.5-1.121-2.5-2.5,1.121-2.5,2.5-2.5Z"/>
</svg>
