<?xml version="1.0" encoding="UTF-8"?>
<svg xmlns="http://www.w3.org/2000/svg" id="Layer_1" data-name="Layer 1" viewBox="0 0 24 24">
  <path d="m21.5,4h-3.5v-1.5c0-1.378-1.122-2.5-2.5-2.5H2.5C1.122,0,0,1.122,0,2.5v15.855c0,.609.333,1.166.871,1.453.244.13.511.195.777.195.319,0,.638-.093.914-.277l3.438-2.292v3.566h11.349l4.089,2.726c.276.184.594.277.914.277.266,0,.533-.065.777-.195.537-.287.871-.844.871-1.453V6.5c0-1.378-1.122-2.5-2.5-2.5ZM2.007,18.894c-.203.135-.45.147-.665.032-.214-.115-.342-.328-.342-.571V2.5c0-.827.673-1.5,1.5-1.5h13c.827,0,1.5.673,1.5,1.5v13.5H6.349l-4.341,2.894Zm20.993,3.461c0,.243-.128.457-.342.571-.214.114-.463.102-.665-.032l-4.341-2.894H7v-3h11V5h3.5c.827,0,1.5.673,1.5,1.5v15.855Zm-8-10.549v-6.338c0-.623-.285-1.195-.782-1.57-.497-.376-1.125-.491-1.725-.321l-2.491.712c-.399.114-.744.344-1.002.646-.258-.302-.603-.531-1.002-.646l-2.491-.712c-.599-.17-1.227-.053-1.725.321-.497.375-.782.947-.782,1.57v6.338l6,1.714,6-1.714Zm-5.5-5.526c0-.476.319-.899.777-1.03l2.491-.712c.089-.025.179-.038.268-.038.207,0,.409.067.58.196.245.185.385.466.385.772v5.584l-4.5,1.285v-6.057Zm-1,6.057l-4.5-1.285v-5.584c0-.306.14-.587.385-.772.243-.184.552-.242.848-.158l2.49.712c.458.131.777.554.777,1.03v6.057Z"/>
</svg>
