<?xml version="1.0" encoding="UTF-8"?>
<svg xmlns="http://www.w3.org/2000/svg" id="Layer_1" data-name="Layer 1" viewBox="0 0 24 24">
  <path d="m19.715,5.171l1.662-1.81,1.256,1.256.707-.707-3.188-3.188-.707.707,1.224,1.224-1.696,1.847c-1.778-1.461-4.024-2.364-6.473-2.475V0h-1v2.025c-2.449.111-4.695,1.013-6.473,2.475l-1.696-1.847,1.286-1.286-.707-.707L.66,3.91l.707.707,1.256-1.256,1.662,1.81c-2.025,1.996-3.285,4.767-3.285,7.829,0,6.065,4.935,11,11,11s11-4.935,11-11c0-3.062-1.26-5.833-3.285-7.829Zm-7.715,17.829c-5.514,0-10-4.486-10-10S6.486,3,12,3s10,4.486,10,10-4.486,10-10,10Zm.5-11.929v-6.071h-1v6.071c-.86.224-1.5,1-1.5,1.929,0,1.103.897,2,2,2s2-.897,2-2c0-.929-.64-1.705-1.5-1.929Zm-.5,2.929c-.552,0-1-.449-1-1s.448-1,1-1,1,.449,1,1-.448,1-1,1Z"/>
</svg>
