<?xml version="1.0" encoding="UTF-8"?>
<svg xmlns="http://www.w3.org/2000/svg" id="Layer_1" data-name="Layer 1" viewBox="0 0 24 24">
  <path d="m23.343,0c-2.059,0-6.018.384-9.42,2.946-3.174,2.392-5.54,6.908-5.877,11.054h-3.046v2.649l-3.428,1.238c-1.155.462-1.799,1.721-1.486,2.965l1.055,3.147h13.719l1.066-3.185c.301-1.207-.343-2.465-1.514-2.934l-3.412-1.232v-2.649h-1.956c.029-.332.071-.666.127-1,3.355-.032,6.656-1.242,9.813-3.599,3.206-2.392,4.134-6.009,4.688-8.171l.325-1.23h-.654Zm-13.343,15v2.351l4.057,1.465c.693.277,1.079,1.033.91,1.719l-.826,2.465H1.859l-.814-2.427c-.181-.724.205-1.479.883-1.751l4.072-1.471v-2.351h4Zm8.387-6.401c-2.665,1.989-5.426,3.103-8.222,3.342.539-.557,4.962-5.09,7.985-7.441-3.465,1.617-7.058,5.042-8.489,6.5.907-2.876,2.676-5.608,4.863-7.255,2.845-2.142,6.127-2.649,8.171-2.731-.522,2.037-1.4,5.417-4.309,7.586Z"/>
</svg>
