<?xml version="1.0" encoding="UTF-8"?>
<svg xmlns="http://www.w3.org/2000/svg" id="Layer_1" data-name="Layer 1" viewBox="0 0 24 24">
  <path d="M21,9.5v.5h-1v-.5c0-.827-.673-1.5-1.5-1.5h-3c-.827,0-1.5,.673-1.5,1.5,0,.876,.628,1.612,1.492,1.751l3.174,.51c1.353,.217,2.334,1.369,2.334,2.739,0,1.378-1.121,2.5-2.5,2.5h-1v2h-1v-2h-1c-1.379,0-2.5-1.122-2.5-2.5v-.5h1v.5c0,.827,.673,1.5,1.5,1.5h3c.827,0,1.5-.673,1.5-1.5,0-.876-.628-1.612-1.492-1.751l-3.174-.51c-1.353-.217-2.334-1.369-2.334-2.739,0-1.378,1.121-2.5,2.5-2.5h1v-2h1v2h1c1.379,0,2.5,1.122,2.5,2.5Zm3-5V22H0V4.5c0-1.378,1.121-2.5,2.5-2.5H21.5c1.379,0,2.5,1.122,2.5,2.5Zm-1,0c0-.827-.673-1.5-1.5-1.5H2.5c-.827,0-1.5,.673-1.5,1.5V21H23V4.5ZM3,9h7v-1H3v1Zm0,3.5h7v-1H3v1Zm0,3.5h7v-1H3v1Z"/>
</svg>
