<?xml version="1.0" encoding="UTF-8"?>
<svg xmlns="http://www.w3.org/2000/svg" id="Layer_1" data-name="Layer 1" viewBox="0 0 24 24">
  <path d="m22.946,9.222l-1.946-1.896V2.5c0-1.378-1.121-2.5-2.5-2.5H5.5c-1.379,0-2.5,1.122-2.5,2.5v4.828l-1.946,1.893c-.67.654-1.054,1.566-1.054,2.503v12.275h24v-12.276c0-.936-.384-1.848-1.054-2.502Zm-.578.86l-1.368,1.368v-2.727s1.327,1.312,1.368,1.359ZM5.5,1h13c.827,0,1.5.673,1.5,1.5v9.949l-5.525,5.526c-1.322,1.322-3.627,1.322-4.949,0l-5.525-5.526V2.5c0-.827.673-1.5,1.5-1.5Zm-2.5,7.724v2.726l-1.368-1.368c.041-.047,1.368-1.358,1.368-1.358Zm20,14.276H1v-11.275c0-.252.051-.498.125-.737l7.693,7.694c.85.85,1.979,1.318,3.182,1.318s2.332-.468,3.182-1.318l7.694-7.694c.074.238.125.484.125.736v11.276ZM6,7.5c0-1.93,1.57-3.5,3.5-3.5h6.5c1.103,0,2,.897,2,2s-.897,2-2,2h-6.5v-1h6.5c.552,0,1-.449,1-1s-.448-1-1-1h-6.5c-1.379,0-2.5,1.122-2.5,2.5s1.121,2.5,2.5,2.5h6.5v1h-6.5c-1.93,0-3.5-1.57-3.5-3.5Z"/>
</svg>
