<?xml version="1.0" encoding="UTF-8"?>
<svg xmlns="http://www.w3.org/2000/svg" id="Layer_1" data-name="Layer 1" viewBox="0 0 24 24">
  <path d="m11.539,22.97l1.002,1.002c-.181.008-.358.027-.541.027-.521,0-1.047-.034-1.564-.101,0,0,0,0,0,0h0C4.486,23.124,0,18.009,0,12,0,5.383,5.383,0,12,0s12,5.383,12,12c0,1.038-.146,2.039-.395,3h-1.032c.271-.955.426-1.959.426-3,0-6.065-4.935-11-11-11S1,5.935,1,12c0,5.508,4.112,10.197,9.564,10.907h0c.322.042.649.049.974.063Zm.461-11.253l-4.757,2.854.515.857,5.243-3.146v-7.283h-1v6.717Zm5.492,10.844c-.565.566-1.554.567-2.121,0l-3.384-3.385-.707.707,3.384,3.385c.473.473,1.101.732,1.768.732s1.296-.26,1.768-.732l5.799-5.798-.707-.707-5.799,5.798Z"/>
</svg>
