<?xml version="1.0" encoding="UTF-8"?>
<svg xmlns="http://www.w3.org/2000/svg" id="Layer_1" data-name="Layer 1" viewBox="0 0 24 24">
  <path d="m17.5,11c-3.584,0-6.5,2.916-6.5,6.5s2.916,6.5,6.5,6.5,6.5-2.916,6.5-6.5-2.916-6.5-6.5-6.5Zm0,12c-3.033,0-5.5-2.468-5.5-5.5s2.467-5.5,5.5-5.5,5.5,2.468,5.5,5.5-2.467,5.5-5.5,5.5Zm.5-4h-1v-6h1v6Zm.5,2c0,.552-.448,1-1,1s-1-.448-1-1,.448-1,1-1,1,.448,1,1Zm-7.073,2.442c-.264.12-.516.23-.738.32h0s-.71.286-.71.286l-.626-.313C7.16,22.638,0,18.546,0,11.935v-6.664c0-1.124.718-2.117,1.788-2.473L10,.076l8.212,2.722c1.069.354,1.788,1.348,1.788,2.473v4.105c-.325-.1-.66-.174-1-.235v-3.87c0-.693-.443-1.306-1.103-1.523l-7.897-2.618L2.103,3.747c-.659.219-1.103.831-1.103,1.523v6.664c0,6.037,6.736,9.873,8.801,10.905l.224.112.231-.094s.341-.141.493-.207c.211.276.435.543.678.791Z"/>
</svg>
