<?xml version="1.0" encoding="UTF-8"?>
<svg xmlns="http://www.w3.org/2000/svg" id="Layer_1" data-name="Layer 1" viewBox="0 0 24 24">
  <path d="m19.545,11.1c-.637-.508-1.238-.988-1.691-1.441l-.38-.38-.352.406c-.986,1.139-1.367,2.576-1.674,3.731-.176.664-.392,1.48-.622,1.574-.213-.179-.605-.97-.854-1.732l-.258-.788-.576.595c-.918.946-2.138,2.435-2.138,4.435,0,3.405,2.981,6.534,6.5,6.534s6.5-3.129,6.5-6.534c0-2.848-2.47-4.817-4.455-6.4Zm-3.545,10.436c0-.401.156-.777.439-1.061l1.061-1.061,1.061,1.061c.283.284.439.66.439,1.061s-.269,1.464-1.5,1.464-1.5-1.064-1.5-1.464Zm3.814.947c.121-.297.186-.617.186-.947,0-.668-.26-1.296-.732-1.768l-1.768-1.768-1.768,1.768c-.473.472-.732,1.1-.732,1.768,0,.33.065.65.186.947-1.878-.876-3.186-2.777-3.186-4.982,0-1.283.623-2.322,1.312-3.141.36.863.856,1.641,1.471,1.641,1.016,0,1.302-1.078,1.633-2.327.241-.91.534-2.013,1.146-2.917.408.366.875.738,1.361,1.126,1.911,1.524,4.078,3.252,4.078,5.618,0,2.205-1.308,4.106-3.186,4.982Zm4.186-12.496v2.496c-.317-.376-.653-.731-1-1.065v-1.431c0-.525-.236-1.011-.648-1.333L13.041,1.359c-.613-.48-1.469-.48-2.082,0L1.649,8.653c-.413.323-.649.809-.649,1.333v13.013h10.031c.307.36.641.695,1.003,1H0v-14.013c0-.834.376-1.607,1.033-2.121L10.342.572c.977-.765,2.34-.765,3.316,0l9.31,7.294c.656.513,1.032,1.286,1.032,2.121Z"/>
</svg>
