<?xml version="1.0" encoding="UTF-8"?>
<svg xmlns="http://www.w3.org/2000/svg" id="Layer_1" data-name="Layer 1" viewBox="0 0 24 24">
  <path d="M12,6c1.406,0,2.756,.602,3.705,1.651l.157,.174,3.586-.146,1.488-3.083-.186-.244C18.646,1.586,15.456,0,12,0,5.935,0,1,4.935,1,11c0,3.466,1.073,7.241,2.069,10h-1.069v3h7v-1l-.016-.125c-.02-.077-1.984-7.71-1.984-11.875,0-2.757,2.243-5,5-5Zm-6,5c0,4.043,1.716,10.948,1.984,12H3v-1h1.512l-.256-.677c-.842-2.226-2.255-6.525-2.255-10.323C2,5.486,6.486,1,12,1c3.04,0,5.854,1.352,7.767,3.719l-.739,1.531c-.737-1.089-1.706-2.008-2.854-2.656l-.491,.871c.986,.557,1.822,1.34,2.466,2.267l-1.865,.076c-1.127-1.151-2.675-1.808-4.284-1.808-3.309,0-6,2.691-6,6Zm17.002-.536l-2.99,1.473-3.008-1.648-.007,.836c-.037,4.189-1.961,11.676-1.98,11.751l-.016,1.125h7v-3h-1.07c.838-2.332,2-6.178,2.059-9.717l.014-.819Zm-3.257,10.859l-.256,.677h1.511v1h-4.984c.247-.971,1.732-6.95,1.954-11.043l2.018,1.106,1.967-.969c-.226,3.524-1.458,7.241-2.21,9.229ZM3.792,8.781l.966,.261c-.171,.635-.258,1.294-.258,1.958,0,.656,0,2,0,2h-1s0-1.257,0-2c0-.752,.099-1.499,.292-2.219ZM12,3.5c-.629,0-1.254,.078-1.858,.232l-.247-.969c.685-.175,1.393-.263,2.105-.263s1.421,.088,2.105,.263l-.247,.969c-.604-.154-1.229-.232-1.858-.232Zm-4.216,.119l.496,.868c-1.145,.655-2.101,1.604-2.765,2.743l-.864-.503c.752-1.292,1.836-2.367,3.133-3.108Z"/>
</svg>
