<?xml version="1.0" encoding="UTF-8"?>
<svg xmlns="http://www.w3.org/2000/svg" id="Layer_1" data-name="Layer 1" viewBox="0 0 24 24">
  <path d="m12,5c1.379,0,2.5-1.122,2.5-2.5s-1.121-2.5-2.5-2.5-2.5,1.122-2.5,2.5,1.121,2.5,2.5,2.5Zm0-4c.827,0,1.5.673,1.5,1.5s-.673,1.5-1.5,1.5-1.5-.673-1.5-1.5.673-1.5,1.5-1.5Zm9,.143l-5.621,5.038c-.282-.107-.575-.181-.879-.181h-5c-1.379,0-2.5,1.122-2.5,2.5v5.191l-4,3.586v2.223c1.5-1,5-3.5,9-3.5s8.319,2.409,9,2.79v-1.14c-.833-.443-2.289-1.148-4-1.721v-7.171l-1,.896v5.96c-1.279-.361-2.655-.614-4-.614-3.062,0-5.86,1.309-7.446,2.227L21,2.487v-1.344Zm-13,7.357c0-.827.673-1.5,1.5-1.5h4.966l-6.466,5.795v-4.295Zm1,10.049c.327-.111.659-.207,1-.288v5.739h-1v-5.451Zm5-.335c.336.066.67.144,1,.234v5.552h-1v-5.786Z"/>
</svg>
