<?xml version="1.0" encoding="UTF-8"?>
<svg xmlns="http://www.w3.org/2000/svg" id="Layer_1" data-name="Layer 1" viewBox="0 0 24 24">
  <path d="m24,12.5v-.5C24,5.383,18.617,0,12,0S0,5.383,0,12s5.383,12,12,12v-.005c5.755-.003,10.572-4.079,11.727-9.495h-1.031c-1.138,4.86-5.499,8.495-10.701,8.495-.007,0-.012.004-.019.004-6.054-.013-10.976-4.942-10.976-10.999S5.935,1,12,1c5.897,0,10.727,4.666,10.988,10.5l-3.014-.002c-.047-.76-.199-1.499-.457-2.211.296-.349.482-.794.482-1.287,0-1.103-.897-2-2-2-.212,0-.413.042-.605.104-1.467-1.341-3.395-2.104-5.395-2.104s-3.923.747-5.402,2.102c-.19-.06-.389-.102-.598-.102-1.103,0-2,.897-2,2,0,.493.186.938.482,1.287-.314.868-.482,1.776-.482,2.713,0,3.66,2.513,6.853,6.025,7.747.123.986.956,1.753,1.975,1.753s1.857-.773,1.976-1.763c2.676-.683,4.771-2.692,5.614-5.237h-1.065c-.786,2.041-2.504,3.642-4.678,4.238-.3-.726-1.015-1.238-1.848-1.238s-1.542.507-1.844,1.228c-3.008-.824-5.156-3.569-5.156-6.728,0-.73.11-1.442.328-2.125.211.076.435.125.672.125,1.103,0,2-.897,2-2,0-.515-.201-.98-.521-1.334,1.264-1.072,2.854-1.666,4.521-1.666s3.266.601,4.522,1.664c-.321.355-.522.821-.522,1.336,0,1.103.897,2,2,2,.237,0,.461-.049.672-.125.167.525.263,1.068.302,1.622l-3.011-.002c-.246-1.971-1.933-3.5-3.969-3.5-2.206,0-4,1.794-4,4s1.794,4,4,4h0s0,0,0,0c1.068,0,2.073-.416,2.828-1.172.1-.1.178-.215.266-.323h-1.444c-.486.321-1.054.495-1.65.495,0,0,0,0,0,0h0c-1.654,0-3-1.346-3-3s1.346-3,3-3,3,1.346,3,3v.5l9.005.006Zm-12,6c.551,0,1,.449,1,1s-.449,1-1,1-1-.449-1-1,.449-1,1-1Zm-6-9.5c-.551,0-1-.449-1-1s.449-1,1-1,1,.449,1,1-.449,1-1,1Zm11-1c0-.551.448-1,1-1s1,.449,1,1-.448,1-1,1-1-.449-1-1Z"/>
</svg>
