<?xml version="1.0" encoding="UTF-8"?>
<svg xmlns="http://www.w3.org/2000/svg" id="Layer_1" data-name="Layer 1" viewBox="0 0 24 24">
  <path d="M22.5,18c0-.274-.03-.551-.094-.85l1.527-.897-1.521-2.586-1.516,.892c-.408-.34-.881-.606-1.396-.786v-1.771h-3v1.771c-.515,.18-.988,.446-1.396,.786l-1.516-.892-1.521,2.586,1.527,.897c-.064,.299-.094,.576-.094,.85s.03,.551,.094,.85l-1.527,.897,1.521,2.586,1.516-.892c.408,.34,.881,.606,1.396,.786v1.771h3v-1.771c.515-.18,.988-.446,1.396-.786l1.516,.892,1.521-2.586-1.527-.897c.064-.299,.094-.576,.094-.85Zm.063,2.103l-.507,.862-1.319-.809c-.542,.688-1.33,1.162-2.238,1.293v1.55h-1v-1.55c-.898-.13-1.677-.596-2.219-1.271l-1.337,.786-.507-.862,1.326-.78c-.167-.409-.263-.854-.263-1.323,0-.472,.096-.92,.265-1.331l-1.329-.772,.507-.862,1.343,.78c.542-.672,1.319-1.135,2.214-1.265v-1.55h1v1.55c.887,.128,1.659,.585,2.2,1.248l1.356-.763,.507,.862-1.335,.752c.174,.416,.272,.872,.272,1.351,0,.459-.094,.894-.254,1.295l1.318,.808Zm-10.803,2.897c.29,.361,.613,.694,.96,1H2.65c-.917-.323-2.65-1.553-2.65-3.786,0-4.182,5.147-9.135,7-10.781V1h-2V0h13V1h-2V9.434c.207,.184,.46,.415,.738,.676-.403,.064-.798,.151-1.179,.273-.154-.14-.463-.412-.559-.496V1h-7V9.886c-.666,.583-3.051,2.745-4.78,5.114h7.367c-.131,.323-.237,.658-.325,1H2.537c-.892,1.404-1.537,2.875-1.537,4.214,0,1.87,1.547,2.632,1.911,2.786H11.76Zm6.24-7c-1.105,0-2,.895-2,2s.895,2,2,2,2-.895,2-2-.895-2-2-2Zm0,3c-.552,0-1-.448-1-1s.448-1,1-1,1,.448,1,1-.448,1-1,1Z"/>
</svg>
