<?xml version="1.0" encoding="UTF-8"?>
<svg xmlns="http://www.w3.org/2000/svg" id="Layer_1" data-name="Layer 1" viewBox="0 0 24 24">
  <path d="m9.237,4.815l.448,6.185h-1.024l-.38-5.532-1.689,3.707-1.688-3.714-.418,5.539h-.986l.449-6.185c.038-.623.417-.884.873-.884.302,0,.583.214.743.566l1.028,2.262,1.028-2.262c.16-.352.441-.566.743-.566.455,0,.835.261.873.884Zm14.763-2.315v15.707l-5.793,5.793H0V2.5C0,1.122,1.121,0,2.5,0h19c1.379,0,2.5,1.122,2.5,2.5ZM1,23h16v-6h6V2.5c0-.827-.673-1.5-1.5-1.5H2.5c-.827,0-1.5.673-1.5,1.5v20.5Zm21.793-5h-4.793v4.793l4.793-4.793Zm-7.793-12c0,1.103-.897,2-2,2h-1v3h-1v-7h2c1.103,0,2,.897,2,2Zm-1,0c0-.551-.448-1-1-1h-1v2h1c.552,0,1-.449,1-1Zm6,3c0-.6-.271-1.133-.691-1.5.42-.367.691-.9.691-1.5,0-1.103-.897-2-2-2h-2v1h2c.552,0,1,.449,1,1s-.448,1-1,1h-1.5v1h1.5c.552,0,1,.449,1,1s-.448,1-1,1h-2v1h2c1.103,0,2-.897,2-2Z"/>
</svg>
