<?xml version="1.0" encoding="UTF-8"?>
<svg xmlns="http://www.w3.org/2000/svg" id="Layer_1" data-name="Layer 1" viewBox="0 0 24 24">
  <path d="M21.962,11.623c-.177-.923-.988-1.623-1.962-1.623,0-.844-.526-1.563-1.266-1.856-.834-3.037-3.558-5.144-6.734-5.144-3.86,0-7,3.14-7,7v.113C1.825,11.237,0,13.007,0,15c0,3.364,5.271,6,12,6s12-2.636,12-6c0-1.228-.709-2.39-2.038-3.377Zm-2.399-.517c.686-.336,1.438,.196,1.438,.893s-.752,1.231-1.438,.893l-.736-.363c.101-.156,.174-.331,.174-.53s-.073-.374-.174-.53l.736-.363Zm-2.389,1.423l-.736,.363c-.685,.337-1.438-.195-1.438-.893s.754-1.229,1.438-.893l.736,.363c-.101,.156-.174,.331-.174,.53s.073,.374,.174,.53Zm-.066,1.032l.361-.737c.156,.101,.332,.175,.532,.175s.375-.074,.532-.175l.361,.737c.071,.145,.107,.292,.107,.438,0,.551-.448,1-1,1s-1-.449-1-1c0-.146,.036-.293,.107-.438Zm1.893-3.562c0,.146-.036,.293-.107,.438l-.361,.737c-.156-.101-.332-.174-.532-.174s-.375,.073-.532,.174l-.361-.737c-.071-.145-.107-.292-.107-.438,0-.551,.448-1,1-1s1,.449,1,1Zm-13,0c0-3.309,2.691-6,6-6,2.589,0,4.82,1.637,5.65,4.035-.935,.167-1.65,.982-1.65,1.965-1.103,0-2,.897-2,2,0,.111,.015,.219,.033,.325-.637,.108-1.312,.175-2.033,.175-4.107,0-5.666-1.715-6-2.157v-.343Zm0,1.74c.978,.788,2.823,1.76,6,1.76,.875,0,1.701-.081,2.468-.23,.367,.442,.914,.73,1.532,.73,0,.083,.015,.163,.025,.244-1.121,.493-2.464,.756-4.025,.756-4.1,0-5.664-1.712-6-2.156v-1.104Zm6,8.26c-5.962,0-11-2.29-11-5,0-1.457,1.492-2.858,4-3.819v1.958c.067,.112,1.777,2.861,7,2.861,1.683,0,3.147-.288,4.388-.827,.364,.499,.949,.827,1.612,.827,1.103,0,2-.897,2-2,.818,0,1.522-.495,1.831-1.201,.619,.558,1.169,1.306,1.169,2.201,0,2.71-5.037,5-11,5Z"/>
</svg>
