<?xml version="1.0" encoding="UTF-8"?>
<svg xmlns="http://www.w3.org/2000/svg" id="Layer_1" data-name="Layer 1" viewBox="0 0 24 24">
  <path d="M23.895,11.872l-4.982-2.661,3.681-6.912-7.202,3.253L12.448,.04l-2.863,5.378L-.046,.003,5.995,9.229,.313,12.03l5.708,2.521-2.124,5.785,5.699-1.958,2.974,5.556,2.798-5.469,8.38,4.932-4.721-8.922,4.867-2.603Zm-2.682,8.873l-6.251-3.68-2.411,4.713-2.474-4.622-4.517,1.552,1.723-4.692-4.608-2.035,4.774-2.354L3.034,2.882l6.953,3.909,2.462-4.625,2.5,4.684,5.382-2.431-2.771,5.204,4.213,2.25-4.096,2.19,3.535,6.682Z"/>
</svg>
