<?xml version="1.0" encoding="UTF-8"?>
<svg xmlns="http://www.w3.org/2000/svg" id="Layer_1" data-name="Layer 1" viewBox="0 0 24 24">
  <path d="M12,0C5.383,0,0,5.383,0,12s5.383,12,12,12,12-5.383,12-12S18.617,0,12,0Zm0,23c-6.065,0-11-4.935-11-11S5.935,1,12,1s11,4.935,11,11-4.935,11-11,11Zm5.205-15.801c-.473-.264-1.035-.267-1.466-.027l-3.739,1.605-3.676-1.583c-.752-.415-1.693-.141-2.107,.606h0c-.262,.475-.26,1.04,.013,1.521l5.77,9.652,5.797-9.663c.419-.744,.154-1.691-.591-2.111Zm-.273,1.609l-4.931,8.219L7.094,8.82c-.094-.167-.095-.367-.002-.536,.147-.266,.482-.362,.792-.193l4.116,1.776,4.178-1.797c.169-.093,.37-.092,.537,.001,.264,.149,.358,.485,.217,.737Z"/>
</svg>
