<?xml version="1.0" encoding="UTF-8"?>
<svg xmlns="http://www.w3.org/2000/svg" id="Layer_1" data-name="Layer 1" viewBox="0 0 24 24">
  <path d="m12,8c1.103,0,2-.897,2-2s-.897-2-2-2-2,.897-2,2,.897,2,2,2Zm0-3c.552,0,1,.448,1,1s-.448,1-1,1-1-.448-1-1,.448-1,1-1Zm-4.412,5.334l1.516-.892c.408.34.882.606,1.396.786v1.771h3v-1.771c.515-.18.988-.446,1.396-.786l1.516.892,1.521-2.587-1.526-.896c.063-.3.094-.576.094-.851s-.03-.551-.094-.851l1.526-.896-1.521-2.587-1.516.892c-.408-.34-.882-.606-1.396-.786V0h-3v1.771c-.515.18-.988.446-1.396.786l-1.516-.892-1.521,2.587,1.526.896c-.063.3-.094.576-.094.851s.03.551.094.851l-1.526.896,1.521,2.587Zm1.169-3.007l-.106-.372c-.103-.361-.15-.665-.15-.955s.048-.594.15-.955l.106-.372-1.32-.775.507-.862,1.305.768.273-.273c.431-.432.984-.743,1.604-.903l.375-.098v-1.528h1v1.528l.375.098c.619.16,1.173.472,1.604.903l.273.273,1.305-.768.507.862-1.32.775.106.372c.103.361.15.665.15.955s-.048.594-.15.955l-.106.372,1.32.775-.507.862-1.305-.768-.273.273c-.431.432-.984.743-1.604.903l-.375.098v1.528h-1v-1.528l-.375-.098c-.619-.16-1.173-.472-1.604-.903l-.273-.273-1.305.768-.507-.862,1.32-.775Zm15.243,14.173v2.5h-1v-2.5c0-.827-.673-1.5-1.5-1.5h-3.5c-.827,0-1.5.673-1.5,1.5v2.5h-1v-2.5c0-.827-.673-1.5-1.5-1.5h-4c-.827,0-1.5.673-1.5,1.5v2.5h-1v-2.5c0-.827-.673-1.5-1.5-1.5h-3.5c-.827,0-1.5.673-1.5,1.5v2.5H0v-2.5c0-1.379,1.121-2.5,2.5-2.5h3.5c.821,0,1.544.403,2,1.015.456-.612,1.179-1.015,2-1.015h4c.821,0,1.544.403,2,1.015.456-.612,1.179-1.015,2-1.015h3.5c1.379,0,2.5,1.121,2.5,2.5Zm-4.25-3.5c1.379,0,2.5-1.121,2.5-2.5s-1.121-2.5-2.5-2.5-2.5,1.121-2.5,2.5,1.121,2.5,2.5,2.5Zm0-4c.827,0,1.5.673,1.5,1.5s-.673,1.5-1.5,1.5-1.5-.673-1.5-1.5.673-1.5,1.5-1.5Zm-10.25,1.5c0,1.379,1.121,2.5,2.5,2.5s2.5-1.121,2.5-2.5-1.121-2.5-2.5-2.5-2.5,1.121-2.5,2.5Zm4,0c0,.827-.673,1.5-1.5,1.5s-1.5-.673-1.5-1.5.673-1.5,1.5-1.5,1.5.673,1.5,1.5Zm-11.75,0c0,1.379,1.121,2.5,2.5,2.5s2.5-1.121,2.5-2.5-1.121-2.5-2.5-2.5-2.5,1.121-2.5,2.5Zm4,0c0,.827-.673,1.5-1.5,1.5s-1.5-.673-1.5-1.5.673-1.5,1.5-1.5,1.5.673,1.5,1.5Zm-4.75-2.311c-.621.771-1,1.745-1,2.811v-8c0-1.654,1.346-3,3-3h2.08c-.047.327-.08.66-.08,1h-2c-1.105,0-2,.895-2,2v5.189Zm23-5.189v8c0-1.065-.379-2.04-1-2.811v-5.189c0-1.105-.895-2-2-2h-2c0-.34-.033-.673-.08-1h2.08c1.654,0,3,1.346,3,3Z"/>
</svg>
