<?xml version="1.0" encoding="UTF-8"?>
<svg xmlns="http://www.w3.org/2000/svg" id="Layer_1" data-name="Layer 1" viewBox="0 0 24 24">
  <path d="m19,8v-1c0-3.859-3.141-7-7-7s-7,3.141-7,7v1h-3v13.5c0,1.379,1.121,2.5,2.5,2.5h15c1.379,0,2.5-1.121,2.5-2.5v-13.5h-3Zm-13-1c0-3.309,2.691-6,6-6s6,2.691,6,6v1H6v-1Zm15,14.5c0,.827-.673,1.5-1.5,1.5H4.5c-.827,0-1.5-.673-1.5-1.5v-12.5h18v12.5Zm-6.623-5.697c.386-.404.623-.951.623-1.553,0-1.24-1.01-2.25-2.25-2.25h-.25v-1h-1v1h-2v8h2v1h1v-1h.75c1.24,0,2.25-1.01,2.25-2.25,0-.83-.452-1.558-1.123-1.947Zm-3.877-2.803h2.25c.689,0,1.25.561,1.25,1.25s-.561,1.25-1.25,1.25h-2.25v-2.5Zm2.75,6h-2.75v-2.5h2.75c.689,0,1.25.561,1.25,1.25s-.561,1.25-1.25,1.25Z"/>
</svg>
