<?xml version="1.0" encoding="UTF-8"?>
<svg xmlns="http://www.w3.org/2000/svg" id="Layer_1" data-name="Layer 1" viewBox="0 0 24 24">
  <path d="M24,12.149c0-.484-.077-.963-.23-1.423l-1.339-4.017c-.342-1.022-1.295-1.709-2.372-1.709h-3.059v-1.5c0-1.378-1.121-2.5-2.5-2.5h-.697c.195,.336,.369,.67,.515,1h.182c.827,0,1.5,.673,1.5,1.5v14.5H1V8.858c-.356-.093-.69-.233-1-.414v11.556c0,1.654,1.346,3,3,3,1.044,0,1.962-.537,2.5-1.348,.538,.811,1.456,1.348,2.5,1.348,1.654,0,3-1.346,3-3v-1h5v1c0,1.654,1.346,3,3,3s3-1.346,3-3v-1h2v-6.851Zm-3.941-6.149c.646,0,1.219,.412,1.423,1.026l1.325,3.974h-5.806V6h3.059ZM3,22c-1.103,0-2-.897-2-2v-1H5v1c0,1.103-.897,2-2,2Zm7-2c0,1.103-.897,2-2,2s-2-.897-2-2v-1h4v1Zm11,0c0,1.103-.897,2-2,2s-2-.897-2-2v-1h4v1Zm2-2h-6v-6h6v6ZM0,5V0H1V5c0,.551,.448,1,1,1h1V0h1V6h1c.552,0,1-.449,1-1V0h1V5c0,1.103-.897,2-2,2h-1v6h-1V7h-1c-1.103,0-2-.897-2-2Zm10,5.242c.704-.578,3-2.658,3-5.242,0-1.397-.663-2.898-2.027-4.587-.296-.368-.8-.508-1.256-.346-.436,.154-.717,.542-.717,.988V13h1v-2.758Zm.05-9.233c.007-.002,.029-.009,.056-.009,.029,0,.063,.008,.09,.041,1.214,1.504,1.805,2.8,1.805,3.959,0,1.61-1.167,3.058-1.994,3.883l.044-7.874Z"/>
</svg>
