<?xml version="1.0" encoding="UTF-8"?>
<svg xmlns="http://www.w3.org/2000/svg" id="Layer_1" data-name="Layer 1" viewBox="0 0 24 24">
  <path d="m14.059,23c1.001.63,2.183,1,3.453,1H2.512c-1.378,0-2.5-1.122-2.5-2.5V2.5C.012,1.121,1.134,0,2.512,0h16c.827,0,1.5.673,1.5,1.5v10c-.321-.134-.656-.237-1-.319V1.5c0-.275-.224-.5-.5-.5H2.512c-.827,0-1.5.673-1.5,1.5v19c0,.827.673,1.5,1.5,1.5h11.547Zm-.047-15v-1H6.012v1h8Zm9.281,15.988l-2.988-2.988c-.77.616-1.733,1-2.793,1-2.481,0-4.5-2.019-4.5-4.5s2.019-4.5,4.5-4.5,4.5,2.019,4.5,4.5c0,1.06-.384,2.023-1,2.793l2.988,2.988-.707.707Zm-2.281-6.488c0-1.93-1.57-3.5-3.5-3.5s-3.5,1.57-3.5,3.5,1.57,3.5,3.5,3.5,3.5-1.57,3.5-3.5Z"/>
</svg>
