<?xml version="1.0" encoding="UTF-8"?>
<svg xmlns="http://www.w3.org/2000/svg" id="Layer_1" data-name="Layer 1" viewBox="0 0 24 24">
  <path d="M18.5,3.5h-2.531c-.247-1.97-1.933-3.5-3.969-3.5s-3.722,1.53-3.969,3.5h-2.531C3.019,3.5,1,5.519,1,8v9.5c0,2.481,2.019,4.5,4.5,4.5h2.5v2h1v-3h-3.5c-1.93,0-3.5-1.57-3.5-3.5V9h14v-1H2c0-1.93,1.57-3.5,3.5-3.5h3.5v-.5c0-1.654,1.346-3,3-3s3,1.346,3,3v.5h3.5c1.93,0,3.5,1.57,3.5,3.5h-4v1h4v3h-4v1h4v3h-4v1h4v.5c0,1.93-1.57,3.5-3.5,3.5h-3.5v3h1v-2h2.5c2.481,0,4.5-2.019,4.5-4.5V8c0-2.481-2.019-4.5-4.5-4.5Z"/>
  <polygon points="10 24 11 24 11 22 13 22 13 24 14 24 14 21 10 21 10 24"/>
  <path d="M10,4c0,1.103,.897,2,2,2s2-.897,2-2-.897-2-2-2-2,.897-2,2Zm3,0c0,.551-.449,1-1,1s-1-.449-1-1,.449-1,1-1,1,.449,1,1Z"/>
</svg>
