<?xml version="1.0" encoding="UTF-8"?>
<svg xmlns="http://www.w3.org/2000/svg" id="Layer_1" data-name="Layer 1" viewBox="0 0 24 24">
  <path d="M20,9v-2h2V2h-1.191l1-2H4.5c-1.378,0-2.5,1.121-2.5,2.5V6.5c0,1.379,1.122,2.5,2.5,2.5h5.778l-2.26,6.026c-.218,.582-.783,.974-1.405,.974H1v-5H0v11H1v-5H6.614c1.036,0,1.977-.652,2.341-1.622l2.392-6.378h8.653Zm1-6v3h-1V3.618l.309-.618h.691ZM3,6.5V2.5c0-.827,.673-1.5,1.5-1.5h15.691l-1.191,2.382v4.618H4.5c-.827,0-1.5-.673-1.5-1.5ZM19.5,23h2.754l-5.254-9.008-5.254,9.008h2.754v1h-4.496l6.996-11.992,6.996,11.992h-4.496v-1Zm-2-2h-1v-4h1v4Zm.5,2c0,.552-.448,1-1,1s-1-.448-1-1,.448-1,1-1,1,.448,1,1Z"/>
</svg>
