<?xml version="1.0" encoding="UTF-8"?>
<svg xmlns="http://www.w3.org/2000/svg" id="Layer_1" data-name="Layer 1" viewBox="0 0 24 24">
  <path d="M11.026,12H4v-1H12.028c-.362,.305-.696,.64-1.003,1Zm-7.026,4h5.14c.061-.34,.135-.675,.235-1H4v1Zm20,1.5c0,3.584-2.916,6.5-6.5,6.5s-6.5-2.916-6.5-6.5,2.916-6.5,6.5-6.5,6.5,2.916,6.5,6.5Zm-1,0c0-3.033-2.468-5.5-5.5-5.5s-5.5,2.467-5.5,5.5,2.468,5.5,5.5,5.5,5.5-2.467,5.5-5.5Zm-6.02,1.452c-.082,.082-.144,.091-.241-.006l-1.856-1.799-.695,.718,1.851,1.793c.22,.221,.513,.342,.824,.342s.605-.122,.822-.339l3.456-3.399-.701-.713-3.459,3.402Zm-1.98-11.952H4v1H15v-1ZM2.5,23c-.827,0-1.5-.673-1.5-1.5V3H18v6.032c.339,.022,.673,.062,1,.122V2h-3V0h-1V2h-3V0h-1V2h-3V0h-1V2h-3V0h-1V2H0V21.5c0,1.378,1.121,2.5,2.5,2.5H12.028c-.36-.303-.689-.641-.992-1H2.5Z"/>
</svg>
