<?xml version="1.0" encoding="UTF-8"?>
<svg xmlns="http://www.w3.org/2000/svg" id="Layer_1" data-name="Layer 1" viewBox="0 0 24 24">
  <path d="M17,4c0,1.654,1.346,3,3,3,.568,0,1.094-.168,1.547-.443,.709,1.241,1.174,2.584,1.36,4.007l.992-.129c-.212-1.622-.748-3.151-1.583-4.553,.421-.516,.683-1.166,.683-1.883,0-1.654-1.346-3-3-3-.721,0-1.375,.266-1.893,.692-1.393-.824-2.942-1.382-4.542-1.591l-.129,.991c1.406,.183,2.769,.66,4.005,1.364-.274,.452-.441,.977-.441,1.543Zm5,0c0,1.103-.897,2-2,2s-2-.897-2-2,.897-2,2-2,2,.897,2,2ZM7,20c0-1.654-1.346-3-3-3-.568,0-1.094,.168-1.547,.443-.709-1.241-1.174-2.584-1.36-4.007l-.992,.129c.212,1.622,.748,3.151,1.583,4.553-.421,.516-.683,1.166-.683,1.883,0,1.654,1.346,3,3,3,.716,0,1.366-.263,1.883-.683,1.403,.835,2.932,1.371,4.553,1.582l.129-.991c-1.422-.185-2.766-.65-4.007-1.36,.275-.453,.443-.979,.443-1.547Zm-3,2c-1.103,0-2-.897-2-2s.897-2,2-2,2,.897,2,2-.897,2-2,2ZM13.512,6l-1.843-1.625,.662-.75,2.239,1.975c.271,.235,.43,.578,.43,.938s-.158,.703-.434,.941l-2.235,1.971-.662-.75,1.927-1.699h-1.596c-2.757,0-5,2.243-5,5,0,1.159,.412,2.213,1.077,3.062-.263,.238-.473,.518-.643,.82-.892-1.047-1.433-2.402-1.433-3.882,0-3.309,2.691-6,6-6h1.512Zm-3.024,12l1.843,1.625-.662,.75-2.239-1.975c-.271-.235-.43-.578-.43-.938s.158-.703,.434-.941l2.235-1.971,.662,.75-1.927,1.699h1.596c2.757,0,5-2.243,5-5,0-1.159-.412-2.213-1.077-3.062,.263-.238,.473-.518,.643-.82,.892,1.047,1.433,2.402,1.433,3.882,0,3.309-2.691,6-6,6h-1.512ZM1.093,10.564c.186-1.424,.65-2.767,1.36-4.008,.453,.275,.979,.443,1.547,.443,1.654,0,3-1.346,3-3,0-.568-.168-1.094-.443-1.547,1.242-.71,2.585-1.175,4.007-1.36l-.129-.991c-1.621,.211-3.15,.747-4.553,1.582-.516-.421-1.166-.683-1.883-.683-1.654,0-3,1.346-3,3,0,.716,.263,1.366,.683,1.883C.849,7.285,.312,8.814,.101,10.436l.992,.129ZM4,2c1.103,0,2,.897,2,2s-.897,2-2,2-2-.897-2-2,.897-2,2-2ZM22.907,13.436c-.186,1.423-.65,2.766-1.36,4.007-.453-.275-.979-.443-1.547-.443-1.654,0-3,1.346-3,3,0,.568,.168,1.094,.443,1.547-1.242,.71-2.585,1.175-4.007,1.36l.129,.991c1.621-.211,3.15-.747,4.553-1.582,.516,.421,1.166,.683,1.883,.683,1.654,0,3-1.346,3-3,0-.716-.263-1.365-.683-1.882,.834-1.403,1.37-2.932,1.582-4.554l-.992-.129Zm-2.907,8.564c-1.103,0-2-.897-2-2s.897-2,2-2,2,.897,2,2-.897,2-2,2Z"/>
</svg>
