<?xml version="1.0" encoding="UTF-8"?>
<svg xmlns="http://www.w3.org/2000/svg" id="Layer_1" data-name="Layer 1" viewBox="0 0 24 24">
  <path d="M20.601,6.284l-.411-.911,2.942-1.328,.411,.911-2.942,1.328Zm-.411,9.344l2.942,1.328,.411-.911-2.942-1.328-.411,.911ZM.457,4.956l2.942,1.328,.411-.911L.868,4.044l-.411,.911ZM.457,16.044l.411,.911,2.942-1.328-.411-.911-2.942,1.328Zm20.543-6.044v1h3v-1h-3Zm-18,0H0v1H3v-1Zm14.985-4.589c.01,.006,.021,.009,.031,.015,.616,.4,.984,1.077,.984,1.812,0,.739-.393,1.402-1.002,1.796,.006,.004,.012,.005,.018,.009,.616,.399,.984,1.077,.984,1.811,0,.745-.399,1.413-1.016,1.805,.01,.006,.022,.009,.032,.016,.616,.4,.984,1.077,.984,1.811,0,.851-.502,1.625-1.28,1.972l-.72,.301v3.243h-2v4h-6v-3.904l-.967,.404c-.281,.125-.579,.186-.875,.186-.41,0-.818-.118-1.174-.349-.616-.399-.984-1.077-.984-1.811,0-.745,.399-1.413,1.016-1.805-.01-.006-.022-.008-.033-.015-.616-.399-.984-1.077-.984-1.811,0-.739,.393-1.403,1.002-1.796-.006-.004-.013-.005-.018-.008-.616-.399-.984-1.077-.984-1.811,0-.745,.399-1.413,1.016-1.805-.01-.006-.022-.008-.033-.015-.616-.399-.984-1.077-.984-1.811,0-.745,.399-1.413,1.017-1.806-.01-.007-.023-.008-.033-.015-.616-.4-.984-1.077-.984-1.811,0-.851,.502-1.625,1.28-1.972L10.81,.184c.658-.294,1.425-.233,2.042,.167,.616,.399,.984,1.077,.984,1.811,0,.132-.033,.257-.056,.383l2.193-.915c.659-.295,1.428-.235,2.044,.166,.616,.399,.984,1.077,.984,1.811,0,.745-.399,1.412-1.015,1.805Zm-11.985-1.395c0,.4,.192,.754,.528,.973,.336,.218,.739,.25,1.104,.086l4.53-1.86c.404-.18,.673-.596,.673-1.053,0-.4-.192-.754-.528-.972-.194-.126-.41-.189-.627-.189-.16,0-.321,.034-.476,.103l-4.53,1.86c-.404,.18-.673,.596-.673,1.053Zm8,15.985h-4v3h4v-3Zm2-2.826l-4.374,1.826h4.374v-1.826Zm2-2.69c0-.4-.192-.754-.528-.972-.194-.126-.41-.19-.628-.19-.16,0-.321,.034-.476,.103l-9.692,4.045c-.406,.182-.676,.597-.676,1.054,0,.4,.192,.754,.528,.972,.336,.219,.738,.248,1.104,.086l9.692-4.045c.406-.181,.676-.597,.676-1.054Zm0-3.631c0-.4-.192-.755-.528-.973-.194-.125-.41-.189-.628-.189-.16,0-.321,.034-.476,.103L6.676,13.84c-.406,.182-.676,.597-.676,1.054,0,.4,.192,.754,.528,.972,.336,.218,.738,.248,1.104,.086l9.692-4.045c.406-.182,.676-.597,.676-1.054Zm0-3.616c0-.4-.192-.755-.528-.973-.194-.125-.41-.189-.628-.189-.16,0-.321,.034-.476,.103L6.676,10.224c-.406,.182-.676,.597-.676,1.054,0,.4,.192,.754,.528,.972,.336,.218,.738,.248,1.104,.086l9.692-4.045c.406-.182,.676-.597,.676-1.054Zm0-3.632c0-.4-.192-.754-.528-.972-.194-.126-.41-.189-.627-.189-.16,0-.321,.034-.476,.103L6.676,6.593c-.406,.182-.676,.597-.676,1.054,0,.4,.192,.755,.528,.973,.336,.217,.737,.249,1.104,.086l9.692-4.045c.406-.182,.676-.597,.676-1.054Z"/>
</svg>
