<?xml version="1.0" encoding="UTF-8"?>
<svg xmlns="http://www.w3.org/2000/svg" id="Layer_1" data-name="Layer 1" viewBox="0 0 24 24">
  <path d="M12,0C5.383,0,0,5.383,0,12s5.383,12,12,12,12-5.383,12-12S18.617,0,12,0Zm0,23c-6.065,0-11-4.935-11-11S5.935,1,12,1s11,4.935,11,11-4.935,11-11,11ZM16.801,6.794c-.419-.745-1.367-1.01-2.123-.583L5.027,12.001l9.652,5.769,.011,.007c.237,.134,.498,.2,.759,.2,.257,0,.515-.064,.751-.194,.748-.414,1.02-1.359,.627-2.063l-1.605-3.72,1.583-3.695c.262-.473,.26-1.038-.005-1.511Zm-.892,1.071l-1.775,4.135,1.797,4.159c.146,.266,.05,.601-.214,.748-.168,.091-.366,.09-.532,0L6.973,12,15.18,7.076c.265-.148,.601-.054,.749,.209,.093,.166,.094,.371-.02,.581Z"/>
</svg>
