<?xml version="1.0" encoding="UTF-8"?>
<svg xmlns="http://www.w3.org/2000/svg" id="Layer_1" data-name="Layer 1" viewBox="0 0 24 24">
  <path d="m23.44,15c-6.454,0-9.558,3.587-10.94,6.069v-7.094c3.626-.258,6.5-3.284,6.5-6.975,0-3.859-3.14-7-7-7s-7,3.141-7,7c0,3.691,2.874,6.716,6.5,6.975v7.087c-1.379-2.482-4.477-6.061-10.923-6.061H.006l.075.565c.947,7.162,8.977,8.272,11.292,8.434h1.252c2.316-.162,10.362-1.269,11.31-8.434l.075-.565h-.57ZM6,7c0-3.309,2.691-6,6-6s6,2.691,6,6-2.691,6-6,6-6-2.691-6-6ZM1.168,16.011c7.081.26,9.495,5.163,10.145,6.962-2.211-.148-8.96-1.084-10.145-6.962Zm11.521,6.962c.654-1.8,3.079-6.702,10.16-6.962-1.186,5.878-7.946,6.813-10.16,6.962Zm-1.188-11.973h-.368c-1.216,0-2.132-.859-2.132-2h1c0,.688.587,1,1.132,1h1.735c.625,0,1.132-.508,1.132-1.132,0-.512-.345-.962-.839-1.094l-2.634-.706c-.9-.246-1.527-1.067-1.527-1.998,0-1.142.929-2.07,2.07-2.07h.43v-1h1v1h.43c1.142,0,2.07.929,2.07,2.07h-1c0-.59-.48-1.07-1.07-1.07h-1.859c-.59,0-1.07.48-1.07,1.07,0,.481.324.905.789,1.032l2.631.705c.93.25,1.58,1.098,1.58,2.061,0,1.176-.957,2.132-2.132,2.132h-.368v1h-1v-1Z"/>
</svg>
