<?xml version="1.0" encoding="UTF-8"?>
<svg xmlns="http://www.w3.org/2000/svg" id="Layer_1" data-name="Layer 1" viewBox="0 0 24 24">
  <path d="M17,4H7V13H.326l9.833,10.23,.006,.006c.489,.492,1.141,.763,1.835,.764h.001c.694,0,1.346-.271,1.842-.769l9.83-10.231h-6.674V4Zm4.326,10l-8.197,8.532c-.301,.302-.702,.468-1.128,.468h0c-.425,0-.823-.166-1.124-.466L2.674,14h5.326V5h8V14h5.326Zm2.674-11.5v6.5h-1V2.5c0-.827-.673-1.5-1.5-1.5H2.5c-.827,0-1.5,.673-1.5,1.5v6.5H0V2.5C0,1.122,1.122,0,2.5,0H21.5c1.378,0,2.5,1.122,2.5,2.5Z"/>
</svg>
